
<svg width="69px" height="69px" viewBox="0 0 69 69" version="1.1" xmlns="http://www.w3.org/2000/svg" xmlns:xlink="http://www.w3.org/1999/xlink">
    <!-- Generator: Sketch 46.2 (44496) - http://www.bohemiancoding.com/sketch -->
    <desc>Created with Sketch.</desc>
    <defs></defs>
    <g id="Page-14" stroke="none" stroke-width="1" fill="none" fill-rule="evenodd">
        <g id="Desktop-HD" transform="translate(-607.000000, -3907.000000)">
            <g id="Follow-us" transform="translate(591.000000, 3851.000000)">
                <g id="Group-2" transform="translate(16.000000, 56.000000)">
                    <g id="FB">
                        <polygon id="Fill-1" fill="#961134" points="0 68 68.0743902 68 68.0743902 0 0 0"></polygon>
                        <path d="M59.3702927,42.15645 L60.7132683,31.920525 L50.3952439,31.920525 L50.3952439,25.384675 C50.3952439,22.4216 51.2367073,20.40155 55.5618293,20.40155 L61.0734146,20.3982 L61.0734146,11.24265 C60.122561,11.1187 56.8509512,10.838975 53.0357561,10.838975 C45.078878,10.838975 39.6362927,15.61105 39.6362927,24.3713 L39.6362927,31.920525 L30.6376829,31.920525 L30.6376829,42.15645 L39.6362927,42.15645 L39.6362927,68.4238 L50.3952439,68.4238 L50.3952439,42.15645 L59.3702927,42.15645" id="Fill-3" fill="#FFFFFE"></path>
                    </g>
                </g>
            </g>
        </g>
    </g>
</svg>