
<svg width="69px" height="68px" viewBox="0 0 69 68" version="1.1" xmlns="http://www.w3.org/2000/svg" xmlns:xlink="http://www.w3.org/1999/xlink">
    <!-- Generator: Sketch 46.2 (44496) - http://www.bohemiancoding.com/sketch -->
    <desc>Created with Sketch.</desc>
    <defs></defs>
    <g id="Page-1" stroke="none" stroke-width="1" fill="none" fill-rule="evenodd">
        <g id="Desktop-HD" transform="translate(-686.000000, -3907.000000)">
            <g id="Follow-us" transform="translate(591.000000, 3851.000000)">
                <g id="Group-2" transform="translate(16.000000, 56.000000)">
                    <g id="IG" transform="translate(79.000000, 0.000000)">
                        <polygon id="Fill-1" fill="#961134" points="0 67.8990244 68.400878 67.8990244 68.400878 0.482658537 0 0.482658537"></polygon>
                        <path d="M34.2425122,25.4926341 C29.2492683,25.4926341 25.1967805,29.3650488 25.1967805,34.1479268 C25.1967805,38.9240732 29.2492683,42.7998537 34.2425122,42.7998537 C39.2408049,42.7998537 43.2916098,38.9240732 43.2916098,34.1479268 C43.2916098,29.3650488 39.2408049,25.4926341 34.2425122,25.4926341 Z M51.6321951,30.8123659 L47.6705854,30.8123659 C48.045878,32.0240732 48.2495122,33.3030976 48.2495122,34.6309268 C48.2495122,42.0240244 41.9772439,48.0219756 34.2425122,48.0219756 C26.5111463,48.0219756 20.240561,42.0240244 20.240561,34.6309268 C20.240561,33.3030976 20.4441951,32.0240732 20.8194878,30.8123659 L16.6845366,30.8123659 L16.6845366,49.5971951 C16.6845366,50.5699268 17.4889756,51.3625854 18.4734878,51.3625854 L49.8449268,51.3625854 C50.831122,51.3625854 51.6321951,50.5699268 51.6321951,49.5971951 L51.6321951,30.8123659 Z M44.4949024,16.9467317 C43.377439,16.9467317 42.4652927,17.8504634 42.4652927,18.9527805 L42.4652927,23.7423902 C42.4652927,24.8447073 43.377439,25.7450732 44.4949024,25.7450732 L49.587439,25.7450732 C50.7015366,25.7450732 51.6153659,24.8447073 51.6153659,23.7423902 L51.6153659,18.9527805 C51.6153659,17.8504634 50.7015366,16.9467317 49.587439,16.9467317 L44.4949024,16.9467317 Z M17.4603659,12.0090244 L50.943878,12.0090244 C54.1262927,12.0090244 56.7264146,14.5771707 56.7264146,17.7158293 L56.7264146,50.7685122 C56.7264146,53.9088537 54.1262927,56.4736341 50.943878,56.4736341 L17.4603659,56.4736341 C14.2796341,56.4736341 11.6761463,53.9088537 11.6761463,50.7685122 L11.6761463,17.7158293 C11.6761463,14.5771707 14.2796341,12.0090244 17.4603659,12.0090244 L17.4603659,12.0090244 Z" id="Fill-3" fill="#FFFFFE"></path>
                    </g>
                </g>
            </g>
        </g>
    </g>
</svg>