<svg width="78px" height="79px" viewBox="0 0 78 79" version="1.1" xmlns="http://www.w3.org/2000/svg" xmlns:xlink="http://www.w3.org/1999/xlink">
    <!-- Generator: Sketch 46.2 (44496) - http://www.bohemiancoding.com/sketch -->
    <desc>Created with Sketch.</desc>
    <defs></defs>
    <g id="Page-6" stroke="none" stroke-width="1" fill="none" fill-rule="evenodd">
        <g id="Desktop-HD" transform="translate(-862.000000, -3419.000000)">
            <g id="Small-grid-image" transform="translate(99.000000, 3419.000000)">
                <g id="mary_jane" transform="translate(763.000000, 0.000000)">
                    <path d="M39,0 C17.4944997,0 0,17.7201257 0,39.4991379 C0,61.2798743 17.4944997,79 39,79 C60.5055003,79 78,61.2798743 78,39.4991379 C78,17.7201257 60.5055003,0 39,0" id="Fill-1" fill="#222853"></path>
                    <path d="M23,60 C23,60.552459 22.5528256,61 22.000819,61 C21.4488124,61 21,60.552459 21,60 C21,59.4491803 21.4488124,59 22.000819,59 C22.5528256,59 23,59.4491803 23,60" id="Fill-2" fill="#FFFFFE"></path>
                    <path d="M59,60 C59,60.552459 58.5540984,61 58,61 C57.447541,61 57,60.552459 57,60 C57,59.4491803 57.447541,59 58,59 C58.5540984,59 59,59.4491803 59,60" id="Fill-3" fill="#FFFFFE"></path>
                    <polyline id="Fill-4" fill="#FFFFFE" points="25.2158019 58.6811594 25.2158019 63 24.7841981 63 24.7841981 58.6811594 24 58.6811594 24 58 26 58 26 58.6811594"></polyline>
                    <polyline id="Fill-5" fill="#FFFFFE" points="28 63 28 58 30 58 30 58.6808775 28.4753886 58.6808775 28.4753886 60.1399007 29.7759067 60.1399007 29.7759067 60.8166391 28.4753886 60.8166391 28.4753886 62.3191225 30 62.3191225 30 63"></polyline>
                    <path d="M32.548552,58.6811594 L31.6235094,58.6811594 L31.6235094,60.2484472 L32.548552,60.2484472 C32.9642249,60.2484472 33.2487223,59.9585921 33.2487223,59.4658385 C33.2487223,58.9772257 32.9642249,58.6811594 32.548552,58.6811594 M33.2708688,63 L32.4037479,60.8944099 L31.6235094,60.8944099 L31.6235094,63 L31,63 L31,58 L32.5945486,58 C33.3747871,58 33.8722317,58.610766 33.8722317,59.4596273 C33.8722317,60.1759834 33.5127768,60.6335404 33.0511073,60.7867495 L34,63" id="Fill-6" fill="#FFFFFE"></path>
                    <path d="M37.548552,58.6811594 L36.6235094,58.6811594 L36.6235094,60.2484472 L37.548552,60.2484472 C37.9642249,60.2484472 38.2487223,59.9585921 38.2487223,59.4658385 C38.2487223,58.9772257 37.9642249,58.6811594 37.548552,58.6811594 M38.2708688,63 L37.4037479,60.8944099 L36.6235094,60.8944099 L36.6235094,63 L36,63 L36,58 L37.5962521,58 C38.3747871,58 38.8722317,58.610766 38.8722317,59.4596273 C38.8722317,60.1759834 38.5144804,60.6335404 38.0511073,60.7867495 L39,63" id="Fill-7" fill="#FFFFFE"></path>
                    <polygon id="Fill-8" fill="#FFFFFE" points="40 63 40.366 63 40.366 58 40 58"></polygon>
                    <polyline id="Fill-9" fill="#FFFFFE" points="42.2158019 58.6811594 42.2158019 63 41.7841981 63 41.7841981 58.6811594 41 58.6811594 41 58 43 58 43 58.6811594"></polyline>
                    <path d="M46.1208726,58.974766 C45.9740698,58.7875458 45.7443665,58.6715507 45.4991194,58.6715507 C45.2538723,58.6715507 45.0258961,58.7875458 44.8790932,58.974766 C44.6718421,59.2372812 44.632119,59.5140415 44.632119,60.4989825 C44.632119,61.4859585 44.6718421,61.7627188 44.8790932,62.025234 C45.0258961,62.2124542 45.2538723,62.3304843 45.4991194,62.3304843 C45.7443665,62.3304843 45.9740698,62.2124542 46.1208726,62.025234 C46.3246696,61.7627188 46.3678469,61.4859585 46.3678469,60.4989825 C46.3678469,59.5140415 46.3246696,59.2372812 46.1208726,58.974766 M46.6010043,62.4749695 C46.314307,62.8127798 45.9447092,63 45.4991194,63 C45.0535295,63 44.6925672,62.8127798 44.4041428,62.4749695 C43.9948219,61.990639 44.0000032,61.4452584 44.0000032,60.4989825 C44.0000032,59.5547416 43.9948219,59.009361 44.4041428,58.5250305 C44.6925672,58.1851852 45.0535295,58 45.4991194,58 C45.9447092,58 46.314307,58.1851852 46.6010043,58.5250305 C47.0120523,59.009361 46.9999627,59.5547416 46.9999627,60.4989825 C46.9999627,61.4452584 47.0120523,61.990639 46.6010043,62.4749695" id="Fill-10" fill="#FFFFFE"></path>
                    <path d="M49.5494318,58.6811594 L48.6238636,58.6811594 L48.6238636,60.2484472 L49.5494318,60.2484472 C49.9653409,60.2484472 50.2482955,59.9585921 50.2482955,59.4658385 C50.2482955,58.9772257 49.9653409,58.6811594 49.5494318,58.6811594 M50.2721591,63 L49.4028409,60.8944099 L48.6238636,60.8944099 L48.6238636,63 L48,63 L48,58 L49.5954545,58 C50.3761364,58 50.8738636,58.610766 50.8738636,59.4596273 C50.8738636,60.1759834 50.5142045,60.6335404 50.0522727,60.7867495 L51,63" id="Fill-11" fill="#FFFFFE"></path>
                    <polyline id="Fill-12" fill="#FFFFFE" points="52.8039757 60.9408113 52.8039757 63 52.1960243 63 52.1960243 60.9408113 51 58 51.6626173 58 52.4991717 60.1957781 53.3373827 58 54 58"></polyline>
                    <polyline id="Fill-13" fill="#FFFFFE" points="21.9672727 56 21.9672727 51.3183641 20.4018182 54.7313553 19.6381818 54.7313553 18.0327273 51.3183641 18.0327273 56 17 56 17 49 18.0327273 49 20.02 53.3560545 21.9672727 49 23 49 23 56"></polyline>
                    <path d="M26.024375,50.5829992 L24.93125,53.6891206 L27.089375,53.6891206 L26.024375,50.5829992 Z M27.8675,56 L27.385625,54.5928896 L24.61625,54.5928896 L24.134375,56 L23,56 L25.5725,49 L26.429375,49 L29,56 L27.8675,56 Z" id="Fill-14" fill="#FFFFFE"></path>
                    <path d="M32.582478,49.9524191 L31.0410557,49.9524191 L31.0410557,52.1454157 L32.582478,52.1454157 C33.2752933,52.1454157 33.7481672,51.7412457 33.7481672,51.0545309 C33.7481672,50.3659449 33.2752933,49.9524191 32.582478,49.9524191 M33.7866569,56 L32.3405425,53.0510559 L31.0410557,53.0510559 L31.0410557,56 L30,56 L30,49 L32.6594575,49 C33.9607771,49 34.7892229,49.855119 34.7892229,51.0433039 C34.7892229,52.0481155 34.1898827,52.6861802 33.420088,52.9032344 L35,56" id="Fill-15" fill="#FFFFFE"></path>
                    <polyline id="Fill-16" fill="#FFFFFE" points="38.0067688 53.1202887 38.0067688 56 36.9950125 56 36.9950125 53.1202887 35 49 36.1043819 49 37.4991094 52.0761828 38.8938368 49 40 49"></polyline>
                    <path d="M43.2654292,56 C42.7322506,56 42.3591647,55.8033395 42,55.3265306 L42.5276102,54.6326531 C42.7099768,54.8794063 42.8853828,55.0538033 43.2654292,55.0538033 C43.8515081,55.0538033 44.2106729,54.5751391 44.2106729,53.6679035 L44.2106729,49 L45,49 L45,53.7458256 C45,55.1892393 44.224594,56 43.2654292,56" id="Fill-17" fill="#FFFFFE"></path>
                    <path d="M50.024375,50.5829992 L48.93125,53.6891206 L51.089375,53.6891206 L50.024375,50.5829992 Z M51.865625,56 L51.385625,54.5928896 L48.61625,54.5928896 L48.134375,56 L47,56 L49.5725,49 L50.429375,49 L53,56 L51.865625,56 Z" id="Fill-18" fill="#FFFFFE"></path>
                    <polyline id="Fill-19" fill="#FFFFFE" points="56.0767045 56 53.0067472 51.0732424 53.0067472 56 52 56 52 49 52.9215199 49 55.9932528 53.9155306 55.9932528 49 57 49 57 56"></polyline>
                    <polyline id="Fill-20" fill="#FFFFFE" points="59 56 59 49 64 49 64 49.9524191 60.187291 49.9524191 60.187291 51.9994654 63.437709 51.9994654 63.437709 52.9425287 60.187291 52.9425287 60.187291 55.0457097 64 55.0457097 64 56"></polyline>
                    <polyline id="Fill-21" fill="#FFFFFE" points="59.629932 32 58.4027211 29.8883197 58.4027211 32 58 32 58 29 58.3687075 29 59.5959184 31.1070697 59.5959184 29 60 29 60 32"></polyline>
                    <path d="M63.0600293,29.4101382 L62.4333821,29.4101382 L62.4333821,30.4086022 L63.0600293,30.4086022 C63.3616398,30.4086022 63.5666179,30.2273425 63.5666179,29.9109063 C63.5666179,29.59447 63.3616398,29.4101382 63.0600293,29.4101382 M63.0849195,30.8202765 L62.4333821,30.8202765 L62.4333821,32 L62,32 L62,29 L63.0849195,29 C63.6427526,29 64,29.3886329 64,29.9109063 C64,30.4331797 63.6427526,30.8202765 63.0849195,30.8202765" id="Fill-22" fill="#FFFFFE"></path>
                    <polyline id="Fill-23" fill="#FFFFFE" points="66.6312925 32 65.4027211 29.8883197 65.4027211 32 65 32 65 29 65.370068 29 66.5959184 31.1070697 66.5959184 29 67 29 67 32"></polyline>
                    <path d="M68.8426667,32 C68.4888889,32 68.2382222,31.9162437 68,31.7121827 L68.3502222,31.4152284 C68.4728889,31.5187817 68.5902222,31.5949239 68.8426667,31.5949239 C69.2337778,31.5949239 69.472,31.3893401 69.472,31.0010152 L69.472,29 L70,29 L70,31.0345178 C70,31.6527919 69.4826667,32 68.8426667,32" id="Fill-24" fill="#FFFFFE"></path>
                    <polyline id="Fill-25" fill="#FFFFFE" points="9.381 32 9.381 29.4672131 9 29.9820697 9 29.5056352 9.381 29 9.66 29 9.66 32"></polyline>
                    <path d="M12.9974026,29.380904 C12.6943723,29.380904 12.4848485,29.5804977 12.4848485,29.8974099 C12.4848485,30.1899441 12.6753247,30.4123921 12.9974026,30.4123921 C13.3021645,30.4123921 13.5151515,30.2204165 13.5151515,29.8974099 C13.5151515,29.5804977 13.3021645,29.380904 12.9974026,29.380904 M13.7471861,30.6211275 L12.978355,32 L12.4623377,32 L13.1878788,30.7232098 C13.0978355,30.7552057 12.9887446,30.7673946 12.8831169,30.7673946 C12.3930736,30.7673946 12,30.4306755 12,29.9065515 C12,29.3595734 12.4138528,29 12.9974026,29 C13.5809524,29 14,29.3382428 14,29.8897918 C14,30.1320467 13.8961039,30.3621127 13.7471861,30.6211275" id="Fill-26" fill="#FFFFFE"></path>
                    <polyline id="Fill-27" fill="#FFFFFE" points="15.8770421 32 15.3576956 32 16.4858126 29.3826844 15.4625967 29.3826844 15.4625967 29.8545082 15 29.8545082 15 29 17 29 17 29.3826844"></polyline>
                    <path d="M18.71078,31.7658388 C18.5565294,31.8996452 18.3216477,32 17.9886065,32 C17.6643295,32 17.4084137,31.8996452 17.2594216,31.7704004 C17.0753725,31.6107451 17.0192813,31.4145971 17,31.2032438 L17.4890447,31.2032438 C17.5276074,31.4647745 17.681858,31.6153066 17.9886065,31.6153066 C18.1340929,31.6153066 18.2585451,31.5742524 18.3444347,31.4997466 C18.4899211,31.3735428 18.5092025,31.1773948 18.5092025,30.9766853 C18.5092025,30.6224024 18.4040316,30.3563102 18.0078878,30.3563102 C17.7291849,30.3563102 17.5766871,30.4779524 17.5241017,30.6224024 L17.0753725,30.6224024 L17.0753725,29 L18.9228747,29 L18.9228747,29.3801318 L17.5188431,29.3801318 L17.5188431,30.1647238 C17.6345311,30.0598074 17.8361087,29.9929042 18.0850131,29.9929042 C18.3549518,29.9929042 18.5600351,30.064369 18.7020158,30.1860112 C18.9596845,30.4110492 19,30.6984288 19,30.9766853 C19,31.2944754 18.9596845,31.5484034 18.71078,31.7658388" id="Fill-28" fill="#FFFFFE"></path>
                    <polyline id="Fill-29" fill="#FFFFFE" points="15 44 30.8194093 44 31.4675105 42.8725406 34.0008439 41.1257485 32.4700422 41.1257485 33.7156118 38.9580838 36.2793249 37.1924722 34.7299578 37.1924722 39 29.7639008 31.0911392 16"></polyline>
                    <polyline id="Fill-30" fill="#FFFFFE" points="47.9116799 16 40 29.7639008 44.2714296 37.1924722 42.8318684 37.1924722 45.2131355 38.8314799 46.5311863 41.1274594 45.0663104 41.1274594 47.4914563 42.7972626 48.1833908 44 64 44"></polyline>
                    <path d="M40.0017112,6.28003912 C21.407373,6.28003912 6.28000782,21.4077741 6.28000782,40.0008556 C6.28000782,58.5939372 21.407373,73.7199609 40.0017112,73.7199609 C58.592627,73.7199609 73.7199922,58.5939372 73.7199922,40.0008556 C73.7199922,21.4077741 58.592627,6.28003912 40.0017112,6.28003912 M40.0017112,75 C20.702342,75 5,59.3006967 5,40.0008556 C5,20.7010145 20.702342,5 40.0017112,5 C59.2993693,5 75,20.7010145 75,40.0008556 C75,59.3006967 59.2993693,75 40.0017112,75" id="Fill-31" fill="#FFFFFE"></path>
                    <path d="M64.579,49.302 C64.555,49.288 64.517,49.282 64.464,49.282 L64.384,49.282 L64.384,49.476 L64.469,49.476 C64.509,49.476 64.539,49.472 64.559,49.464 C64.596,49.449 64.614,49.421 64.614,49.38 C64.614,49.341 64.603,49.315 64.579,49.302 L64.579,49.302 Z M64.477,49.218 C64.544,49.218 64.592,49.224 64.623,49.236 C64.678,49.259 64.706,49.305 64.706,49.372 C64.706,49.42 64.689,49.455 64.654,49.478 C64.635,49.49 64.61,49.498 64.576,49.504 C64.618,49.511 64.649,49.528 64.669,49.556 C64.688,49.585 64.697,49.612 64.697,49.639 L64.697,49.679 C64.697,49.691 64.698,49.704 64.699,49.718 C64.7,49.732 64.701,49.742 64.703,49.746 L64.707,49.753 L64.619,49.753 C64.618,49.751 64.617,49.749 64.617,49.747 C64.616,49.746 64.616,49.744 64.615,49.742 L64.613,49.724 L64.613,49.682 C64.613,49.62 64.597,49.579 64.563,49.559 C64.544,49.548 64.508,49.542 64.458,49.542 L64.384,49.542 L64.384,49.753 L64.289,49.753 L64.289,49.218 L64.477,49.218 Z M64.19,49.19 C64.108,49.272 64.067,49.371 64.067,49.487 C64.067,49.604 64.108,49.704 64.189,49.786 C64.271,49.869 64.369,49.909 64.487,49.909 C64.603,49.909 64.702,49.869 64.783,49.786 C64.865,49.704 64.905,49.604 64.905,49.487 C64.905,49.371 64.865,49.272 64.783,49.19 C64.701,49.108 64.602,49.066 64.487,49.066 C64.37,49.066 64.272,49.108 64.19,49.19 L64.19,49.19 Z M64.832,49.833 C64.736,49.928 64.621,49.976 64.487,49.976 C64.351,49.976 64.236,49.928 64.141,49.833 C64.047,49.737 64,49.622 64,49.486 C64,49.352 64.047,49.237 64.142,49.142 C64.238,49.047 64.352,49 64.487,49 C64.621,49 64.736,49.047 64.832,49.142 C64.927,49.237 64.975,49.352 64.975,49.486 C64.975,49.622 64.927,49.737 64.832,49.833 L64.832,49.833 Z" id="Fill-32" fill="#FFFFFE"></path>
                </g>
            </g>
        </g>
    </g>
</svg>