<svg width="69px" height="68px" viewBox="0 0 69 68" version="1.1" xmlns="http://www.w3.org/2000/svg" xmlns:xlink="http://www.w3.org/1999/xlink">
    <!-- Generator: Sketch 46.2 (44496) - http://www.bohemiancoding.com/sketch -->
    <desc>Created with Sketch.</desc>
    <defs></defs>
    <g id="Page-1" stroke="none" stroke-width="1" fill="none" fill-rule="evenodd">
        <g id="Desktop-HD" transform="translate(-765.000000, -3907.000000)">
            <g id="Follow-us" transform="translate(591.000000, 3851.000000)">
                <g id="Group-2" transform="translate(16.000000, 56.000000)">
                    <g id="TW" transform="translate(158.000000, 0.000000)">
                        <polygon id="Fill-1" fill="#961134" points="0 67.8990244 68.400878 67.8990244 68.400878 0.482658537 0 0.482658537"></polygon>
                        <path d="M57.0007317,20.2822927 C55.3228537,21.0177317 53.5187561,21.5125122 51.6271463,21.7363415 C53.5574634,20.5936341 55.0434878,18.7844878 55.7402195,16.6269756 C53.936122,17.6855366 51.933439,18.4546341 49.8028537,18.8686341 C48.093,17.0729512 45.6611707,15.952122 42.9718537,15.952122 C37.8052683,15.952122 33.6164634,20.0870732 33.6164634,25.1863415 C33.6164634,25.9116829 33.6989268,26.6151463 33.857122,27.29 C26.082,26.9062927 19.1904146,23.2307805 14.5741463,17.6417805 C13.7697073,19.0066341 13.3085854,20.5936341 13.3085854,22.2849756 C13.3085854,25.4875854 14.9595366,28.3165854 17.4687805,29.9709024 C15.9356341,29.9237805 14.4933659,29.5064146 13.2328537,28.8147317 L13.2328537,28.9325366 C13.2328537,33.4057561 16.4573415,37.1384878 20.7353415,37.9866829 C19.9510976,38.1970488 19.1230976,38.3114878 18.2698537,38.3114878 C17.6707317,38.3114878 17.0817073,38.2525854 16.5111951,38.144878 C17.7010244,41.8136585 21.1560732,44.4810976 25.2489512,44.5585122 C22.0497073,47.0357805 18.0157317,48.5117073 13.6300244,48.5117073 C12.8760732,48.5117073 12.1322195,48.4662683 11.4001463,48.3838049 C15.5401463,50.9990732 20.4576585,52.5305366 25.7437317,52.5305366 C42.9499756,52.5305366 52.3592195,38.4612683 52.3592195,26.2566829 C52.3592195,25.8578293 52.349122,25.4589756 52.3356585,25.060122 C54.1582683,23.7609024 55.7435854,22.1351951 57.0007317,20.2822927" id="Fill-3" fill="#FFFFFE"></path>
                    </g>
                </g>
            </g>
        </g>
    </g>
</svg>