<svg width="91px" height="80px" viewBox="0 0 91 80" version="1.1" xmlns="http://www.w3.org/2000/svg" xmlns:xlink="http://www.w3.org/1999/xlink">
    <!-- Generator: Sketch 46.2 (44496) - http://www.bohemiancoding.com/sketch -->
    <desc>Created with Sketch.</desc>
    <defs>
        <path d="M3.00912084,7.34609091 C14.8938549,2.57709091 28.0943248,0.464636364 43.415837,0.464636364 C58.4562679,0.464636364 72.3258146,2.71009091 84.0760435,6.54981818 C86.6143964,7.37718182 87.3093395,8.40663636 86.714413,11.0441818 C85.0020595,18.715 80.7703216,38.418 71.9326458,53.8891818 C63.082899,69.3586364 53.7089271,75.8428182 44.2056234,75.8428182 C34.7023197,75.8428182 25.5870115,70.9442727 15.9474783,54.2881818 C6.31656714,37.6182727 1.03637916,14.7457273 0.506980818,12.236 C-0.0206930946,9.72109091 0.00172442455,8.55 3.00912084,7.34609091 Z" id="path-1"></path>
    </defs>
    <g id="Page-3" stroke="none" stroke-width="1" fill="none" fill-rule="evenodd">
        <g id="Desktop-HD" transform="translate(-138.000000, -3420.000000)">
            <g id="Small-grid-image" transform="translate(99.000000, 3419.000000)">
                <g id="Winter-Park-" transform="translate(0.000000, 1.000000)">
                    <g id="winter_park" transform="translate(39.000000, 0.000000)">
                        <g id="Group-4" fill="#78242F">
                            <path d="M45.2470493,1.74956522 C60.4947897,1.74956522 74.5593512,4.02956522 86.4674739,7.92347826 C89.0437504,8.76347826 89.7463713,9.80869565 89.1443726,12.4869565 C87.4077714,20.2678261 83.1174469,40.2573913 74.1585971,55.9565217 C65.1858683,71.653913 55.6840053,78.2295652 46.0502925,78.2295652 C36.4131099,78.2295652 27.1714768,73.2608696 17.3989746,56.3617391 C7.63861655,39.4486957 2.28308412,16.2382609 1.74527555,13.6921739 C1.20920185,11.1408696 1.23348998,9.95304348 4.28338502,8.73217391 C16.3320318,3.89391304 29.7147909,1.74956522 45.2470493,1.74956522" id="Fill-1"></path>
                            <path d="M45.2470493,1.74956522 L45.2470493,3.23478261 C60.3473261,3.23478261 74.2644239,5.49391304 86.0094691,9.33565217 C86.4587995,9.48173913 86.8179169,9.62782609 87.0816165,9.76695652 C87.2793913,9.86956522 87.4233852,9.96521739 87.5205377,10.0504348 C87.6697362,10.1791304 87.7235171,10.2591304 87.7738282,10.3704348 C87.8206696,10.4817391 87.8640413,10.6469565 87.8657761,10.9391304 C87.867511,11.2330435 87.8171999,11.6417391 87.699229,12.16 L87.6836152,12.2313043 L87.699229,12.1617391 C86.8300609,16.0573913 85.3346061,22.9495652 82.9422254,30.8191304 C80.5550493,38.6852174 77.2692125,47.5147826 72.8730611,55.2173913 C68.4560914,62.9495652 63.9419691,68.3582609 59.452135,71.8 C57.207218,73.5217391 54.9709752,74.7547826 52.741672,75.56 C50.5123687,76.3634783 48.2900049,76.7443478 46.0502925,76.7443478 C43.7672083,76.7443478 41.5361702,76.4521739 39.3155413,75.7686957 C35.9880676,74.7443478 32.6605939,72.8434783 29.232498,69.6226087 C25.806137,66.4052174 22.2930326,61.8643478 18.6810409,55.6156522 C13.8841354,47.3130435 10.1281498,37.36 7.52411537,29.1878261 C6.22123074,25.0991304 5.20286419,21.4556522 4.47769006,18.68 C3.75425079,15.9043478 3.32226906,13.9895652 3.19388895,13.386087 L3.18694949,13.346087 L3.19388895,13.3878261 C3.04295558,12.6730435 2.95794713,12.1234783 2.96315173,11.7756522 C2.96315173,11.56 2.98917472,11.4278261 3.01866745,11.333913 C3.04295558,11.2608696 3.07071344,11.2086957 3.1192897,11.1391304 C3.19388895,11.0365217 3.33267826,10.8921739 3.60678715,10.7130435 C3.88089603,10.5356522 4.28511989,10.3286957 4.83160279,10.1095652 L4.83507252,10.1095652 C16.6685959,5.35826087 29.8483756,3.23652174 45.2470493,3.23478261 L45.2470493,0.266086957 C29.5812062,0.266086957 15.9954678,2.42956522 3.73343239,7.35304348 L3.73516726,7.35304348 C3.1401081,7.59130435 2.62311792,7.83652174 2.16337834,8.11652174 C1.8198748,8.32521739 1.50759886,8.55652174 1.22828538,8.82086957 C0.811917453,9.21217391 0.475353381,9.69217391 0.274108884,10.213913 C0.0693946541,10.733913 0,11.2678261 0,11.7756522 C0.00173486635,12.5182609 0.137054442,13.2243478 0.29492728,13.9982609 C0.437186321,14.6695652 0.876107508,16.6086957 1.61169084,19.4313043 C2.71506584,23.6608696 4.48636439,29.853913 6.90476808,36.6017391 C9.32490664,43.3478261 12.3921504,50.6486957 16.1169084,57.1043478 L16.1186433,57.106087 C21.0734216,65.6730435 25.9449263,71.3165217 30.9222579,74.8452174 C33.4083213,76.6069565 35.9204078,77.8313043 38.4463732,78.6086957 C40.9758084,79.386087 43.5139178,79.7147826 46.0502925,79.7130435 C48.6248341,79.7147826 51.2045804,79.2730435 53.7461596,78.3530435 C57.5611307,76.9756522 61.2893585,74.533913 64.9013502,70.9582609 C68.5168117,67.3808696 72.0281812,62.6695652 75.4423982,56.693913 C80.0050967,48.6973913 83.3464493,39.6834783 85.7769971,31.6852174 C88.2058099,23.6886957 89.723818,16.6973913 90.5895163,12.8086957 L90.5895163,12.8104348 C90.73698,12.1530435 90.827193,11.5408696 90.827193,10.9391304 C90.827193,10.4104348 90.7543286,9.88347826 90.5686979,9.37913043 C90.4299086,9.00173913 90.2269292,8.64695652 89.9771085,8.3373913 C89.6006425,7.86782609 89.1304937,7.51130435 88.6221779,7.22608696 C88.1086574,6.94086957 87.5500305,6.71652174 86.9254786,6.51130435 C74.8525436,2.56521739 60.6405185,0.266086957 45.2470493,0.266086957" id="Fill-3"></path>
                        </g>
                        <g id="Group-62" transform="translate(2.000000, 2.000000)">
                            <mask id="mask-2" fill="white">
                                <use xlink:href="#path-1"></use>
                            </mask>
                            <g id="Clip-6"></g>
                            <polyline id="Fill-5" fill="#983338" mask="url(#mask-2)" points="43.472743 -14.7768182 -143.38935 75.62 -143.177246 76.0604545 43.6865716 -14.3346364"></polyline>
                            <polyline id="Fill-7" fill="#983338" mask="url(#mask-2)" points="43.4692941 -14.7750909 -136.655473 76.437 -136.434746 76.8774545 43.6900205 -14.3363636"></polyline>
                            <polyline id="Fill-8" fill="#983338" mask="url(#mask-2)" points="43.4658453 -14.7733636 -129.918146 76.4404545 -129.690522 76.874 43.6934693 -14.3363636"></polyline>
                            <polyline id="Fill-9" fill="#983338" mask="url(#mask-2)" points="43.4623964 -14.7716364 -123.184268 76.4421818 -122.948022 76.874 43.6969182 -14.3398182"></polyline>
                            <polyline id="Fill-10" fill="#983338" mask="url(#mask-2)" points="43.4589476 -14.7699091 -116.448666 76.4439091 -116.205522 76.8722727 43.700367 -14.3415455"></polyline>
                            <polyline id="Fill-11" fill="#983338" mask="url(#mask-2)" points="43.4537743 -14.7664545 -109.714788 76.4456364 -109.463022 76.8705455 43.7038159 -14.3432727"></polyline>
                            <polyline id="Fill-12" fill="#983338" mask="url(#mask-2)" points="43.4503254 -14.7647273 -102.977461 76.4490909 -102.718797 76.8670909 43.7089891 -14.3467273"></polyline>
                            <polyline id="Fill-13" fill="#983338" mask="url(#mask-2)" points="43.4451522 -14.7612727 -96.2435831 76.4508182 -95.9745729 76.8636364 43.7141624 -14.3501818"></polyline>
                            <polyline id="Fill-14" fill="#983338" mask="url(#mask-2)" points="43.4417033 -14.7578182 -89.5079808 76.456 -89.2320729 76.8601818 43.7193357 -14.3519091"></polyline>
                            <polyline id="Fill-15" fill="#983338" mask="url(#mask-2)" points="43.4365301 -14.7543636 -82.7723785 76.4577273 -82.486124 76.8567273 43.7227845 -14.3553636"></polyline>
                            <polyline id="Fill-16" fill="#983338" mask="url(#mask-2)" points="43.4313568 -14.7509091 -76.0402251 76.4611818 -75.7418996 76.8532727 43.7262334 -14.3605455"></polyline>
                            <polyline id="Fill-17" fill="#983338" mask="url(#mask-2)" points="43.4261835 -14.7457273 -69.3046228 76.4663636 -68.9976752 76.8480909 43.7331311 -14.364"></polyline>
                            <polyline id="Fill-18" fill="#983338" mask="url(#mask-2)" points="43.4192858 -14.7405455 -62.5707449 76.4732727 -62.2517263 76.8446364 43.7400288 -14.3674545"></polyline>
                            <polyline id="Fill-19" fill="#983338" mask="url(#mask-2)" points="43.4141125 -14.7370909 -55.8385914 76.4767273 -55.5075019 76.8377273 43.745202 -14.3743636"></polyline>
                            <polyline id="Fill-20" fill="#983338" mask="url(#mask-2)" points="43.4089393 -14.7301818 -49.1047136 76.4819091 -48.7598286 76.8342727 43.7520997 -14.3795455"></polyline>
                            <polyline id="Fill-21" fill="#983338" mask="url(#mask-2)" points="43.4003171 -14.725 -42.3725601 76.4888182 -42.0156042 76.8273636 43.757273 -14.3864545"></polyline>
                            <polyline id="Fill-22" fill="#983338" mask="url(#mask-2)" points="43.3934194 -14.7163636 -35.6404066 76.4974545 -35.2696554 76.817 43.7641707 -14.3950909"></polyline>
                            <polyline id="Fill-23" fill="#983338" mask="url(#mask-2)" points="43.3882462 -14.7077273 -28.9082532 76.5060909 -28.5237065 76.8100909 43.7727928 -14.402"></polyline>
                            <polyline id="Fill-24" fill="#983338" mask="url(#mask-2)" points="43.379624 -14.6990909 -22.1743753 76.5147273 -21.7760332 76.8014545 43.7779661 -14.4123636"></polyline>
                            <polyline id="Fill-25" fill="#983338" mask="url(#mask-2)" points="43.3727263 -14.6887273 -15.4422219 76.5250909 -15.0300844 76.7910909 43.7848638 -14.421"></polyline>
                            <polyline id="Fill-26" fill="#983338" mask="url(#mask-2)" points="43.3675531 -14.6766364 -8.71006841 76.5371818 -8.28413555 76.779 43.7917615 -14.4330909"></polyline>
                            <polyline id="Fill-27" fill="#983338" mask="url(#mask-2)" points="43.3589309 -14.6645455 -1.97791496 76.5492727 -1.5381867 76.7669091 43.7986592 -14.4451818"></polyline>
                            <polyline id="Fill-28" fill="#983338" mask="url(#mask-2)" points="43.3537577 -14.6507273 4.75596292 76.5613636 5.20776215 76.7548182 43.8055569 -14.459"></polyline>
                            <polyline id="Fill-29" fill="#983338" mask="url(#mask-2)" points="43.34686 -14.6369091 11.4898408 76.5751818 11.9519866 76.7375455 43.8107302 -14.4745455"></polyline>
                            <polyline id="Fill-30" fill="#983338" mask="url(#mask-2)" points="43.3434111 -14.6196364 18.2237187 76.5924545 18.6996598 76.722 43.8159035 -14.4900909"></polyline>
                            <polyline id="Fill-31" fill="#983338" mask="url(#mask-2)" points="43.3399623 -14.6040909 24.959321 76.608 25.4404354 76.7064545 43.8210767 -14.5056364"></polyline>
                            <polyline id="Fill-32" fill="#983338" mask="url(#mask-2)" points="43.334789 -14.5868182 31.6949233 76.6252727 32.1829354 76.6874545 43.8228012 -14.5246364"></polyline>
                            <polyline id="Fill-33" fill="#983338" mask="url(#mask-2)" points="43.334789 -14.5695455 38.4339744 76.6442727 38.923711 76.6719091 43.8228012 -14.5419091"></polyline>
                            <polyline id="Fill-34" fill="#983338" mask="url(#mask-2)" points="43.3330646 -14.5488182 45.1713012 76.6632727 45.6627621 76.6529091 43.8245256 -14.5591818"></polyline>
                            <polyline id="Fill-35" fill="#983338" mask="url(#mask-2)" points="43.334789 -14.5315455 51.9138012 76.6805455 52.4018133 76.6356364 43.8228012 -14.5781818"></polyline>
                            <polyline id="Fill-36" fill="#983338" mask="url(#mask-2)" points="43.3382379 -14.5142727 58.6545767 76.6978182 59.13914 76.6166364 43.8210767 -14.5954545"></polyline>
                            <polyline id="Fill-37" fill="#983338" mask="url(#mask-2)" points="43.3416867 -14.497 65.3970767 76.7168182 65.8747423 76.6010909 43.8193523 -14.6127273"></polyline>
                            <polyline id="Fill-38" fill="#983338" mask="url(#mask-2)" points="43.3451355 -14.4814545 72.1413012 76.7323636 72.6086202 76.5838182 43.8124546 -14.6282727"></polyline>
                            <polyline id="Fill-39" fill="#983338" mask="url(#mask-2)" points="43.3503088 -14.4659091 78.8855256 76.7461818 79.3442225 76.5682727 43.8072813 -14.6438182"></polyline>
                            <polyline id="Fill-40" fill="#983338" mask="url(#mask-2)" points="43.3572065 -14.4520909 85.6314744 76.7617273 86.076376 76.5544545 43.8021081 -14.6593636"></polyline>
                            <polyline id="Fill-41" fill="#983338" mask="url(#mask-2)" points="43.3623798 -14.4382727 92.3774233 76.7738182 92.8085294 76.5406364 43.7952104 -14.6714545"></polyline>
                            <polyline id="Fill-42" fill="#983338" mask="url(#mask-2)" points="43.3710019 -14.4261818 99.1233721 76.7876364 99.5424073 76.5285455 43.7883127 -14.6835455"></polyline>
                            <polyline id="Fill-43" fill="#983338" mask="url(#mask-2)" points="43.3778996 -14.4158182 105.869321 76.798 106.272836 76.5181818 43.781415 -14.6939091"></polyline>
                            <polyline id="Fill-44" fill="#983338" mask="url(#mask-2)" points="43.3847973 -14.4054545 112.616994 76.8066364 113.006714 76.5078182 43.7745173 -14.7042727"></polyline>
                            <polyline id="Fill-45" fill="#983338" mask="url(#mask-2)" points="43.391695 -14.3985455 119.361219 76.8152727 119.738868 76.5009091 43.7676196 -14.7129091"></polyline>
                            <polyline id="Fill-46" fill="#983338" mask="url(#mask-2)" points="43.3968683 -14.3899091 126.108892 76.8221818 126.471021 76.4905455 43.7607219 -14.7198182"></polyline>
                            <polyline id="Fill-47" fill="#983338" mask="url(#mask-2)" points="43.4054904 -14.383 132.854841 76.8290909 133.204899 76.4870909 43.7555486 -14.7284545"></polyline>
                            <polyline id="Fill-48" fill="#983338" mask="url(#mask-2)" points="43.4106637 -14.3760909 139.60079 76.836 139.937052 76.4784545 43.7486509 -14.7336364"></polyline>
                            <polyline id="Fill-49" fill="#983338" mask="url(#mask-2)" points="43.4175614 -14.3726364 146.34329 76.8411818 146.669206 76.4732727 43.7417532 -14.7405455"></polyline>
                            <polyline id="Fill-50" fill="#983338" mask="url(#mask-2)" points="43.4227347 -14.3657273 153.089238 76.8480909 153.403084 76.4680909 43.7365799 -14.744"></polyline>
                            <polyline id="Fill-51" fill="#983338" mask="url(#mask-2)" points="43.4279079 -14.3622727 159.835187 76.8515455 160.136962 76.4646364 43.7296822 -14.7491818"></polyline>
                            <polyline id="Fill-52" fill="#983338" mask="url(#mask-2)" points="43.4348056 -14.3570909 166.581136 76.855 166.87084 76.4611818 43.724509 -14.7526364"></polyline>
                            <polyline id="Fill-53" fill="#983338" mask="url(#mask-2)" points="43.4382545 -14.3536364 173.325361 76.8584545 173.606442 76.4577273 43.7193357 -14.7560909"></polyline>
                            <polyline id="Fill-54" fill="#983338" mask="url(#mask-2)" points="43.4434277 -14.3501818 180.067861 76.8619091 180.34032 76.4542727 43.7141624 -14.7595455"></polyline>
                            <polyline id="Fill-55" fill="#983338" mask="url(#mask-2)" points="43.448601 -14.3467273 186.812085 76.8636364 187.074198 76.4508182 43.7107136 -14.763"></polyline>
                            <polyline id="Fill-56" fill="#983338" mask="url(#mask-2)" points="43.4520499 -14.345 193.556309 76.8688182 193.811524 76.4456364 43.7072647 -14.7647273"></polyline>
                            <polyline id="Fill-57" fill="#983338" mask="url(#mask-2)" points="43.4554987 -14.3415455 200.300534 76.8688182 200.545402 76.4456364 43.7038159 -14.7681818"></polyline>
                            <polyline id="Fill-58" fill="#983338" mask="url(#mask-2)" points="43.4589476 -14.3398182 207.043034 76.8722727 207.281004 76.4439091 43.6986426 -14.7699091"></polyline>
                            <polyline id="Fill-59" fill="#983338" mask="url(#mask-2)" points="43.4641208 -14.3380909 213.785534 76.874 214.016607 76.4404545 43.6951937 -14.7716364"></polyline>
                            <polyline id="Fill-60" fill="#983338" mask="url(#mask-2)" points="43.4675697 -14.3363636 220.528034 76.8774545 220.752209 76.4387273 43.6917449 -14.7733636"></polyline>
                            <polyline id="Fill-61" fill="#983338" mask="url(#mask-2)" points="43.4710185 -14.3363636 227.270534 76.8791818 227.487811 76.437 43.6900205 -14.7750909"></polyline>
                        </g>
                        <path d="M18.7997573,31 L17.8440534,24.2372014 C17.7402913,23.5153584 17.6365291,22.3464164 17.5527913,21.4692833 C17.5309466,21.9761092 17.4271845,23.3412969 17.3252427,24.1808874 L16.4550971,31 L14.7876214,31 L13,18 L14.8913835,18 L15.535801,24.1194539 C15.5958738,24.605802 15.723301,26.7491468 15.7633495,27.1791809 C15.8070388,26.0494881 15.8871359,24.8805461 15.9927184,24.1587031 L16.7008495,18 L18.4265777,18 L19.3003641,24.1808874 C19.3822816,24.7832765 19.529733,26.6928328 19.5916262,27.3174061 C19.5916262,26.9863481 19.5916262,26.887372 19.6098301,26.0494881 C19.6735437,24.6450512 19.693568,24.5853242 19.7154126,24.1808874 L20.2360437,18 L22,18 L20.401699,31" id="Fill-63" fill="#FFFFFE"></path>
                        <polygon id="Fill-64" fill="#FFFFFE" points="23 31 25 31 25 18 23 18"></polygon>
                        <path d="M31.3090076,31 L29.4476336,25.2508532 C29.3816794,25.056314 28.9456489,23.7474403 28.5462595,21.9761092 C28.6085496,23.4573379 28.7148092,25.9897611 28.7148092,26.8088737 L28.7148092,31 L27,31 L27,18 L28.7606107,18 L30.5358779,23.8447099 C31.0177099,25.4249147 31.1844275,26.0136519 31.4977099,27.2559727 C31.3914504,25.7201365 31.3090076,24.0409556 31.3090076,22.6194539 L31.3090076,18 L33,18 L33,31" id="Fill-65" fill="#FFFFFE"></path>
                        <polyline id="Fill-66" fill="#FFFFFE" points="33.4976959 31 33.4976959 19.6569966 32 19.6569966 32 18 37 18 37 19.6569966 35.5200284 19.6569966 35.5200284 31"></polyline>
                        <polyline id="Fill-67" fill="#FFFFFE" points="38 31 38 18 42.8107607 18 42.8107607 19.6569966 40.1168831 19.6569966 40.1168831 23.3617747 42.0667904 23.3617747 42.0667904 25.0136519 40.1168831 25.0136519 40.1168831 29.3412969 43 29.3412969 43 31"></polyline>
                        <path d="M46.0557554,23.7116041 L46.3830935,23.7116041 C47.1438849,23.7116041 47.3723022,23.3617747 47.3723022,21.6245734 C47.3723022,19.6587031 46.9208633,19.6587031 46.3830935,19.6587031 L46.0557554,19.6587031 L46.0557554,23.7116041 Z M47.8830935,31 L46.5485612,25.4078498 L46.0557554,25.4078498 L46.0557554,31 L44,31 L44,18 L46.3830935,18 C47.2266187,18 48.1097122,18.116041 48.7482014,18.9163823 C49.1798561,19.4624573 49.5269784,20.2030717 49.5269784,21.7423208 C49.5269784,24.2150171 48.7284173,24.6860068 48.2751799,24.9385666 L50,31 L47.8830935,31 Z" id="Fill-68" fill="#FFFFFE"></path>
                        <path d="M56.1922708,24.040042 L56.6272756,24.040042 C57.4608751,24.040042 57.6984989,23.864251 57.6984989,21.7991335 C57.6984989,19.6572141 57.2424146,19.6572141 56.6272756,19.6572141 L56.1922708,19.6572141 L56.1922708,24.040042 Z M54,31 L54,18 L56.4509741,18 C57.3727244,18 58.2446503,18 58.9690195,18.7390049 C59.6244011,19.4199816 60,20.4132861 60,21.8981226 C60,24.7602731 58.8808687,25.8184325 56.8668157,25.8184325 L56.1922708,25.8184325 L56.1922708,31 L54,31 Z" id="Fill-69" fill="#FFFFFE"></path>
                        <path d="M62.5373645,25.834471 L62.2464347,23.5153584 C62.1677125,22.890785 61.8921848,20.337884 61.8528237,19.9675768 C61.8339989,20.337884 61.8117513,20.6723549 61.7552767,21.274744 C61.635482,22.5221843 61.6166572,22.6587031 61.5413577,23.5358362 L61.2880776,25.834471 L62.5373645,25.834471 Z M63.1637193,31 L62.7119224,27.4146758 L61.1494581,27.4146758 L60.7421563,31 L59,31 L61.0142613,18 L62.9258414,18 L65,31 L63.1637193,31 Z" id="Fill-70" fill="#FFFFFE"></path>
                        <path d="M67.0551393,23.7116041 L67.3841774,23.7116041 C68.1447408,23.7116041 68.3676955,23.3617747 68.3676955,21.6245734 C68.3676955,19.6587031 67.916392,19.6587031 67.3841774,19.6587031 L67.0551393,19.6587031 L67.0551393,23.7116041 Z M68.8801319,31 L67.5495954,25.4078498 L67.0551393,25.4078498 L67.0551393,31 L65,31 L65,18 L67.3841774,18 C68.2274498,18 69.1048846,18.116041 69.7431825,18.9163823 C70.1747078,19.4624573 70.5235241,20.2030717 70.5235241,21.7423208 C70.5235241,24.2150171 69.7234043,24.6860068 69.2756967,24.9385666 L71,31 L68.8801319,31 Z" id="Fill-71" fill="#FFFFFE"></path>
                        <polyline id="Fill-72" fill="#FFFFFE" points="75.8665862 31 74.0048295 24.9010239 74.0048295 31 72 31 72 18 74.0048295 18 74.0048295 22.7935154 75.8466647 18 77.8116511 18 75.2888621 23.5358362 78 31"></polyline>
                        <path d="M53.5188256,59.5868078 C53.1407037,60.6368078 51.642286,62.5521173 50.1843186,63.2378664 C50.5624404,62.2785016 52.0151317,58.5162866 52.4829476,57.2388436 C53.402751,57.8305375 53.8987061,58.5385179 53.5188256,59.5868078 M47.224416,57.35 C46.338028,57.3021173 45.4182247,55.8673453 44.8554387,54.6121336 C45.7963465,54.7455212 48.2849158,55.320114 49.2451694,55.7527687 C48.8688063,56.3478827 48.11608,57.3961726 47.224416,57.35 M51.3591343,54.8378664 C52.0151317,53.3791531 52.3897362,51.0517101 52.4829476,50 C52.2525571,51.0961726 50.750622,53.6544788 50.0911071,54.5659609 C48.1670825,54.2478827 45.7734833,54.1538274 44.6461526,54.0170195 C44.5036974,53.7912866 44.3630009,53.5604235 44.1730607,53.1055375 C44.1730607,53.4714984 44.0816079,53.7912866 44.0323642,53.9742671 C43.1899439,53.8802117 40.8420711,53.745114 39.9011632,53.7912866 C40.2318,54.0170195 42.8716181,54.165798 44.0323642,54.427443 C43.8863916,55.6894951 43.1705981,57.3277687 42.5656032,58.2101792 C41.8199117,59.292671 40.944076,59.6124593 39.7376036,58.6958469 C36.3503354,56.1324104 33.80197,51.9170195 33,50.5044788 C33,51.1423453 33.8758357,53.4561075 34.4104824,54.6993485 C35.3760121,56.9498371 37.9419645,62.1878664 40.4199816,64.1527687 C42.4882201,65.7910423 43.0896976,65.101873 43.8705632,63.265228 C44.2856179,62.2870521 44.9908591,59.9903909 45.0700009,59.222557 C45.3953615,59.8125407 46.026737,60.657329 46.1973315,60.8659609 C47.0432692,61.9245114 47.625401,62.0493485 48.6384158,60.7188925 C49.2223063,59.9373779 50.6064081,56.9156352 50.7963483,56.370114 C50.959908,56.4368078 51.1463309,56.5240228 51.2887861,56.6197883 C51.0073931,57.5757329 49.4386271,62.8291531 49.2012018,63.422557 C47.5568115,64.3374593 45.8666948,65.3857492 44.6461526,65.7961726 C45.0207571,65.977443 47.7414756,65.2472313 48.7298685,64.8812704 C48.2585352,66.6170195 46.8058439,70.7263844 46.9447817,71 C47.271901,70.9110749 49.3401396,65.1583062 49.5740475,64.6076547 C54.7833354,62.7368078 57.6957529,60.2708469 57.9806633,58.6291531 C58.3482329,56.4521987 53.3781291,55.3389251 51.3591343,54.8378664" id="Fill-73" fill="#FFFFFE"></path>
                        <path d="M25,39.4978324 C25,40.3280347 24.3302023,41 23.5021676,41 C22.6763006,41 22,40.3280347 22,39.4978324 C22,38.6676301 22.6763006,38 23.5021676,38 C24.3302023,38 25,38.6676301 25,39.4978324" id="Fill-74" fill="#FFFFFE"></path>
                        <path d="M70,39.4978324 C70,40.3280347 69.3263538,41 68.498917,41 C67.6714801,41 67,40.3280347 67,39.4978324 C67,38.6676301 67.6714801,38 68.498917,38 C69.3263538,38 70,38.6676301 70,39.4978324" id="Fill-75" fill="#FFFFFE"></path>
                        <path d="M45.841413,2 C30.1788738,2 16.9395756,4.26280876 5.3649539,8.91917408 C1.64329989,10.4114424 1.72835635,12.2593448 2.28209125,14.9091671 C2.33416663,15.1514863 7.48962952,39.2979918 17.7207064,57.0552876 C26.4815216,72.2324934 35.398563,79 46.6277513,79 C56.9976959,79 66.5448493,71.4828726 75.0053632,56.656071 C83.6030089,41.5608006 87.8297941,22.5396092 89.635074,14.415812 L89.7843568,13.7376667 C90.4717518,10.6799112 89.5517534,9.10047771 86.5053435,8.10505105 C74.3179681,4.1111413 60.2541431,2 45.841413,2 M45.841413,2.99194005 C60.7696894,2.99194005 74.5384206,5.22685594 86.1998346,9.04643528 C88.722019,9.87276144 89.409414,10.896081 88.8209622,13.521497 C87.119833,21.1554258 82.9190855,40.760624 74.1478552,56.1627159 C65.364474,71.5578347 56.0586031,78.00806 46.6277513,78.00806 C37.1899561,78.00806 28.1444621,73.1337816 18.5747426,56.558446 C9.01890992,39.9709072 3.77491889,17.2033553 3.24895752,14.7052005 C2.724732,12.2035591 2.74903385,11.0372886 5.73295328,9.83963866 C17.5297633,5.09436483 30.6336654,2.99194005 45.841413,2.99194005" id="Fill-76" fill="#FFFFFE"></path>
                        <polyline id="Fill-77" fill="#FFFFFE" points="27.4302926 36.817029 27.4216867 42 26.5593804 42 26.5679862 36.817029 25 36.8152174 25.0017212 36 29 36.0036232 28.9982788 36.8206522"></polyline>
                        <polyline id="Fill-78" fill="#FFFFFE" points="29 41.996379 29.0094429 36 33 36.0054315 32.9981114 36.8219674 29.9537299 36.8201569 29.9518414 38.5691008 32.5505194 38.5727218 32.5486308 39.3820157 29.9518414 39.3765842 29.9480642 41.1780326 32.9905571 41.1834641 32.9905571 42"></polyline>
                        <path d="M36.0713693,36.8201569 L34.8381743,36.8183464 L34.8348548,38.6940253 L36.0697095,38.6976463 C36.6240664,38.6994568 37.0008299,38.3536512 37.0024896,37.7634279 C37.0024896,37.1750151 36.6257261,36.8219674 36.0713693,36.8201569 M37.0290456,41.9981895 L35.8738589,39.4725407 L34.833195,39.4707302 L34.8298755,41.996379 L34,41.9945685 L34.006639,36 L36.1344398,36.0018105 C37.173444,36.0054315 37.8373444,36.7368739 37.8356846,37.7561859 C37.8323651,38.6161738 37.3560166,39.1629451 36.7385892,39.3458057 L38,42" id="Fill-79" fill="#FFFFFE"></path>
                        <path d="M42.073029,36.8183464 L40.8381743,36.8165359 L40.8365145,38.6958358 L42.0697095,38.6976463 C42.6257261,38.6976463 43.0024896,38.3536512 43.0024896,37.7634279 C43.0041494,37.1750151 42.6273859,36.8201569 42.073029,36.8183464 M43.0290456,42 L41.8771784,39.4707302 L40.8365145,39.4689197 L40.8315353,41.9945685 L40,41.9945685 L40.0082988,36 L42.1360996,36.0018105 C43.1767635,36.0054315 43.8390041,36.7368739 43.8356846,37.7561859 C43.8340249,38.6143633 43.3576763,39.1611346 42.740249,39.3476162 L44,42" id="Fill-80" fill="#FFFFFE"></path>
                        <polyline id="Fill-81" fill="#FFFFFE" points="45 41.9981879 45.0118577 36 46 36.0018121 45.9901186 42"></polyline>
                        <polyline id="Fill-82" fill="#FFFFFE" points="48.4296169 36.8204045 48.4227292 42 47.5583297 41.998189 47.5669393 36.8185934 46 36.8185934 46 36 50 36.0054331 49.9965562 36.8222155"></polyline>
                        <path d="M53.8291899,37.1689932 C53.635798,36.9444609 53.331416,36.8036828 53.0034907,36.8036828 C52.6755654,36.8036828 52.3711834,36.9444609 52.1744282,37.1672112 C51.9003162,37.4808435 51.8431395,37.8140778 51.8431395,38.999109 C51.8414578,40.1823582 51.8969529,40.5155925 52.1693832,40.8292248 C52.3644567,41.0537571 52.6688387,41.1945352 52.996764,41.1945352 C53.326371,41.1980992 53.6290713,41.0555391 53.8241449,40.8327888 C54.0982568,40.5173745 54.1537519,40.1859222 54.1554335,39.002673 C54.1571152,37.8158598 54.1033018,37.4844075 53.8291899,37.1689932 M54.4648605,41.3709534 C54.0797585,41.7772498 53.5870296,42 52.9950824,42 C52.4031351,42 51.9171329,41.7736858 51.5353942,41.3673894 C50.988852,40.7864568 50.9972603,40.1324621 51.0006236,38.997327 C51.0006236,37.8621919 50.9955786,37.2064152 51.5438025,36.6272646 C51.9255412,36.2227502 52.4098617,36 53.0034907,36 C53.5971196,36.001782 54.0881668,36.2263142 54.4715872,36.6326106 C55.0164478,37.2117612 55.0013128,37.8675379 54.9996311,39.002673 C54.9962678,40.1378081 55.0114028,40.7918028 54.4648605,41.3709534" id="Fill-83" fill="#FFFFFE"></path>
                        <path d="M59.0713693,36.8201569 L57.8381743,36.8183464 L57.8348548,38.6958358 L59.0697095,38.6976463 C59.6240664,38.6976463 60.0008299,38.3536512 60.0041494,37.7634279 C60.0041494,37.1750151 59.6257261,36.8201569 59.0713693,36.8201569 M60.0290456,41.9981895 L58.8755187,39.4725407 L57.8348548,39.4707302 L57.8298755,41.996379 L57,41.996379 L57.0082988,36 L59.1344398,36.003621 C60.1751037,36.003621 60.8373444,36.7386844 60.8356846,37.7561859 C60.8340249,38.6143633 60.3543568,39.1611346 59.7385892,39.3458057 L61,42" id="Fill-84" fill="#FFFFFE"></path>
                        <polyline id="Fill-85" fill="#FFFFFE" points="65.0012102 39.5326087 64.9951593 42 63.9826543 42 63.9887051 39.5307971 62 36 63.1032674 36 64.4949576 38.6394928 65.8947156 36.0036232 67 36.0036232"></polyline>
                    </g>
                </g>
            </g>
        </g>
    </g>
</svg>