<?xml version="1.0" encoding="utf-8"?>
<!-- Generator: Adobe Illustrator 21.1.0, SVG Export Plug-In . SVG Version: 6.00 Build 0)  -->
<svg version="1.1" id="Layer_1" xmlns="http://www.w3.org/2000/svg" xmlns:xlink="http://www.w3.org/1999/xlink" x="0px" y="0px"
	 viewBox="0 0 161.2 182.1" style="enable-background:new 0 0 161.2 182.1;" xml:space="preserve">
<style type="text/css">
	.st0{clip-path:url(#SVGID_2_);fill:#29292A;}
	.st1{clip-path:url(#SVGID_4_);fill:#29292A;}
	.st2{clip-path:url(#SVGID_6_);fill:#29292A;}
	.st3{clip-path:url(#SVGID_8_);fill:#29292A;}
	.st4{clip-path:url(#SVGID_10_);fill:#29292A;}
	.st5{clip-path:url(#SVGID_12_);fill:#29292A;}
	.st6{clip-path:url(#SVGID_14_);fill:none;}
	.st7{clip-path:url(#SVGID_16_);fill:#29292A;}
	.st8{clip-path:url(#SVGID_18_);fill:none;}
	.st9{clip-path:url(#SVGID_20_);fill:#29292A;}
	.st10{clip-path:url(#SVGID_22_);fill:none;}
	.st11{clip-path:url(#SVGID_24_);fill:#29292A;}
	.st12{clip-path:url(#SVGID_26_);fill:none;}
	.st13{clip-path:url(#SVGID_28_);fill:#29292A;}
	.st14{clip-path:url(#SVGID_30_);fill:none;}
	.st15{clip-path:url(#SVGID_32_);fill:#29292A;}
	.st16{clip-path:url(#SVGID_34_);fill:none;}
	.st17{clip-path:url(#SVGID_36_);fill:#29292A;}
	.st18{clip-path:url(#SVGID_38_);fill:none;}
	.st19{clip-path:url(#SVGID_40_);fill:#29292A;}
	.st20{clip-path:url(#SVGID_42_);fill:none;}
	.st21{clip-path:url(#SVGID_44_);fill:#29292A;}
	.st22{clip-path:url(#SVGID_46_);fill:none;}
	.st23{clip-path:url(#SVGID_48_);fill:#29292A;}
	.st24{clip-path:url(#SVGID_50_);fill:none;}
	.st25{clip-path:url(#SVGID_52_);fill:#29292A;}
	.st26{clip-path:url(#SVGID_54_);fill:none;}
	.st27{clip-path:url(#SVGID_56_);fill:#29292A;}
	.st28{clip-path:url(#SVGID_58_);fill:none;}
	.st29{clip-path:url(#SVGID_60_);fill:#29292A;}
	.st30{clip-path:url(#SVGID_62_);fill:none;}
	.st31{clip-path:url(#SVGID_64_);fill:#29292A;}
	.st32{clip-path:url(#SVGID_66_);fill:none;}
	.st33{clip-path:url(#SVGID_68_);fill:#29292A;}
	.st34{clip-path:url(#SVGID_70_);fill:none;}
	.st35{clip-path:url(#SVGID_72_);fill:#29292A;}
	.st36{clip-path:url(#SVGID_74_);fill:none;}
	.st37{clip-path:url(#SVGID_76_);fill:#29292A;}
	.st38{clip-path:url(#SVGID_78_);fill:none;}
	.st39{clip-path:url(#SVGID_80_);fill:#29292A;}
	.st40{clip-path:url(#SVGID_82_);fill:none;}
	.st41{clip-path:url(#SVGID_84_);fill:#29292A;}
	.st42{clip-path:url(#SVGID_86_);fill:none;}
	.st43{clip-path:url(#SVGID_88_);fill:#29292A;}
	.st44{clip-path:url(#SVGID_90_);fill:none;}
	.st45{clip-path:url(#SVGID_92_);fill:#29292A;}
	.st46{clip-path:url(#SVGID_94_);fill:none;}
	.st47{clip-path:url(#SVGID_96_);fill:#29292A;}
	.st48{clip-path:url(#SVGID_98_);fill:none;}
	.st49{clip-path:url(#SVGID_100_);fill:#29292A;}
	.st50{clip-path:url(#SVGID_102_);fill:none;}
	.st51{clip-path:url(#SVGID_104_);fill:#29292A;}
	.st52{clip-path:url(#SVGID_106_);fill:none;}
	.st53{clip-path:url(#SVGID_108_);fill:#29292A;}
	.st54{clip-path:url(#SVGID_110_);fill:none;}
	.st55{clip-path:url(#SVGID_112_);fill:#29292A;}
	.st56{clip-path:url(#SVGID_114_);fill:none;}
	.st57{clip-path:url(#SVGID_116_);fill:#29292A;}
	.st58{clip-path:url(#SVGID_118_);fill:none;}
	.st59{clip-path:url(#SVGID_120_);fill:#29292A;}
	.st60{clip-path:url(#SVGID_122_);fill:none;}
	.st61{clip-path:url(#SVGID_124_);fill:#29292A;}
	.st62{clip-path:url(#SVGID_126_);fill:none;}
	.st63{clip-path:url(#SVGID_128_);fill:#29292A;}
	.st64{clip-path:url(#SVGID_130_);fill:none;}
	.st65{clip-path:url(#SVGID_132_);fill:#29292A;}
	.st66{clip-path:url(#SVGID_134_);fill:none;}
	.st67{clip-path:url(#SVGID_136_);fill:#29292A;}
	.st68{clip-path:url(#SVGID_138_);fill:none;}
	.st69{clip-path:url(#SVGID_140_);fill:#29292A;}
	.st70{clip-path:url(#SVGID_142_);fill:none;}
	.st71{clip-path:url(#SVGID_144_);fill:#29292A;}
	.st72{clip-path:url(#SVGID_146_);fill:none;}
	.st73{clip-path:url(#SVGID_148_);fill:#29292A;}
	.st74{clip-path:url(#SVGID_150_);fill:none;}
	.st75{clip-path:url(#SVGID_152_);fill:#29292A;}
	.st76{clip-path:url(#SVGID_154_);fill:none;}
	.st77{clip-path:url(#SVGID_156_);fill:#29292A;}
	.st78{clip-path:url(#SVGID_158_);fill:none;}
	.st79{clip-path:url(#SVGID_160_);fill:#29292A;}
	.st80{clip-path:url(#SVGID_162_);fill:none;}
	.st81{clip-path:url(#SVGID_164_);fill:#29292A;}
	.st82{clip-path:url(#SVGID_166_);fill:none;}
	.st83{clip-path:url(#SVGID_168_);fill:#29292A;}
	.st84{clip-path:url(#SVGID_170_);fill:none;}
	.st85{clip-path:url(#SVGID_172_);fill:#29292A;}
	.st86{clip-path:url(#SVGID_174_);fill:none;}
	.st87{clip-path:url(#SVGID_176_);fill:#29292A;}
	.st88{clip-path:url(#SVGID_178_);fill:none;}
	.st89{clip-path:url(#SVGID_180_);fill:#29292A;}
	.st90{clip-path:url(#SVGID_182_);fill:none;}
	.st91{clip-path:url(#SVGID_184_);fill:#29292A;}
	.st92{clip-path:url(#SVGID_186_);fill:none;}
	.st93{clip-path:url(#SVGID_188_);fill:#29292A;}
	.st94{clip-path:url(#SVGID_190_);fill:none;}
	.st95{clip-path:url(#SVGID_192_);fill:#29292A;}
	.st96{clip-path:url(#SVGID_194_);fill:none;}
	.st97{clip-path:url(#SVGID_196_);fill:#29292A;}
	.st98{clip-path:url(#SVGID_198_);fill:none;}
	.st99{clip-path:url(#SVGID_200_);fill:#29292A;}
	.st100{clip-path:url(#SVGID_202_);fill:none;}
	.st101{clip-path:url(#SVGID_204_);fill:#29292A;}
	.st102{clip-path:url(#SVGID_206_);fill:none;}
	.st103{clip-path:url(#SVGID_208_);fill:#29292A;}
	.st104{clip-path:url(#SVGID_210_);fill:none;}
	.st105{clip-path:url(#SVGID_212_);fill:#29292A;}
	.st106{fill:#FFCE00;}
</style>
<g>
	<path d="M4.2,51.4c0-2.6,1.8-5.8,4.1-7.1l68-39.2c2.3-1.3,5.9-1.3,8.2,0l67.9,39.2c2.3,1.3,4.1,4.5,4.1,7.1v78.5
		c0,2.6-1.8,5.8-4.1,7.1l-67.9,39.2c-2.3,1.3-5.9,1.3-8.2,0L8.3,137c-2.3-1.3-4.1-4.5-4.1-7.1V51.4z"/>
	<g>
		<g>
			<defs>
				<polygon id="SVGID_1_" points="4.6,47.4 80.8,3.4 156.9,47.4 156.9,135.3 80.8,179.3 4.6,135.3 				"/>
			</defs>
			<clipPath id="SVGID_2_">
				<use xlink:href="#SVGID_1_"  style="overflow:visible;"/>
			</clipPath>
			<polyline class="st0" points="-112,42.3 157.4,311.7 158.2,310.8 -111.1,41.4 			"/>
		</g>
		<g>
			<defs>
				<polygon id="SVGID_3_" points="4.6,47.4 80.8,3.4 156.9,47.4 156.9,135.3 80.8,179.3 4.6,135.3 				"/>
			</defs>
			<clipPath id="SVGID_4_">
				<use xlink:href="#SVGID_3_"  style="overflow:visible;"/>
			</clipPath>
			<polyline class="st1" points="-109.2,39.4 160.2,308.8 161.1,307.9 -108.3,38.5 			"/>
		</g>
		<g>
			<defs>
				<polygon id="SVGID_5_" points="4.6,47.4 80.8,3.4 156.9,47.4 156.9,135.3 80.8,179.3 4.6,135.3 				"/>
			</defs>
			<clipPath id="SVGID_6_">
				<use xlink:href="#SVGID_5_"  style="overflow:visible;"/>
			</clipPath>
			<polyline class="st2" points="-106.4,36.6 163,306 163.9,305.1 -105.5,35.7 			"/>
		</g>
		<g>
			<defs>
				<polygon id="SVGID_7_" points="4.6,47.4 80.8,3.4 156.9,47.4 156.9,135.3 80.8,179.3 4.6,135.3 				"/>
			</defs>
			<clipPath id="SVGID_8_">
				<use xlink:href="#SVGID_7_"  style="overflow:visible;"/>
			</clipPath>
			<polyline class="st3" points="-103.5,33.7 165.9,303.2 166.8,302.3 -102.6,32.8 			"/>
		</g>
		<g>
			<defs>
				<polygon id="SVGID_9_" points="4.6,47.4 80.8,3.4 156.9,47.4 156.9,135.3 80.8,179.3 4.6,135.3 				"/>
			</defs>
			<clipPath id="SVGID_10_">
				<use xlink:href="#SVGID_9_"  style="overflow:visible;"/>
			</clipPath>
			<polyline class="st4" points="-100.7,30.9 168.7,300.3 169.6,299.4 -99.8,30 			"/>
		</g>
		<g>
			<defs>
				<polygon id="SVGID_11_" points="4.6,47.4 80.8,3.4 156.9,47.4 156.9,135.3 80.8,179.3 4.6,135.3 				"/>
			</defs>
			<clipPath id="SVGID_12_">
				<use xlink:href="#SVGID_11_"  style="overflow:visible;"/>
			</clipPath>
			<polyline class="st5" points="-97.8,28.1 171.6,297.5 172.5,296.6 -96.9,27.2 			"/>
		</g>
		<g>
			<defs>
				<polygon id="SVGID_13_" points="4.6,47.4 80.8,3.4 156.9,47.4 156.9,135.3 80.8,179.3 4.6,135.3 				"/>
			</defs>
			<clipPath id="SVGID_14_">
				<use xlink:href="#SVGID_13_"  style="overflow:visible;"/>
			</clipPath>
			<line class="st6" x1="-94.5" y1="24.8" x2="174.9" y2="294.2"/>
		</g>
		<g>
			<defs>
				<polygon id="SVGID_15_" points="4.6,47.4 80.8,3.4 156.9,47.4 156.9,135.3 80.8,179.3 4.6,135.3 				"/>
			</defs>
			<clipPath id="SVGID_16_">
				<use xlink:href="#SVGID_15_"  style="overflow:visible;"/>
			</clipPath>
			<polyline class="st7" points="-95,25.2 174.4,294.6 175.3,293.7 -94.1,24.3 			"/>
		</g>
		<g>
			<defs>
				<polygon id="SVGID_17_" points="4.6,47.4 80.8,3.4 156.9,47.4 156.9,135.3 80.8,179.3 4.6,135.3 				"/>
			</defs>
			<clipPath id="SVGID_18_">
				<use xlink:href="#SVGID_17_"  style="overflow:visible;"/>
			</clipPath>
			<line class="st8" x1="-91.7" y1="21.9" x2="177.7" y2="291.3"/>
		</g>
		<g>
			<defs>
				<polygon id="SVGID_19_" points="4.6,47.4 80.8,3.4 156.9,47.4 156.9,135.3 80.8,179.3 4.6,135.3 				"/>
			</defs>
			<clipPath id="SVGID_20_">
				<use xlink:href="#SVGID_19_"  style="overflow:visible;"/>
			</clipPath>
			<polyline class="st9" points="-92.1,22.4 177.3,291.8 178.2,290.9 -91.2,21.5 			"/>
		</g>
		<g>
			<defs>
				<polygon id="SVGID_21_" points="4.6,47.4 80.8,3.4 156.9,47.4 156.9,135.3 80.8,179.3 4.6,135.3 				"/>
			</defs>
			<clipPath id="SVGID_22_">
				<use xlink:href="#SVGID_21_"  style="overflow:visible;"/>
			</clipPath>
			<line class="st10" x1="-88.8" y1="19.1" x2="180.6" y2="288.5"/>
		</g>
		<g>
			<defs>
				<polygon id="SVGID_23_" points="4.6,47.4 80.8,3.4 156.9,47.4 156.9,135.3 80.8,179.3 4.6,135.3 				"/>
			</defs>
			<clipPath id="SVGID_24_">
				<use xlink:href="#SVGID_23_"  style="overflow:visible;"/>
			</clipPath>
			<polyline class="st11" points="-89.3,19.5 180.1,288.9 181,288 -88.4,18.6 			"/>
		</g>
		<g>
			<defs>
				<polygon id="SVGID_25_" points="4.6,47.4 80.8,3.4 156.9,47.4 156.9,135.3 80.8,179.3 4.6,135.3 				"/>
			</defs>
			<clipPath id="SVGID_26_">
				<use xlink:href="#SVGID_25_"  style="overflow:visible;"/>
			</clipPath>
			<line class="st12" x1="-86" y1="16.2" x2="183.4" y2="285.6"/>
		</g>
		<g>
			<defs>
				<polygon id="SVGID_27_" points="4.6,47.4 80.8,3.4 156.9,47.4 156.9,135.3 80.8,179.3 4.6,135.3 				"/>
			</defs>
			<clipPath id="SVGID_28_">
				<use xlink:href="#SVGID_27_"  style="overflow:visible;"/>
			</clipPath>
			<polyline class="st13" points="-86.4,16.7 182.9,286.1 183.8,285.2 -85.5,15.8 			"/>
		</g>
		<g>
			<defs>
				<polygon id="SVGID_29_" points="4.6,47.4 80.8,3.4 156.9,47.4 156.9,135.3 80.8,179.3 4.6,135.3 				"/>
			</defs>
			<clipPath id="SVGID_30_">
				<use xlink:href="#SVGID_29_"  style="overflow:visible;"/>
			</clipPath>
			<line class="st14" x1="-83.1" y1="13.4" x2="186.3" y2="282.8"/>
		</g>
		<g>
			<defs>
				<polygon id="SVGID_31_" points="4.6,47.4 80.8,3.4 156.9,47.4 156.9,135.3 80.8,179.3 4.6,135.3 				"/>
			</defs>
			<clipPath id="SVGID_32_">
				<use xlink:href="#SVGID_31_"  style="overflow:visible;"/>
			</clipPath>
			<polyline class="st15" points="-83.6,13.8 185.8,283.2 186.7,282.3 -82.7,13 			"/>
		</g>
		<g>
			<defs>
				<polygon id="SVGID_33_" points="4.6,47.4 80.8,3.4 156.9,47.4 156.9,135.3 80.8,179.3 4.6,135.3 				"/>
			</defs>
			<clipPath id="SVGID_34_">
				<use xlink:href="#SVGID_33_"  style="overflow:visible;"/>
			</clipPath>
			<line class="st16" x1="-80.3" y1="10.5" x2="189.1" y2="280"/>
		</g>
		<g>
			<defs>
				<polygon id="SVGID_35_" points="4.6,47.4 80.8,3.4 156.9,47.4 156.9,135.3 80.8,179.3 4.6,135.3 				"/>
			</defs>
			<clipPath id="SVGID_36_">
				<use xlink:href="#SVGID_35_"  style="overflow:visible;"/>
			</clipPath>
			<polyline class="st17" points="-80.8,11 188.6,280.4 189.5,279.5 -79.9,10.1 			"/>
		</g>
		<g>
			<defs>
				<polygon id="SVGID_37_" points="4.6,47.4 80.8,3.4 156.9,47.4 156.9,135.3 80.8,179.3 4.6,135.3 				"/>
			</defs>
			<clipPath id="SVGID_38_">
				<use xlink:href="#SVGID_37_"  style="overflow:visible;"/>
			</clipPath>
			<line class="st18" x1="-77.5" y1="7.7" x2="191.9" y2="277.1"/>
		</g>
		<g>
			<defs>
				<polygon id="SVGID_39_" points="4.6,47.4 80.8,3.4 156.9,47.4 156.9,135.3 80.8,179.3 4.6,135.3 				"/>
			</defs>
			<clipPath id="SVGID_40_">
				<use xlink:href="#SVGID_39_"  style="overflow:visible;"/>
			</clipPath>
			<polyline class="st19" points="-77.9,8.2 191.5,277.5 192.4,276.7 -77,7.3 			"/>
		</g>
		<g>
			<defs>
				<polygon id="SVGID_41_" points="4.6,47.4 80.8,3.4 156.9,47.4 156.9,135.3 80.8,179.3 4.6,135.3 				"/>
			</defs>
			<clipPath id="SVGID_42_">
				<use xlink:href="#SVGID_41_"  style="overflow:visible;"/>
			</clipPath>
			<line class="st20" x1="-74.6" y1="4.9" x2="194.8" y2="274.3"/>
		</g>
		<g>
			<defs>
				<polygon id="SVGID_43_" points="4.6,47.4 80.8,3.4 156.9,47.4 156.9,135.3 80.8,179.3 4.6,135.3 				"/>
			</defs>
			<clipPath id="SVGID_44_">
				<use xlink:href="#SVGID_43_"  style="overflow:visible;"/>
			</clipPath>
			<polyline class="st21" points="-75.1,5.3 194.3,274.7 195.2,273.8 -74.2,4.4 			"/>
		</g>
		<g>
			<defs>
				<polygon id="SVGID_45_" points="4.6,47.4 80.8,3.4 156.9,47.4 156.9,135.3 80.8,179.3 4.6,135.3 				"/>
			</defs>
			<clipPath id="SVGID_46_">
				<use xlink:href="#SVGID_45_"  style="overflow:visible;"/>
			</clipPath>
			<line class="st22" x1="-71.8" y1="2" x2="197.6" y2="271.4"/>
		</g>
		<g>
			<defs>
				<polygon id="SVGID_47_" points="4.6,47.4 80.8,3.4 156.9,47.4 156.9,135.3 80.8,179.3 4.6,135.3 				"/>
			</defs>
			<clipPath id="SVGID_48_">
				<use xlink:href="#SVGID_47_"  style="overflow:visible;"/>
			</clipPath>
			<polyline class="st23" points="-72.2,2.5 197.2,271.9 198.1,271 -71.3,1.6 			"/>
		</g>
		<g>
			<defs>
				<polygon id="SVGID_49_" points="4.6,47.4 80.8,3.4 156.9,47.4 156.9,135.3 80.8,179.3 4.6,135.3 				"/>
			</defs>
			<clipPath id="SVGID_50_">
				<use xlink:href="#SVGID_49_"  style="overflow:visible;"/>
			</clipPath>
			<line class="st24" x1="-68.9" y1="-0.8" x2="200.5" y2="268.6"/>
		</g>
		<g>
			<defs>
				<polygon id="SVGID_51_" points="4.6,47.4 80.8,3.4 156.9,47.4 156.9,135.3 80.8,179.3 4.6,135.3 				"/>
			</defs>
			<clipPath id="SVGID_52_">
				<use xlink:href="#SVGID_51_"  style="overflow:visible;"/>
			</clipPath>
			<polyline class="st25" points="-69.4,-0.4 200,269 200.9,268.1 -68.5,-1.3 			"/>
		</g>
		<g>
			<defs>
				<polygon id="SVGID_53_" points="4.6,47.4 80.8,3.4 156.9,47.4 156.9,135.3 80.8,179.3 4.6,135.3 				"/>
			</defs>
			<clipPath id="SVGID_54_">
				<use xlink:href="#SVGID_53_"  style="overflow:visible;"/>
			</clipPath>
			<line class="st26" x1="-66.1" y1="-3.7" x2="203.3" y2="265.7"/>
		</g>
		<g>
			<defs>
				<polygon id="SVGID_55_" points="4.6,47.4 80.8,3.4 156.9,47.4 156.9,135.3 80.8,179.3 4.6,135.3 				"/>
			</defs>
			<clipPath id="SVGID_56_">
				<use xlink:href="#SVGID_55_"  style="overflow:visible;"/>
			</clipPath>
			<polyline class="st27" points="-66.5,-3.2 202.9,266.2 203.8,265.3 -65.6,-4.1 			"/>
		</g>
		<g>
			<defs>
				<polygon id="SVGID_57_" points="4.6,47.4 80.8,3.4 156.9,47.4 156.9,135.3 80.8,179.3 4.6,135.3 				"/>
			</defs>
			<clipPath id="SVGID_58_">
				<use xlink:href="#SVGID_57_"  style="overflow:visible;"/>
			</clipPath>
			<line class="st28" x1="-63.2" y1="-6.5" x2="206.2" y2="262.9"/>
		</g>
		<g>
			<defs>
				<polygon id="SVGID_59_" points="4.6,47.4 80.8,3.4 156.9,47.4 156.9,135.3 80.8,179.3 4.6,135.3 				"/>
			</defs>
			<clipPath id="SVGID_60_">
				<use xlink:href="#SVGID_59_"  style="overflow:visible;"/>
			</clipPath>
			<polyline class="st29" points="-63.7,-6.1 205.7,263.3 206.6,262.4 -62.8,-7 			"/>
		</g>
		<g>
			<defs>
				<polygon id="SVGID_61_" points="4.6,47.4 80.8,3.4 156.9,47.4 156.9,135.3 80.8,179.3 4.6,135.3 				"/>
			</defs>
			<clipPath id="SVGID_62_">
				<use xlink:href="#SVGID_61_"  style="overflow:visible;"/>
			</clipPath>
			<line class="st30" x1="-60.4" y1="-9.4" x2="209" y2="260"/>
		</g>
		<g>
			<defs>
				<polygon id="SVGID_63_" points="4.6,47.4 80.8,3.4 156.9,47.4 156.9,135.3 80.8,179.3 4.6,135.3 				"/>
			</defs>
			<clipPath id="SVGID_64_">
				<use xlink:href="#SVGID_63_"  style="overflow:visible;"/>
			</clipPath>
			<polyline class="st31" points="-60.8,-8.9 208.6,260.5 209.4,259.6 -59.9,-9.8 			"/>
		</g>
		<g>
			<defs>
				<polygon id="SVGID_65_" points="4.6,47.4 80.8,3.4 156.9,47.4 156.9,135.3 80.8,179.3 4.6,135.3 				"/>
			</defs>
			<clipPath id="SVGID_66_">
				<use xlink:href="#SVGID_65_"  style="overflow:visible;"/>
			</clipPath>
			<line class="st32" x1="-57.6" y1="-12.2" x2="211.8" y2="257.2"/>
		</g>
		<g>
			<defs>
				<polygon id="SVGID_67_" points="4.6,47.4 80.8,3.4 156.9,47.4 156.9,135.3 80.8,179.3 4.6,135.3 				"/>
			</defs>
			<clipPath id="SVGID_68_">
				<use xlink:href="#SVGID_67_"  style="overflow:visible;"/>
			</clipPath>
			<polyline class="st33" points="-58,-11.8 211.4,257.6 212.3,256.7 -57.1,-12.7 			"/>
		</g>
		<g>
			<defs>
				<polygon id="SVGID_69_" points="4.6,47.4 80.8,3.4 156.9,47.4 156.9,135.3 80.8,179.3 4.6,135.3 				"/>
			</defs>
			<clipPath id="SVGID_70_">
				<use xlink:href="#SVGID_69_"  style="overflow:visible;"/>
			</clipPath>
			<line class="st34" x1="-54.7" y1="-15" x2="214.7" y2="254.3"/>
		</g>
		<g>
			<defs>
				<polygon id="SVGID_71_" points="4.6,47.4 80.8,3.4 156.9,47.4 156.9,135.3 80.8,179.3 4.6,135.3 				"/>
			</defs>
			<clipPath id="SVGID_72_">
				<use xlink:href="#SVGID_71_"  style="overflow:visible;"/>
			</clipPath>
			<polyline class="st35" points="-55.2,-14.6 214.2,254.8 215.1,253.9 -54.3,-15.5 			"/>
		</g>
		<g>
			<defs>
				<polygon id="SVGID_73_" points="4.6,47.4 80.8,3.4 156.9,47.4 156.9,135.3 80.8,179.3 4.6,135.3 				"/>
			</defs>
			<clipPath id="SVGID_74_">
				<use xlink:href="#SVGID_73_"  style="overflow:visible;"/>
			</clipPath>
			<line class="st36" x1="-51.9" y1="-17.9" x2="217.5" y2="251.5"/>
		</g>
		<g>
			<defs>
				<polygon id="SVGID_75_" points="4.6,47.4 80.8,3.4 156.9,47.4 156.9,135.3 80.8,179.3 4.6,135.3 				"/>
			</defs>
			<clipPath id="SVGID_76_">
				<use xlink:href="#SVGID_75_"  style="overflow:visible;"/>
			</clipPath>
			<polyline class="st37" points="-52.3,-17.4 217.1,252 218,251.1 -51.4,-18.3 			"/>
		</g>
		<g>
			<defs>
				<polygon id="SVGID_77_" points="4.6,47.4 80.8,3.4 156.9,47.4 156.9,135.3 80.8,179.3 4.6,135.3 				"/>
			</defs>
			<clipPath id="SVGID_78_">
				<use xlink:href="#SVGID_77_"  style="overflow:visible;"/>
			</clipPath>
			<line class="st38" x1="-49" y1="-20.7" x2="220.4" y2="248.7"/>
		</g>
		<g>
			<defs>
				<polygon id="SVGID_79_" points="4.6,47.4 80.8,3.4 156.9,47.4 156.9,135.3 80.8,179.3 4.6,135.3 				"/>
			</defs>
			<clipPath id="SVGID_80_">
				<use xlink:href="#SVGID_79_"  style="overflow:visible;"/>
			</clipPath>
			<polyline class="st39" points="-49.5,-20.3 219.9,249.1 220.8,248.2 -48.6,-21.2 			"/>
		</g>
		<g>
			<defs>
				<polygon id="SVGID_81_" points="4.6,47.4 80.8,3.4 156.9,47.4 156.9,135.3 80.8,179.3 4.6,135.3 				"/>
			</defs>
			<clipPath id="SVGID_82_">
				<use xlink:href="#SVGID_81_"  style="overflow:visible;"/>
			</clipPath>
			<line class="st40" x1="-46.2" y1="-23.6" x2="223.2" y2="245.8"/>
		</g>
		<g>
			<defs>
				<polygon id="SVGID_83_" points="4.6,47.4 80.8,3.4 156.9,47.4 156.9,135.3 80.8,179.3 4.6,135.3 				"/>
			</defs>
			<clipPath id="SVGID_84_">
				<use xlink:href="#SVGID_83_"  style="overflow:visible;"/>
			</clipPath>
			<polyline class="st41" points="-46.6,-23.1 222.8,246.3 223.7,245.4 -45.7,-24 			"/>
		</g>
		<g>
			<defs>
				<polygon id="SVGID_85_" points="4.6,47.4 80.8,3.4 156.9,47.4 156.9,135.3 80.8,179.3 4.6,135.3 				"/>
			</defs>
			<clipPath id="SVGID_86_">
				<use xlink:href="#SVGID_85_"  style="overflow:visible;"/>
			</clipPath>
			<line class="st42" x1="-43.3" y1="-26.4" x2="226.1" y2="243"/>
		</g>
		<g>
			<defs>
				<polygon id="SVGID_87_" points="4.6,47.4 80.8,3.4 156.9,47.4 156.9,135.3 80.8,179.3 4.6,135.3 				"/>
			</defs>
			<clipPath id="SVGID_88_">
				<use xlink:href="#SVGID_87_"  style="overflow:visible;"/>
			</clipPath>
			<polyline class="st43" points="-43.8,-26 225.6,243.4 226.5,242.5 -42.9,-26.9 			"/>
		</g>
		<g>
			<defs>
				<polygon id="SVGID_89_" points="4.6,47.4 80.8,3.4 156.9,47.4 156.9,135.3 80.8,179.3 4.6,135.3 				"/>
			</defs>
			<clipPath id="SVGID_90_">
				<use xlink:href="#SVGID_89_"  style="overflow:visible;"/>
			</clipPath>
			<line class="st44" x1="-40.5" y1="-29.3" x2="228.9" y2="240.1"/>
		</g>
		<g>
			<defs>
				<polygon id="SVGID_91_" points="4.6,47.4 80.8,3.4 156.9,47.4 156.9,135.3 80.8,179.3 4.6,135.3 				"/>
			</defs>
			<clipPath id="SVGID_92_">
				<use xlink:href="#SVGID_91_"  style="overflow:visible;"/>
			</clipPath>
			<polyline class="st45" points="-40.9,-28.8 228.5,240.6 229.4,239.7 -40,-29.7 			"/>
		</g>
		<g>
			<defs>
				<polygon id="SVGID_93_" points="4.6,47.4 80.8,3.4 156.9,47.4 156.9,135.3 80.8,179.3 4.6,135.3 				"/>
			</defs>
			<clipPath id="SVGID_94_">
				<use xlink:href="#SVGID_93_"  style="overflow:visible;"/>
			</clipPath>
			<line class="st46" x1="-37.6" y1="-32.1" x2="231.8" y2="237.3"/>
		</g>
		<g>
			<defs>
				<polygon id="SVGID_95_" points="4.6,47.4 80.8,3.4 156.9,47.4 156.9,135.3 80.8,179.3 4.6,135.3 				"/>
			</defs>
			<clipPath id="SVGID_96_">
				<use xlink:href="#SVGID_95_"  style="overflow:visible;"/>
			</clipPath>
			<polyline class="st47" points="-38.1,-31.7 231.3,237.7 232.2,236.8 -37.2,-32.6 			"/>
		</g>
		<g>
			<defs>
				<polygon id="SVGID_97_" points="4.6,47.4 80.8,3.4 156.9,47.4 156.9,135.3 80.8,179.3 4.6,135.3 				"/>
			</defs>
			<clipPath id="SVGID_98_">
				<use xlink:href="#SVGID_97_"  style="overflow:visible;"/>
			</clipPath>
			<line class="st48" x1="-34.8" y1="-35" x2="234.6" y2="234.4"/>
		</g>
		<g>
			<defs>
				<polygon id="SVGID_99_" points="4.6,47.4 80.8,3.4 156.9,47.4 156.9,135.3 80.8,179.3 4.6,135.3 				"/>
			</defs>
			<clipPath id="SVGID_100_">
				<use xlink:href="#SVGID_99_"  style="overflow:visible;"/>
			</clipPath>
			<polyline class="st49" points="-35.2,-34.5 234.2,234.9 235.1,234 -34.3,-35.4 			"/>
		</g>
		<g>
			<defs>
				<polygon id="SVGID_101_" points="4.6,47.4 80.8,3.4 156.9,47.4 156.9,135.3 80.8,179.3 4.6,135.3 				"/>
			</defs>
			<clipPath id="SVGID_102_">
				<use xlink:href="#SVGID_101_"  style="overflow:visible;"/>
			</clipPath>
			<line class="st50" x1="-31.9" y1="-37.8" x2="237.5" y2="231.6"/>
		</g>
		<g>
			<defs>
				<polygon id="SVGID_103_" points="4.6,47.4 80.8,3.4 156.9,47.4 156.9,135.3 80.8,179.3 4.6,135.3 				"/>
			</defs>
			<clipPath id="SVGID_104_">
				<use xlink:href="#SVGID_103_"  style="overflow:visible;"/>
			</clipPath>
			<polyline class="st51" points="-32.4,-37.4 237,232 237.9,231.1 -31.5,-38.3 			"/>
		</g>
		<g>
			<defs>
				<polygon id="SVGID_105_" points="4.6,47.4 80.8,3.4 156.9,47.4 156.9,135.3 80.8,179.3 4.6,135.3 				"/>
			</defs>
			<clipPath id="SVGID_106_">
				<use xlink:href="#SVGID_105_"  style="overflow:visible;"/>
			</clipPath>
			<line class="st52" x1="-29.1" y1="-40.7" x2="240.3" y2="228.7"/>
		</g>
		<g>
			<defs>
				<polygon id="SVGID_107_" points="4.6,47.4 80.8,3.4 156.9,47.4 156.9,135.3 80.8,179.3 4.6,135.3 				"/>
			</defs>
			<clipPath id="SVGID_108_">
				<use xlink:href="#SVGID_107_"  style="overflow:visible;"/>
			</clipPath>
			<polyline class="st53" points="-29.6,-40.2 239.8,229.2 240.7,228.3 -28.7,-41.1 			"/>
		</g>
		<g>
			<defs>
				<polygon id="SVGID_109_" points="4.6,47.4 80.8,3.4 156.9,47.4 156.9,135.3 80.8,179.3 4.6,135.3 				"/>
			</defs>
			<clipPath id="SVGID_110_">
				<use xlink:href="#SVGID_109_"  style="overflow:visible;"/>
			</clipPath>
			<line class="st54" x1="-26.3" y1="-43.5" x2="243.1" y2="225.9"/>
		</g>
		<g>
			<defs>
				<polygon id="SVGID_111_" points="4.6,47.4 80.8,3.4 156.9,47.4 156.9,135.3 80.8,179.3 4.6,135.3 				"/>
			</defs>
			<clipPath id="SVGID_112_">
				<use xlink:href="#SVGID_111_"  style="overflow:visible;"/>
			</clipPath>
			<polyline class="st55" points="-26.7,-43 242.7,226.4 243.6,225.5 -25.8,-43.9 			"/>
		</g>
		<g>
			<defs>
				<polygon id="SVGID_113_" points="4.6,47.4 80.8,3.4 156.9,47.4 156.9,135.3 80.8,179.3 4.6,135.3 				"/>
			</defs>
			<clipPath id="SVGID_114_">
				<use xlink:href="#SVGID_113_"  style="overflow:visible;"/>
			</clipPath>
			<line class="st56" x1="-23.4" y1="-46.3" x2="246" y2="223.1"/>
		</g>
		<g>
			<defs>
				<polygon id="SVGID_115_" points="4.6,47.4 80.8,3.4 156.9,47.4 156.9,135.3 80.8,179.3 4.6,135.3 				"/>
			</defs>
			<clipPath id="SVGID_116_">
				<use xlink:href="#SVGID_115_"  style="overflow:visible;"/>
			</clipPath>
			<polyline class="st57" points="-23.9,-45.9 245.5,223.5 246.4,222.6 -23,-46.8 			"/>
		</g>
		<g>
			<defs>
				<polygon id="SVGID_117_" points="4.6,47.4 80.8,3.4 156.9,47.4 156.9,135.3 80.8,179.3 4.6,135.3 				"/>
			</defs>
			<clipPath id="SVGID_118_">
				<use xlink:href="#SVGID_117_"  style="overflow:visible;"/>
			</clipPath>
			<line class="st58" x1="-20.6" y1="-49.2" x2="248.8" y2="220.2"/>
		</g>
		<g>
			<defs>
				<polygon id="SVGID_119_" points="4.6,47.4 80.8,3.4 156.9,47.4 156.9,135.3 80.8,179.3 4.6,135.3 				"/>
			</defs>
			<clipPath id="SVGID_120_">
				<use xlink:href="#SVGID_119_"  style="overflow:visible;"/>
			</clipPath>
			<polyline class="st59" points="-21,-48.7 248.4,220.7 249.3,219.8 -20.1,-49.6 			"/>
		</g>
		<g>
			<defs>
				<polygon id="SVGID_121_" points="4.6,47.4 80.8,3.4 156.9,47.4 156.9,135.3 80.8,179.3 4.6,135.3 				"/>
			</defs>
			<clipPath id="SVGID_122_">
				<use xlink:href="#SVGID_121_"  style="overflow:visible;"/>
			</clipPath>
			<line class="st60" x1="-17.7" y1="-52" x2="251.7" y2="217.4"/>
		</g>
		<g>
			<defs>
				<polygon id="SVGID_123_" points="4.6,47.4 80.8,3.4 156.9,47.4 156.9,135.3 80.8,179.3 4.6,135.3 				"/>
			</defs>
			<clipPath id="SVGID_124_">
				<use xlink:href="#SVGID_123_"  style="overflow:visible;"/>
			</clipPath>
			<polyline class="st61" points="-18.2,-51.6 251.2,217.8 252.1,216.9 -17.3,-52.5 			"/>
		</g>
		<g>
			<defs>
				<polygon id="SVGID_125_" points="4.6,47.4 80.8,3.4 156.9,47.4 156.9,135.3 80.8,179.3 4.6,135.3 				"/>
			</defs>
			<clipPath id="SVGID_126_">
				<use xlink:href="#SVGID_125_"  style="overflow:visible;"/>
			</clipPath>
			<line class="st62" x1="-14.9" y1="-54.9" x2="254.5" y2="214.5"/>
		</g>
		<g>
			<defs>
				<polygon id="SVGID_127_" points="4.6,47.4 80.8,3.4 156.9,47.4 156.9,135.3 80.8,179.3 4.6,135.3 				"/>
			</defs>
			<clipPath id="SVGID_128_">
				<use xlink:href="#SVGID_127_"  style="overflow:visible;"/>
			</clipPath>
			<polyline class="st63" points="-15.3,-54.4 254.1,215 255,214.1 -14.4,-55.3 			"/>
		</g>
		<g>
			<defs>
				<polygon id="SVGID_129_" points="4.6,47.4 80.8,3.4 156.9,47.4 156.9,135.3 80.8,179.3 4.6,135.3 				"/>
			</defs>
			<clipPath id="SVGID_130_">
				<use xlink:href="#SVGID_129_"  style="overflow:visible;"/>
			</clipPath>
			<line class="st64" x1="-12" y1="-57.7" x2="257.4" y2="211.7"/>
		</g>
		<g>
			<defs>
				<polygon id="SVGID_131_" points="4.6,47.4 80.8,3.4 156.9,47.4 156.9,135.3 80.8,179.3 4.6,135.3 				"/>
			</defs>
			<clipPath id="SVGID_132_">
				<use xlink:href="#SVGID_131_"  style="overflow:visible;"/>
			</clipPath>
			<polyline class="st65" points="-12.5,-57.3 256.9,212.1 257.8,211.2 -11.6,-58.2 			"/>
		</g>
		<g>
			<defs>
				<polygon id="SVGID_133_" points="4.6,47.4 80.8,3.4 156.9,47.4 156.9,135.3 80.8,179.3 4.6,135.3 				"/>
			</defs>
			<clipPath id="SVGID_134_">
				<use xlink:href="#SVGID_133_"  style="overflow:visible;"/>
			</clipPath>
			<line class="st66" x1="-9.2" y1="-60.6" x2="260.2" y2="208.8"/>
		</g>
		<g>
			<defs>
				<polygon id="SVGID_135_" points="4.6,47.4 80.8,3.4 156.9,47.4 156.9,135.3 80.8,179.3 4.6,135.3 				"/>
			</defs>
			<clipPath id="SVGID_136_">
				<use xlink:href="#SVGID_135_"  style="overflow:visible;"/>
			</clipPath>
			<polyline class="st67" points="-9.6,-60.1 259.8,209.3 260.7,208.4 -8.7,-61 			"/>
		</g>
		<g>
			<defs>
				<polygon id="SVGID_137_" points="4.6,47.4 80.8,3.4 156.9,47.4 156.9,135.3 80.8,179.3 4.6,135.3 				"/>
			</defs>
			<clipPath id="SVGID_138_">
				<use xlink:href="#SVGID_137_"  style="overflow:visible;"/>
			</clipPath>
			<line class="st68" x1="-6.3" y1="-63.4" x2="263.1" y2="206"/>
		</g>
		<g>
			<defs>
				<polygon id="SVGID_139_" points="4.6,47.4 80.8,3.4 156.9,47.4 156.9,135.3 80.8,179.3 4.6,135.3 				"/>
			</defs>
			<clipPath id="SVGID_140_">
				<use xlink:href="#SVGID_139_"  style="overflow:visible;"/>
			</clipPath>
			<polyline class="st69" points="-6.8,-63 262.6,206.4 263.5,205.5 -5.9,-63.8 			"/>
		</g>
		<g>
			<defs>
				<polygon id="SVGID_141_" points="4.6,47.4 80.8,3.4 156.9,47.4 156.9,135.3 80.8,179.3 4.6,135.3 				"/>
			</defs>
			<clipPath id="SVGID_142_">
				<use xlink:href="#SVGID_141_"  style="overflow:visible;"/>
			</clipPath>
			<line class="st70" x1="-3.5" y1="-66.3" x2="265.9" y2="203.1"/>
		</g>
		<g>
			<defs>
				<polygon id="SVGID_143_" points="4.6,47.4 80.8,3.4 156.9,47.4 156.9,135.3 80.8,179.3 4.6,135.3 				"/>
			</defs>
			<clipPath id="SVGID_144_">
				<use xlink:href="#SVGID_143_"  style="overflow:visible;"/>
			</clipPath>
			<polyline class="st71" points="-4,-65.8 265.4,203.6 266.3,202.7 -3.1,-66.7 			"/>
		</g>
		<g>
			<defs>
				<polygon id="SVGID_145_" points="4.6,47.4 80.8,3.4 156.9,47.4 156.9,135.3 80.8,179.3 4.6,135.3 				"/>
			</defs>
			<clipPath id="SVGID_146_">
				<use xlink:href="#SVGID_145_"  style="overflow:visible;"/>
			</clipPath>
			<line class="st72" x1="-0.7" y1="-69.1" x2="268.7" y2="200.3"/>
		</g>
		<g>
			<defs>
				<polygon id="SVGID_147_" points="4.6,47.4 80.8,3.4 156.9,47.4 156.9,135.3 80.8,179.3 4.6,135.3 				"/>
			</defs>
			<clipPath id="SVGID_148_">
				<use xlink:href="#SVGID_147_"  style="overflow:visible;"/>
			</clipPath>
			<polyline class="st73" points="-1.1,-68.7 268.3,200.8 269.2,199.9 -0.2,-69.5 			"/>
		</g>
		<g>
			<defs>
				<polygon id="SVGID_149_" points="4.6,47.4 80.8,3.4 156.9,47.4 156.9,135.3 80.8,179.3 4.6,135.3 				"/>
			</defs>
			<clipPath id="SVGID_150_">
				<use xlink:href="#SVGID_149_"  style="overflow:visible;"/>
			</clipPath>
			<line class="st74" x1="2.2" y1="-71.9" x2="271.6" y2="197.5"/>
		</g>
		<g>
			<defs>
				<polygon id="SVGID_151_" points="4.6,47.4 80.8,3.4 156.9,47.4 156.9,135.3 80.8,179.3 4.6,135.3 				"/>
			</defs>
			<clipPath id="SVGID_152_">
				<use xlink:href="#SVGID_151_"  style="overflow:visible;"/>
			</clipPath>
			<polyline class="st75" points="1.7,-71.5 271.1,197.9 272,197 2.6,-72.4 			"/>
		</g>
		<g>
			<defs>
				<polygon id="SVGID_153_" points="4.6,47.4 80.8,3.4 156.9,47.4 156.9,135.3 80.8,179.3 4.6,135.3 				"/>
			</defs>
			<clipPath id="SVGID_154_">
				<use xlink:href="#SVGID_153_"  style="overflow:visible;"/>
			</clipPath>
			<line class="st76" x1="5" y1="-74.8" x2="274.4" y2="194.6"/>
		</g>
		<g>
			<defs>
				<polygon id="SVGID_155_" points="4.6,47.4 80.8,3.4 156.9,47.4 156.9,135.3 80.8,179.3 4.6,135.3 				"/>
			</defs>
			<clipPath id="SVGID_156_">
				<use xlink:href="#SVGID_155_"  style="overflow:visible;"/>
			</clipPath>
			<polyline class="st77" points="4.6,-74.3 274,195.1 274.9,194.2 5.5,-75.2 			"/>
		</g>
		<g>
			<defs>
				<polygon id="SVGID_157_" points="4.6,47.4 80.8,3.4 156.9,47.4 156.9,135.3 80.8,179.3 4.6,135.3 				"/>
			</defs>
			<clipPath id="SVGID_158_">
				<use xlink:href="#SVGID_157_"  style="overflow:visible;"/>
			</clipPath>
			<line class="st78" x1="7.9" y1="-77.6" x2="277.3" y2="191.8"/>
		</g>
		<g>
			<defs>
				<polygon id="SVGID_159_" points="4.6,47.4 80.8,3.4 156.9,47.4 156.9,135.3 80.8,179.3 4.6,135.3 				"/>
			</defs>
			<clipPath id="SVGID_160_">
				<use xlink:href="#SVGID_159_"  style="overflow:visible;"/>
			</clipPath>
			<polyline class="st79" points="7.4,-77.2 276.8,192.2 277.7,191.3 8.3,-78.1 			"/>
		</g>
		<g>
			<defs>
				<polygon id="SVGID_161_" points="4.6,47.4 80.8,3.4 156.9,47.4 156.9,135.3 80.8,179.3 4.6,135.3 				"/>
			</defs>
			<clipPath id="SVGID_162_">
				<use xlink:href="#SVGID_161_"  style="overflow:visible;"/>
			</clipPath>
			<line class="st80" x1="10.7" y1="-80.5" x2="280.1" y2="188.9"/>
		</g>
		<g>
			<defs>
				<polygon id="SVGID_163_" points="4.6,47.4 80.8,3.4 156.9,47.4 156.9,135.3 80.8,179.3 4.6,135.3 				"/>
			</defs>
			<clipPath id="SVGID_164_">
				<use xlink:href="#SVGID_163_"  style="overflow:visible;"/>
			</clipPath>
			<polyline class="st81" points="10.3,-80 279.7,189.4 280.6,188.5 11.2,-80.9 			"/>
		</g>
		<g>
			<defs>
				<polygon id="SVGID_165_" points="4.6,47.4 80.8,3.4 156.9,47.4 156.9,135.3 80.8,179.3 4.6,135.3 				"/>
			</defs>
			<clipPath id="SVGID_166_">
				<use xlink:href="#SVGID_165_"  style="overflow:visible;"/>
			</clipPath>
			<line class="st82" x1="13.6" y1="-83.3" x2="283" y2="186.1"/>
		</g>
		<g>
			<defs>
				<polygon id="SVGID_167_" points="4.6,47.4 80.8,3.4 156.9,47.4 156.9,135.3 80.8,179.3 4.6,135.3 				"/>
			</defs>
			<clipPath id="SVGID_168_">
				<use xlink:href="#SVGID_167_"  style="overflow:visible;"/>
			</clipPath>
			<polyline class="st83" points="13.1,-82.9 282.5,186.5 283.4,185.6 14,-83.8 			"/>
		</g>
		<g>
			<defs>
				<polygon id="SVGID_169_" points="4.6,47.4 80.8,3.4 156.9,47.4 156.9,135.3 80.8,179.3 4.6,135.3 				"/>
			</defs>
			<clipPath id="SVGID_170_">
				<use xlink:href="#SVGID_169_"  style="overflow:visible;"/>
			</clipPath>
			<line class="st84" x1="16.4" y1="-86.2" x2="285.8" y2="183.2"/>
		</g>
		<g>
			<defs>
				<polygon id="SVGID_171_" points="4.6,47.4 80.8,3.4 156.9,47.4 156.9,135.3 80.8,179.3 4.6,135.3 				"/>
			</defs>
			<clipPath id="SVGID_172_">
				<use xlink:href="#SVGID_171_"  style="overflow:visible;"/>
			</clipPath>
			<polyline class="st85" points="16,-85.7 285.4,183.7 286.2,182.8 16.9,-86.6 			"/>
		</g>
		<g>
			<defs>
				<polygon id="SVGID_173_" points="4.6,47.4 80.8,3.4 156.9,47.4 156.9,135.3 80.8,179.3 4.6,135.3 				"/>
			</defs>
			<clipPath id="SVGID_174_">
				<use xlink:href="#SVGID_173_"  style="overflow:visible;"/>
			</clipPath>
			<line class="st86" x1="19.3" y1="-89" x2="288.6" y2="180.4"/>
		</g>
		<g>
			<defs>
				<polygon id="SVGID_175_" points="4.6,47.4 80.8,3.4 156.9,47.4 156.9,135.3 80.8,179.3 4.6,135.3 				"/>
			</defs>
			<clipPath id="SVGID_176_">
				<use xlink:href="#SVGID_175_"  style="overflow:visible;"/>
			</clipPath>
			<polyline class="st87" points="18.8,-88.6 288.2,180.8 289.1,179.9 19.7,-89.5 			"/>
		</g>
		<g>
			<defs>
				<polygon id="SVGID_177_" points="4.6,47.4 80.8,3.4 156.9,47.4 156.9,135.3 80.8,179.3 4.6,135.3 				"/>
			</defs>
			<clipPath id="SVGID_178_">
				<use xlink:href="#SVGID_177_"  style="overflow:visible;"/>
			</clipPath>
			<line class="st88" x1="22.1" y1="-91.8" x2="291.5" y2="177.6"/>
		</g>
		<g>
			<defs>
				<polygon id="SVGID_179_" points="4.6,47.4 80.8,3.4 156.9,47.4 156.9,135.3 80.8,179.3 4.6,135.3 				"/>
			</defs>
			<clipPath id="SVGID_180_">
				<use xlink:href="#SVGID_179_"  style="overflow:visible;"/>
			</clipPath>
			<polyline class="st89" points="21.6,-91.4 291,178 291.9,177.1 22.5,-92.3 			"/>
		</g>
		<g>
			<defs>
				<polygon id="SVGID_181_" points="4.6,47.4 80.8,3.4 156.9,47.4 156.9,135.3 80.8,179.3 4.6,135.3 				"/>
			</defs>
			<clipPath id="SVGID_182_">
				<use xlink:href="#SVGID_181_"  style="overflow:visible;"/>
			</clipPath>
			<line class="st90" x1="24.9" y1="-94.7" x2="294.3" y2="174.7"/>
		</g>
		<g>
			<defs>
				<polygon id="SVGID_183_" points="4.6,47.4 80.8,3.4 156.9,47.4 156.9,135.3 80.8,179.3 4.6,135.3 				"/>
			</defs>
			<clipPath id="SVGID_184_">
				<use xlink:href="#SVGID_183_"  style="overflow:visible;"/>
			</clipPath>
			<polyline class="st91" points="24.5,-94.2 293.9,175.1 294.8,174.3 25.4,-95.1 			"/>
		</g>
		<g>
			<defs>
				<polygon id="SVGID_185_" points="4.6,47.4 80.8,3.4 156.9,47.4 156.9,135.3 80.8,179.3 4.6,135.3 				"/>
			</defs>
			<clipPath id="SVGID_186_">
				<use xlink:href="#SVGID_185_"  style="overflow:visible;"/>
			</clipPath>
			<line class="st92" x1="27.8" y1="-97.5" x2="297.2" y2="171.9"/>
		</g>
		<g>
			<defs>
				<polygon id="SVGID_187_" points="4.6,47.4 80.8,3.4 156.9,47.4 156.9,135.3 80.8,179.3 4.6,135.3 				"/>
			</defs>
			<clipPath id="SVGID_188_">
				<use xlink:href="#SVGID_187_"  style="overflow:visible;"/>
			</clipPath>
			<polyline class="st93" points="27.3,-97.1 296.7,172.3 297.6,171.4 28.2,-98 			"/>
		</g>
		<g>
			<defs>
				<polygon id="SVGID_189_" points="4.6,47.4 80.8,3.4 156.9,47.4 156.9,135.3 80.8,179.3 4.6,135.3 				"/>
			</defs>
			<clipPath id="SVGID_190_">
				<use xlink:href="#SVGID_189_"  style="overflow:visible;"/>
			</clipPath>
			<line class="st94" x1="30.6" y1="-100.4" x2="300" y2="169"/>
		</g>
		<g>
			<defs>
				<polygon id="SVGID_191_" points="4.6,47.4 80.8,3.4 156.9,47.4 156.9,135.3 80.8,179.3 4.6,135.3 				"/>
			</defs>
			<clipPath id="SVGID_192_">
				<use xlink:href="#SVGID_191_"  style="overflow:visible;"/>
			</clipPath>
			<polyline class="st95" points="30.2,-99.9 299.6,169.5 300.5,168.6 31.1,-100.8 			"/>
		</g>
		<g>
			<defs>
				<polygon id="SVGID_193_" points="4.6,47.4 80.8,3.4 156.9,47.4 156.9,135.3 80.8,179.3 4.6,135.3 				"/>
			</defs>
			<clipPath id="SVGID_194_">
				<use xlink:href="#SVGID_193_"  style="overflow:visible;"/>
			</clipPath>
			<line class="st96" x1="33.5" y1="-103.2" x2="302.9" y2="166.2"/>
		</g>
		<g>
			<defs>
				<polygon id="SVGID_195_" points="4.6,47.4 80.8,3.4 156.9,47.4 156.9,135.3 80.8,179.3 4.6,135.3 				"/>
			</defs>
			<clipPath id="SVGID_196_">
				<use xlink:href="#SVGID_195_"  style="overflow:visible;"/>
			</clipPath>
			<polyline class="st97" points="33,-102.8 302.4,166.6 303.3,165.7 33.9,-103.7 			"/>
		</g>
		<g>
			<defs>
				<polygon id="SVGID_197_" points="4.6,47.4 80.8,3.4 156.9,47.4 156.9,135.3 80.8,179.3 4.6,135.3 				"/>
			</defs>
			<clipPath id="SVGID_198_">
				<use xlink:href="#SVGID_197_"  style="overflow:visible;"/>
			</clipPath>
			<line class="st98" x1="36.3" y1="-106.1" x2="305.7" y2="163.3"/>
		</g>
		<g>
			<defs>
				<polygon id="SVGID_199_" points="4.6,47.4 80.8,3.4 156.9,47.4 156.9,135.3 80.8,179.3 4.6,135.3 				"/>
			</defs>
			<clipPath id="SVGID_200_">
				<use xlink:href="#SVGID_199_"  style="overflow:visible;"/>
			</clipPath>
			<polyline class="st99" points="35.9,-105.6 305.3,163.8 306.2,162.9 36.8,-106.5 			"/>
		</g>
		<g>
			<defs>
				<polygon id="SVGID_201_" points="4.6,47.4 80.8,3.4 156.9,47.4 156.9,135.3 80.8,179.3 4.6,135.3 				"/>
			</defs>
			<clipPath id="SVGID_202_">
				<use xlink:href="#SVGID_201_"  style="overflow:visible;"/>
			</clipPath>
			<line class="st100" x1="39.2" y1="-108.9" x2="308.6" y2="160.5"/>
		</g>
		<g>
			<defs>
				<polygon id="SVGID_203_" points="4.6,47.4 80.8,3.4 156.9,47.4 156.9,135.3 80.8,179.3 4.6,135.3 				"/>
			</defs>
			<clipPath id="SVGID_204_">
				<use xlink:href="#SVGID_203_"  style="overflow:visible;"/>
			</clipPath>
			<polyline class="st101" points="38.7,-108.5 308.1,160.9 309,160 39.6,-109.4 			"/>
		</g>
		<g>
			<defs>
				<polygon id="SVGID_205_" points="4.6,47.4 80.8,3.4 156.9,47.4 156.9,135.3 80.8,179.3 4.6,135.3 				"/>
			</defs>
			<clipPath id="SVGID_206_">
				<use xlink:href="#SVGID_205_"  style="overflow:visible;"/>
			</clipPath>
			<line class="st102" x1="42" y1="-111.8" x2="311.4" y2="157.6"/>
		</g>
		<g>
			<defs>
				<polygon id="SVGID_207_" points="4.6,47.4 80.8,3.4 156.9,47.4 156.9,135.3 80.8,179.3 4.6,135.3 				"/>
			</defs>
			<clipPath id="SVGID_208_">
				<use xlink:href="#SVGID_207_"  style="overflow:visible;"/>
			</clipPath>
			<polyline class="st103" points="41.6,-111.3 310.9,158.1 311.8,157.2 42.5,-112.2 			"/>
		</g>
		<g>
			<defs>
				<polygon id="SVGID_209_" points="4.6,47.4 80.8,3.4 156.9,47.4 156.9,135.3 80.8,179.3 4.6,135.3 				"/>
			</defs>
			<clipPath id="SVGID_210_">
				<use xlink:href="#SVGID_209_"  style="overflow:visible;"/>
			</clipPath>
			<line class="st104" x1="44.9" y1="-114.6" x2="314.2" y2="154.8"/>
		</g>
		<g>
			<defs>
				<polygon id="SVGID_211_" points="4.6,47.4 80.8,3.4 156.9,47.4 156.9,135.3 80.8,179.3 4.6,135.3 				"/>
			</defs>
			<clipPath id="SVGID_212_">
				<use xlink:href="#SVGID_211_"  style="overflow:visible;"/>
			</clipPath>
			<polyline class="st105" points="44.4,-114.2 313.8,155.2 314.7,154.3 45.3,-115 			"/>
		</g>
	</g>
	<path class="st106" d="M4.4,51.8h4.4c0-0.3,0.2-1.1,0.6-1.8s1-1.3,1.3-1.4l68-39.2c0.2-0.1,1-0.4,1.9-0.4c0.8,0,1.7,0.2,1.9,0.4
		l68,39.2c0.2,0.1,0.9,0.7,1.3,1.4c0.4,0.7,0.6,1.6,0.6,1.8v78.5c0,0.3-0.2,1.1-0.6,1.8c-0.4,0.7-1,1.3-1.3,1.4l-68,39.2
		c-0.2,0.1-1,0.4-1.9,0.4c-0.8,0-1.7-0.2-1.9-0.4l-68-39.2c-0.2-0.1-0.9-0.7-1.3-1.4s-0.6-1.6-0.6-1.8V51.8L4.4,51.8l-4.4,0v78.5
		c0,2.4,0.7,4.4,1.8,6.3c1.1,1.8,2.5,3.5,4.5,4.7l68,39.2c2,1.2,4.2,1.6,6.3,1.6s4.3-0.4,6.3-1.6l68-39.2c2-1.2,3.4-2.8,4.5-4.7
		s1.8-3.9,1.8-6.3V51.8c0-2.3-0.8-4.4-1.8-6.3c-1.1-1.8-2.5-3.5-4.5-4.7l-68-39.2c-2-1.2-4.2-1.6-6.3-1.6s-4.3,0.4-6.3,1.6l-68,39.2
		c-2,1.2-3.4,2.8-4.5,4.7S0,49.4,0,51.8L4.4,51.8L4.4,51.8z"/>
	<path d="M4.4,51.8h0.9c0-1.1,0.4-2.4,1.1-3.6C7.1,47,8,46,9,45.5L77,6.3c0.9-0.5,2.3-0.9,3.7-0.9s2.7,0.3,3.6,0.9l68,39.2
		c0.9,0.5,1.9,1.6,2.6,2.7c0.7,1.2,1.1,2.5,1.1,3.6v78.5c0,1.1-0.4,2.4-1.1,3.6c-0.7,1.2-1.6,2.2-2.6,2.7l-68,39.2
		c-0.9,0.6-2.3,0.9-3.6,0.9c-1.4,0-2.7-0.3-3.7-0.9L9,136.6c-0.9-0.5-1.9-1.6-2.6-2.7c-0.7-1.2-1.1-2.5-1.1-3.6V51.8L4.4,51.8
		l-0.9,0v78.5c0,1.5,0.5,3.1,1.3,4.5s1.9,2.6,3.2,3.4l68,39.2c1.3,0.8,2.9,1.1,4.6,1.1c1.6,0,3.2-0.3,4.5-1.1l68-39.2
		c1.3-0.8,2.4-2,3.2-3.4s1.3-3,1.3-4.5V51.8c0-1.5-0.5-3.1-1.3-4.5s-1.9-2.6-3.2-3.4l-68-39.2c-1.3-0.8-2.9-1.1-4.5-1.1
		S77.4,3.9,76,4.7L8,43.9c-1.3,0.8-2.4,2-3.2,3.4c-0.8,1.4-1.3,3-1.3,4.5L4.4,51.8L4.4,51.8z"/>
	<path class="st106" d="M65.8,47.1c-1.6,1.6-0.9,3.5,1.3,3.5c1.7,0,3-1.4,4.2-3.4L78,35.5c-1.1,0.6-2.4,0.9-3.7,0.9
		c-0.6,0-2-0.1-2.6-0.1c-2,0-3.4,1.2-3.4,2.5c0,0.7,0.3,1.4,1.1,1.8L68.2,42c-1.3-0.7-1.9-1.9-1.9-3.1c0-2.6,2.4-4.5,5.8-4.5
		c0.5,0,1.8,0,2.4,0c2.5,0,4.6-1.2,4.6-1.2l1.2,2.1l0,0l-7.1,12.3c-2,3.5-4.2,4.8-6.5,4.8c-3.6,0-5.4-3.9-2.3-6.6L65.8,47.1z"/>
	<path class="st106" d="M88.6,45.5c0.3,0.1,0.7,0.5,0.9,0.8c-2,2.3-4.2,4.4-6.2,4.4c-1.9,0-2.6-1.6-1.6-3.4l3.1-5.3
		c1-1.7-0.6-2.3-4.2,2.2L77,50.5h-2.4L84,34.1h2.4l-3.8,6.6c1.2-1.2,2.3-1.8,3.3-1.8c1.3,0,2.3,1.3,1.3,3.1l-3.4,6
		c-0.5,0.9-0.2,1.3,0.3,1.3c1,0,2.7-1.6,4.4-3.5L88.6,45.5z"/>
	<path class="st106" d="M90.6,46l-0.2,0.4c-1.1,1.9-0.2,2.8,1.2,2.8c1.7,0,3.8-1.6,5.5-3.5l0.2-0.2c0.3,0.1,0.7,0.5,0.9,0.8
		c-2,2.3-4.6,4.4-7.3,4.4c-2.8,0-4.1-2.3-2.6-4.8l2.5-4.2c1-1.7,2.5-2.7,4.4-2.7s3.2,1.6,1.9,3.8l-0.3,0.6
		C95,46.4,92.2,46.7,90.6,46z M91.3,44.9c0.9,0.3,2.4,0.4,3.5-1.6l0.3-0.6c1.4-2.5-1-2.8-2.4-0.5L91.3,44.9z"/>
	<polygon class="st106" points="53.4,102.7 51.1,102.7 51.1,101.6 57,101.6 57,102.7 54.7,102.7 54.7,113.4 53.4,113.4 	"/>
	<polygon class="st106" points="59.4,106.7 62.6,106.7 62.6,107.8 59.4,107.8 59.4,112.2 63.6,112.2 63.6,113.4 58.1,113.4 
		58.1,101.6 63.5,101.6 63.5,102.7 59.4,102.7 	"/>
	<path class="st106" d="M64.7,101.6h2.6c1,0,2,0,2.8,1.2c0.5,0.8,0.5,1.5,0.5,2.1c0,1.2-0.3,1.8-0.5,2.2c-0.4,0.6-0.8,0.8-1.1,0.9
		l1.9,5.4h-1.4l-1.7-5.2h-1.7v5.2h-1.4L64.7,101.6L64.7,101.6z M66.1,107h1.3c0.6,0,1,0,1.4-0.5c0.4-0.4,0.5-1.1,0.5-1.7
		c0-0.3-0.1-1.1-0.6-1.7c-0.3-0.4-0.7-0.5-1.4-0.5h-1.2V107z"/>
	<path class="st106" d="M72.3,101.6h2.6c1,0,2,0,2.8,1.2c0.5,0.8,0.5,1.5,0.5,2.1c0,1.2-0.3,1.8-0.5,2.2c-0.4,0.6-0.8,0.8-1.1,0.9
		l1.9,5.4h-1.4l-1.7-5.2h-1.8v5.2h-1.3V101.6z M73.6,107h1.3c0.6,0,1,0,1.4-0.5c0.4-0.4,0.5-1.1,0.5-1.7c0-0.3,0-1.1-0.6-1.7
		c-0.3-0.4-0.7-0.5-1.4-0.5h-1.2V107z"/>
	<rect x="79.8" y="101.6" class="st106" width="1.4" height="11.8"/>
	<polygon class="st106" points="84.5,102.7 82.2,102.7 82.2,101.6 88.1,101.6 88.1,102.7 85.8,102.7 85.8,113.4 84.5,113.4 	"/>
	<path class="st106" d="M95.3,107.4c0,2-0.3,3.6-1,4.9c-0.8,1.3-2,1.3-2.4,1.3c-2.4,0-3.5-1.9-3.5-6c0-2.9,0.6-6.2,3.5-6.2
		C94.5,101.3,95.3,104,95.3,107.4z M89.7,107.3c0,4,0.8,5.2,2.1,5.2c1.6,0,2.1-1.8,2.1-5c0-3.3-0.6-5-2.1-5
		C90.4,102.5,89.7,104,89.7,107.3z"/>
	<path class="st106" d="M97.2,101.6h2.6c1,0,2,0,2.8,1.2c0.5,0.8,0.5,1.5,0.5,2.1c0,1.2-0.3,1.8-0.5,2.2c-0.4,0.6-0.8,0.8-1.1,0.9
		l1.9,5.4H102l-1.7-5.2h-1.7v5.2h-1.3v-11.8H97.2z M98.5,107h1.3c0.6,0,1,0,1.4-0.5c0.4-0.4,0.5-1.1,0.5-1.7c0-0.3-0.1-1.1-0.6-1.7
		c-0.3-0.4-0.7-0.5-1.4-0.5h-1.2V107z"/>
	<polygon class="st106" points="106.1,108.4 103.4,101.6 104.8,101.6 106.8,107 108.8,101.6 110.1,101.6 107.4,108.4 107.4,113.4 
		106.1,113.4 	"/>
	<polygon class="st106" points="81.5,135.7 90.1,148.6 98.8,135.7 90.1,122.7 	"/>
	<polygon class="st106" points="62.5,135.7 71.1,148.6 79.8,135.7 71.1,122.7 	"/>
	<path class="st106" d="M83.1,91.6c0.7-1.3,1.3-2.8,1.7-4.4c0.5-2.1,0.8-4.3,0.4-6.5c-0.4-2.2-1.3-4-2.2-5.9c-0.9-1.7-1.8-3.5-2-5.6
		s0.3-4.1,1-5.9c0.4-1,0.9-2,1.5-2.9c-6.2,0.9-11.6,6.8-11.6,15C71.9,84.3,76.5,90.6,83.1,91.6L83.1,91.6z"/>
	<path class="st106" d="M95.2,86.6c2-3,3.1-6.4,3.1-10.3c0-6.5-2.7-11.5-6.8-14c-0.6,0.5-1.2,1-1.8,1.6c-1.2,1.2-2.3,2.8-3,4.6
		c-0.8,1.9-0.8,3.8-0.1,5.8c0.7,2.2,1.4,4.2,1.3,6.7c-0.1,2.2-0.7,4.3-1.5,6.2c-0.8,1.7-1.8,3.3-3,4.6c0.6,0.1,1.2,0.1,1.8,0.1
		c2.6,0,4.7-0.5,6.6-1.9l2.5,3.3h6.7L95.2,86.6z"/>
	<path class="st106" d="M38.8,70.8v-2.4c0-2.7-1.2-3.8-2.6-3.8c-2.2,0-2.9,1.1-2.9,3.5v16c0,2.4,0.7,3.5,2.9,3.5
		c2,0,2.6-1.1,2.6-3.2v-3.8h5.4v3.6c0,4.4-2.6,8.1-8,8.1c-5.7,0-8.3-3.6-8.3-8.1V68c0-4.4,2.6-8.1,8.3-8.1c5.4,0,8,3.9,8,8.6v2.3
		H38.8z"/>
	<rect x="46.9" y="60.3" class="st106" width="5.4" height="31.5"/>
	<path class="st106" d="M60.2,91.8h-5.4V60.3h7.6c6.1,0,9.2,2.6,9.2,9.3c0,5.1-2,7.1-3.8,7.9l4.6,14.3h-5.5l-3.8-13
		c-0.7,0.1-1.8,0.1-2.8,0.1v12.9H60.2z M60.2,74.5h1.9c2.9,0,4-1.1,4-4.8s-1.1-4.8-4-4.8h-1.9V74.5z"/>
	<path class="st106" d="M99.9,60.3h5.4v23.8c0,2.3,0.9,3.4,2.9,3.4s2.9-1.1,2.9-3.4V60.3h5.4v23.5c0,5.4-3.1,8.4-8.3,8.4
		s-8.3-3-8.3-8.4L99.9,60.3L99.9,60.3z"/>
	<polygon class="st106" points="118.2,91.8 118.2,60.3 132.7,60.3 132.7,65.1 123.6,65.1 123.6,73.2 130.6,73.2 130.6,77.9 
		123.6,77.9 123.6,87.1 133.3,87.1 133.3,91.8 	"/>
</g>
</svg>
