<?xml version="1.0" encoding="utf-8"?>
<!-- Generator: Adobe Illustrator 21.1.0, SVG Export Plug-In . SVG Version: 6.00 Build 0)  -->
<svg version="1.1" id="Layer_1" xmlns="http://www.w3.org/2000/svg" xmlns:xlink="http://www.w3.org/1999/xlink" x="0px" y="0px"
	 viewBox="0 0 236.3 206.4" style="enable-background:new 0 0 236.3 206.4;" xml:space="preserve">
<style type="text/css">
	.st0{fill:#8B2332;}
	.st1{clip-path:url(#SVGID_2_);fill:#A93439;}
	.st2{clip-path:url(#SVGID_4_);fill:#A93439;}
	.st3{clip-path:url(#SVGID_6_);fill:#A93439;}
	.st4{clip-path:url(#SVGID_8_);fill:#A93439;}
	.st5{clip-path:url(#SVGID_10_);fill:#A93439;}
	.st6{clip-path:url(#SVGID_12_);fill:#A93439;}
	.st7{clip-path:url(#SVGID_14_);fill:#A93439;}
	.st8{clip-path:url(#SVGID_16_);fill:#A93439;}
	.st9{clip-path:url(#SVGID_18_);fill:#A93439;}
	.st10{clip-path:url(#SVGID_20_);fill:#A93439;}
	.st11{clip-path:url(#SVGID_22_);fill:#A93439;}
	.st12{clip-path:url(#SVGID_24_);fill:#A93439;}
	.st13{clip-path:url(#SVGID_26_);fill:#A93439;}
	.st14{clip-path:url(#SVGID_28_);fill:#A93439;}
	.st15{clip-path:url(#SVGID_30_);fill:#A93439;}
	.st16{clip-path:url(#SVGID_32_);fill:#A93439;}
	.st17{clip-path:url(#SVGID_34_);fill:#A93439;}
	.st18{clip-path:url(#SVGID_36_);fill:#A93439;}
	.st19{clip-path:url(#SVGID_38_);fill:#A93439;}
	.st20{clip-path:url(#SVGID_40_);fill:#A93439;}
	.st21{clip-path:url(#SVGID_42_);fill:#A93439;}
	.st22{clip-path:url(#SVGID_44_);fill:#A93439;}
	.st23{clip-path:url(#SVGID_46_);fill:#A93439;}
	.st24{clip-path:url(#SVGID_48_);fill:#A93439;}
	.st25{clip-path:url(#SVGID_50_);fill:#A93439;}
	.st26{clip-path:url(#SVGID_52_);fill:#A93439;}
	.st27{clip-path:url(#SVGID_54_);fill:#A93439;}
	.st28{clip-path:url(#SVGID_56_);fill:#A93439;}
	.st29{clip-path:url(#SVGID_58_);fill:#A93439;}
	.st30{clip-path:url(#SVGID_60_);fill:#A93439;}
	.st31{clip-path:url(#SVGID_62_);fill:#A93439;}
	.st32{clip-path:url(#SVGID_64_);fill:#A93439;}
	.st33{clip-path:url(#SVGID_66_);fill:#A93439;}
	.st34{clip-path:url(#SVGID_68_);fill:#A93439;}
	.st35{clip-path:url(#SVGID_70_);fill:#A93439;}
	.st36{clip-path:url(#SVGID_72_);fill:#A93439;}
	.st37{clip-path:url(#SVGID_74_);fill:#A93439;}
	.st38{clip-path:url(#SVGID_76_);fill:#A93439;}
	.st39{clip-path:url(#SVGID_78_);fill:#A93439;}
	.st40{clip-path:url(#SVGID_80_);fill:#A93439;}
	.st41{clip-path:url(#SVGID_82_);fill:#A93439;}
	.st42{clip-path:url(#SVGID_84_);fill:#A93439;}
	.st43{clip-path:url(#SVGID_86_);fill:#A93439;}
	.st44{clip-path:url(#SVGID_88_);fill:#A93439;}
	.st45{clip-path:url(#SVGID_90_);fill:#A93439;}
	.st46{clip-path:url(#SVGID_92_);fill:#A93439;}
	.st47{clip-path:url(#SVGID_94_);fill:#A93439;}
	.st48{clip-path:url(#SVGID_96_);fill:#A93439;}
	.st49{clip-path:url(#SVGID_98_);fill:#A93439;}
	.st50{clip-path:url(#SVGID_100_);fill:#A93439;}
	.st51{clip-path:url(#SVGID_102_);fill:#A93439;}
	.st52{clip-path:url(#SVGID_104_);fill:#A93439;}
	.st53{clip-path:url(#SVGID_106_);fill:#A93439;}
	.st54{clip-path:url(#SVGID_108_);fill:#A93439;}
	.st55{clip-path:url(#SVGID_110_);fill:#A93439;}
	.st56{clip-path:url(#SVGID_112_);fill:#A93439;}
	.st57{fill:#FFFFFF;}
</style>
<g>
	<g>
		<path class="st0" d="M117.5,3.9c39.7,0,76.3,5.9,107.3,16c6.7,2.2,8.5,4.9,7,11.8c-4.5,20.2-15.7,72.1-39,112.9
			c-23.4,40.8-48.1,57.8-73.2,57.8S70.5,189.5,45,145.6C19.6,101.7,5.7,41.4,4.3,34.8c-1.4-6.5-1.4-9.6,6.6-12.8
			C42.2,9.5,77,3.9,117.5,3.9z"/>
		<path class="st0" d="M117.5,3.9v3.9c39.3,0,75.5,5.9,106.1,15.8c1.2,0.4,2.1,0.8,2.8,1.1c0.5,0.3,0.9,0.5,1.1,0.7
			c0.4,0.3,0.5,0.5,0.7,0.8c0.1,0.3,0.2,0.7,0.2,1.5s-0.1,1.8-0.4,3.2v0.2v-0.2c-2.3,10.1-6.2,28-12.4,48.4
			c-6.2,20.4-14.8,43.3-26.2,63.3c-11.5,20.1-23.2,34.1-34.9,43c-5.8,4.5-11.7,7.7-17.5,9.8c-5.8,2.1-11.6,3.1-17.4,3.1
			c-5.9,0-11.7-0.8-17.5-2.5c-8.7-2.7-17.3-7.6-26.2-16s-18.1-20.1-27.5-36.4l0,0C35.9,122,26.1,96.2,19.4,75
			c-3.4-10.6-6-20.1-7.9-27.3S8.5,35.5,8.2,34v-0.1V34c-0.4-1.9-0.6-3.3-0.6-4.2c0-0.6,0.1-0.9,0.1-1.1c0.1-0.2,0.1-0.3,0.3-0.5
			c0.2-0.3,0.6-0.6,1.3-1.1c0.7-0.5,1.8-1,3.2-1.6l0,0C43.3,13.2,77.6,7.7,117.7,7.7V3.9V0C76.9,0,41.6,5.6,9.7,18.4l0,0
			c-1.5,0.6-2.9,1.3-4.1,2c-0.9,0.5-1.7,1.1-2.4,1.8c-1.1,1-2,2.3-2.5,3.6C0.2,27.2,0,28.5,0,29.9c0,1.9,0.4,3.8,0.8,5.8l0,0
			c0.4,1.7,1.5,6.8,3.4,14.1c2.9,11,7.5,27.1,13.8,44.6s14.3,36.5,24,53.2l0,0c12.9,22.2,25.6,36.9,38.5,46.1
			c6.5,4.6,13,7.8,19.6,9.8s13.2,2.9,19.8,2.9c6.7,0,13.4-1.1,20-3.5c9.9-3.6,19.6-9.9,29-19.2c9.4-9.3,18.5-21.5,27.4-37
			c11.9-20.8,20.6-44.2,26.9-64.9c6.3-20.8,10.3-38.9,12.5-49l0,0c0.4-1.7,0.6-3.3,0.6-4.9c0-1.4-0.2-2.7-0.7-4.1
			c-0.4-1-0.9-1.9-1.5-2.7c-1-1.2-2.2-2.1-3.5-2.9c-1.3-0.7-2.8-1.3-4.4-1.9C194.8,6.1,157.8,0.1,117.7,0.1v3.8H117.5z"/>
		<g>
			<g>
				<defs>
					<path id="SVGID_1_" d="M117.9,5.1c39.4,0,75.7,5.9,106.5,15.9c6.6,2.2,8.5,4.9,6.9,11.8c-4.5,20.1-15.6,71.6-38.7,112
						c-23.2,40.4-47.7,57.4-72.6,57.4s-48.8-12.8-74-56.3C20.8,102.2,6.9,42.4,5.5,35.9c-1.4-6.6-1.3-9.6,6.6-12.8
						C43.2,10.6,77.8,5.1,117.9,5.1z"/>
				</defs>
				<clipPath id="SVGID_2_">
					<use xlink:href="#SVGID_1_"  style="overflow:visible;"/>
				</clipPath>
				<polyline class="st1" points="118,-34.7 -371.2,201.6 -370.7,202.7 118.6,-33.6 				"/>
			</g>
			<g>
				<defs>
					<path id="SVGID_3_" d="M117.9,5.1c39.4,0,75.7,5.9,106.5,15.9c6.6,2.2,8.5,4.9,6.9,11.8c-4.5,20.1-15.6,71.6-38.7,112
						c-23.2,40.4-47.7,57.4-72.6,57.4s-48.8-12.8-74-56.3C20.8,102.2,6.9,42.4,5.5,35.9c-1.4-6.6-1.3-9.6,6.6-12.8
						C43.2,10.6,77.8,5.1,117.9,5.1z"/>
				</defs>
				<clipPath id="SVGID_4_">
					<use xlink:href="#SVGID_3_"  style="overflow:visible;"/>
				</clipPath>
				<polyline class="st2" points="118,-34.7 -353.6,203.7 -353,204.9 118.6,-33.6 				"/>
			</g>
			<g>
				<defs>
					<path id="SVGID_5_" d="M117.9,5.1c39.4,0,75.7,5.9,106.5,15.9c6.6,2.2,8.5,4.9,6.9,11.8c-4.5,20.1-15.6,71.6-38.7,112
						c-23.2,40.4-47.7,57.4-72.6,57.4s-48.8-12.8-74-56.3C20.8,102.2,6.9,42.4,5.5,35.9c-1.4-6.6-1.3-9.6,6.6-12.8
						C43.2,10.6,77.8,5.1,117.9,5.1z"/>
				</defs>
				<clipPath id="SVGID_6_">
					<use xlink:href="#SVGID_5_"  style="overflow:visible;"/>
				</clipPath>
				<polyline class="st3" points="118,-34.7 -335.9,203.7 -335.3,204.8 118.6,-33.6 				"/>
			</g>
			<g>
				<defs>
					<path id="SVGID_7_" d="M117.9,5.1c39.4,0,75.7,5.9,106.5,15.9c6.6,2.2,8.5,4.9,6.9,11.8c-4.5,20.1-15.6,71.6-38.7,112
						c-23.2,40.4-47.7,57.4-72.6,57.4s-48.8-12.8-74-56.3C20.8,102.2,6.9,42.4,5.5,35.9c-1.4-6.6-1.3-9.6,6.6-12.8
						C43.2,10.6,77.8,5.1,117.9,5.1z"/>
				</defs>
				<clipPath id="SVGID_8_">
					<use xlink:href="#SVGID_7_"  style="overflow:visible;"/>
				</clipPath>
				<polyline class="st4" points="118,-34.7 -318.3,203.7 -317.7,204.8 118.6,-33.6 				"/>
			</g>
			<g>
				<defs>
					<path id="SVGID_9_" d="M117.9,5.1c39.4,0,75.7,5.9,106.5,15.9c6.6,2.2,8.5,4.9,6.9,11.8c-4.5,20.1-15.6,71.6-38.7,112
						c-23.2,40.4-47.7,57.4-72.6,57.4s-48.8-12.8-74-56.3C20.8,102.2,6.9,42.4,5.5,35.9c-1.4-6.6-1.3-9.6,6.6-12.8
						C43.2,10.6,77.8,5.1,117.9,5.1z"/>
				</defs>
				<clipPath id="SVGID_10_">
					<use xlink:href="#SVGID_9_"  style="overflow:visible;"/>
				</clipPath>
				<polyline class="st5" points="118,-34.7 -300.7,203.7 -300,204.8 118.6,-33.6 				"/>
			</g>
			<g>
				<defs>
					<path id="SVGID_11_" d="M117.9,5.1c39.4,0,75.7,5.9,106.5,15.9c6.6,2.2,8.5,4.9,6.9,11.8c-4.5,20.1-15.6,71.6-38.7,112
						c-23.2,40.4-47.7,57.4-72.6,57.4s-48.8-12.8-74-56.3C20.8,102.2,6.9,42.4,5.5,35.9c-1.4-6.6-1.3-9.6,6.6-12.8
						C43.2,10.6,77.8,5.1,117.9,5.1z"/>
				</defs>
				<clipPath id="SVGID_12_">
					<use xlink:href="#SVGID_11_"  style="overflow:visible;"/>
				</clipPath>
				<polyline class="st6" points="118,-34.7 -283,203.7 -282.4,204.8 118.7,-33.6 				"/>
			</g>
			<g>
				<defs>
					<path id="SVGID_13_" d="M117.9,5.1c39.4,0,75.7,5.9,106.5,15.9c6.6,2.2,8.5,4.9,6.9,11.8c-4.5,20.1-15.6,71.6-38.7,112
						c-23.2,40.4-47.7,57.4-72.6,57.4s-48.8-12.8-74-56.3C20.8,102.2,6.9,42.4,5.5,35.9c-1.4-6.6-1.3-9.6,6.6-12.8
						C43.2,10.6,77.8,5.1,117.9,5.1z"/>
				</defs>
				<clipPath id="SVGID_14_">
					<use xlink:href="#SVGID_13_"  style="overflow:visible;"/>
				</clipPath>
				<polyline class="st7" points="118,-34.7 -265.4,203.7 -264.7,204.8 118.7,-33.6 				"/>
			</g>
			<g>
				<defs>
					<path id="SVGID_15_" d="M117.9,5.1c39.4,0,75.7,5.9,106.5,15.9c6.6,2.2,8.5,4.9,6.9,11.8c-4.5,20.1-15.6,71.6-38.7,112
						c-23.2,40.4-47.7,57.4-72.6,57.4s-48.8-12.8-74-56.3C20.8,102.2,6.9,42.4,5.5,35.9c-1.4-6.6-1.3-9.6,6.6-12.8
						C43.2,10.6,77.8,5.1,117.9,5.1z"/>
				</defs>
				<clipPath id="SVGID_16_">
					<use xlink:href="#SVGID_15_"  style="overflow:visible;"/>
				</clipPath>
				<polyline class="st8" points="118,-34.7 -247.8,203.7 -247.1,204.8 118.7,-33.6 				"/>
			</g>
			<g>
				<defs>
					<path id="SVGID_17_" d="M117.9,5.1c39.4,0,75.7,5.9,106.5,15.9c6.6,2.2,8.5,4.9,6.9,11.8c-4.5,20.1-15.6,71.6-38.7,112
						c-23.2,40.4-47.7,57.4-72.6,57.4s-48.8-12.8-74-56.3C20.8,102.2,6.9,42.4,5.5,35.9c-1.4-6.6-1.3-9.6,6.6-12.8
						C43.2,10.6,77.8,5.1,117.9,5.1z"/>
				</defs>
				<clipPath id="SVGID_18_">
					<use xlink:href="#SVGID_17_"  style="overflow:visible;"/>
				</clipPath>
				<polyline class="st9" points="118,-34.7 -230.1,203.7 -229.4,204.8 118.7,-33.6 				"/>
			</g>
			<g>
				<defs>
					<path id="SVGID_19_" d="M117.9,5.1c39.4,0,75.7,5.9,106.5,15.9c6.6,2.2,8.5,4.9,6.9,11.8c-4.5,20.1-15.6,71.6-38.7,112
						c-23.2,40.4-47.7,57.4-72.6,57.4s-48.8-12.8-74-56.3C20.8,102.2,6.9,42.4,5.5,35.9c-1.4-6.6-1.3-9.6,6.6-12.8
						C43.2,10.6,77.8,5.1,117.9,5.1z"/>
				</defs>
				<clipPath id="SVGID_20_">
					<use xlink:href="#SVGID_19_"  style="overflow:visible;"/>
				</clipPath>
				<polyline class="st10" points="118,-34.7 -212.5,203.8 -211.7,204.8 118.7,-33.6 				"/>
			</g>
			<g>
				<defs>
					<path id="SVGID_21_" d="M117.9,5.1c39.4,0,75.7,5.9,106.5,15.9c6.6,2.2,8.5,4.9,6.9,11.8c-4.5,20.1-15.6,71.6-38.7,112
						c-23.2,40.4-47.7,57.4-72.6,57.4s-48.8-12.8-74-56.3C20.8,102.2,6.9,42.4,5.5,35.9c-1.4-6.6-1.3-9.6,6.6-12.8
						C43.2,10.6,77.8,5.1,117.9,5.1z"/>
				</defs>
				<clipPath id="SVGID_22_">
					<use xlink:href="#SVGID_21_"  style="overflow:visible;"/>
				</clipPath>
				<polyline class="st11" points="117.9,-34.7 -194.9,203.8 -194.1,204.8 118.7,-33.6 				"/>
			</g>
			<g>
				<defs>
					<path id="SVGID_23_" d="M117.9,5.1c39.4,0,75.7,5.9,106.5,15.9c6.6,2.2,8.5,4.9,6.9,11.8c-4.5,20.1-15.6,71.6-38.7,112
						c-23.2,40.4-47.7,57.4-72.6,57.4s-48.8-12.8-74-56.3C20.8,102.2,6.9,42.4,5.5,35.9c-1.4-6.6-1.3-9.6,6.6-12.8
						C43.2,10.6,77.8,5.1,117.9,5.1z"/>
				</defs>
				<clipPath id="SVGID_24_">
					<use xlink:href="#SVGID_23_"  style="overflow:visible;"/>
				</clipPath>
				<polyline class="st12" points="117.9,-34.7 -177.2,203.8 -176.4,204.8 118.7,-33.7 				"/>
			</g>
			<g>
				<defs>
					<path id="SVGID_25_" d="M117.9,5.1c39.4,0,75.7,5.9,106.5,15.9c6.6,2.2,8.5,4.9,6.9,11.8c-4.5,20.1-15.6,71.6-38.7,112
						c-23.2,40.4-47.7,57.4-72.6,57.4s-48.8-12.8-74-56.3C20.8,102.2,6.9,42.4,5.5,35.9c-1.4-6.6-1.3-9.6,6.6-12.8
						C43.2,10.6,77.8,5.1,117.9,5.1z"/>
				</defs>
				<clipPath id="SVGID_26_">
					<use xlink:href="#SVGID_25_"  style="overflow:visible;"/>
				</clipPath>
				<polyline class="st13" points="117.9,-34.6 -159.6,203.8 -158.8,204.8 118.7,-33.7 				"/>
			</g>
			<g>
				<defs>
					<path id="SVGID_27_" d="M117.9,5.1c39.4,0,75.7,5.9,106.5,15.9c6.6,2.2,8.5,4.9,6.9,11.8c-4.5,20.1-15.6,71.6-38.7,112
						c-23.2,40.4-47.7,57.4-72.6,57.4s-48.8-12.8-74-56.3C20.8,102.2,6.9,42.4,5.5,35.9c-1.4-6.6-1.3-9.6,6.6-12.8
						C43.2,10.6,77.8,5.1,117.9,5.1z"/>
				</defs>
				<clipPath id="SVGID_28_">
					<use xlink:href="#SVGID_27_"  style="overflow:visible;"/>
				</clipPath>
				<polyline class="st14" points="117.9,-34.6 -142,203.8 -141.1,204.8 118.8,-33.7 				"/>
			</g>
			<g>
				<defs>
					<path id="SVGID_29_" d="M117.9,5.1c39.4,0,75.7,5.9,106.5,15.9c6.6,2.2,8.5,4.9,6.9,11.8c-4.5,20.1-15.6,71.6-38.7,112
						c-23.2,40.4-47.7,57.4-72.6,57.4s-48.8-12.8-74-56.3C20.8,102.2,6.9,42.4,5.5,35.9c-1.4-6.6-1.3-9.6,6.6-12.8
						C43.2,10.6,77.8,5.1,117.9,5.1z"/>
				</defs>
				<clipPath id="SVGID_30_">
					<use xlink:href="#SVGID_29_"  style="overflow:visible;"/>
				</clipPath>
				<polyline class="st15" points="117.9,-34.6 -124.3,203.8 -123.4,204.7 118.8,-33.7 				"/>
			</g>
			<g>
				<defs>
					<path id="SVGID_31_" d="M117.9,5.1c39.4,0,75.7,5.9,106.5,15.9c6.6,2.2,8.5,4.9,6.9,11.8c-4.5,20.1-15.6,71.6-38.7,112
						c-23.2,40.4-47.7,57.4-72.6,57.4s-48.8-12.8-74-56.3C20.8,102.2,6.9,42.4,5.5,35.9c-1.4-6.6-1.3-9.6,6.6-12.8
						C43.2,10.6,77.8,5.1,117.9,5.1z"/>
				</defs>
				<clipPath id="SVGID_32_">
					<use xlink:href="#SVGID_31_"  style="overflow:visible;"/>
				</clipPath>
				<polyline class="st16" points="117.9,-34.6 -106.7,203.8 -105.8,204.7 118.8,-33.7 				"/>
			</g>
			<g>
				<defs>
					<path id="SVGID_33_" d="M117.9,5.1c39.4,0,75.7,5.9,106.5,15.9c6.6,2.2,8.5,4.9,6.9,11.8c-4.5,20.1-15.6,71.6-38.7,112
						c-23.2,40.4-47.7,57.4-72.6,57.4s-48.8-12.8-74-56.3C20.8,102.2,6.9,42.4,5.5,35.9c-1.4-6.6-1.3-9.6,6.6-12.8
						C43.2,10.6,77.8,5.1,117.9,5.1z"/>
				</defs>
				<clipPath id="SVGID_34_">
					<use xlink:href="#SVGID_33_"  style="overflow:visible;"/>
				</clipPath>
				<polyline class="st17" points="117.8,-34.6 -89.1,203.9 -88.1,204.7 118.8,-33.7 				"/>
			</g>
			<g>
				<defs>
					<path id="SVGID_35_" d="M117.9,5.1c39.4,0,75.7,5.9,106.5,15.9c6.6,2.2,8.5,4.9,6.9,11.8c-4.5,20.1-15.6,71.6-38.7,112
						c-23.2,40.4-47.7,57.4-72.6,57.4s-48.8-12.8-74-56.3C20.8,102.2,6.9,42.4,5.5,35.9c-1.4-6.6-1.3-9.6,6.6-12.8
						C43.2,10.6,77.8,5.1,117.9,5.1z"/>
				</defs>
				<clipPath id="SVGID_36_">
					<use xlink:href="#SVGID_35_"  style="overflow:visible;"/>
				</clipPath>
				<polyline class="st18" points="117.8,-34.6 -71.5,203.9 -70.5,204.7 118.8,-33.8 				"/>
			</g>
			<g>
				<defs>
					<path id="SVGID_37_" d="M117.9,5.1c39.4,0,75.7,5.9,106.5,15.9c6.6,2.2,8.5,4.9,6.9,11.8c-4.5,20.1-15.6,71.6-38.7,112
						c-23.2,40.4-47.7,57.4-72.6,57.4s-48.8-12.8-74-56.3C20.8,102.2,6.9,42.4,5.5,35.9c-1.4-6.6-1.3-9.6,6.6-12.8
						C43.2,10.6,77.8,5.1,117.9,5.1z"/>
				</defs>
				<clipPath id="SVGID_38_">
					<use xlink:href="#SVGID_37_"  style="overflow:visible;"/>
				</clipPath>
				<polyline class="st19" points="117.8,-34.5 -53.8,203.9 -52.8,204.7 118.8,-33.8 				"/>
			</g>
			<g>
				<defs>
					<path id="SVGID_39_" d="M117.9,5.1c39.4,0,75.7,5.9,106.5,15.9c6.6,2.2,8.5,4.9,6.9,11.8c-4.5,20.1-15.6,71.6-38.7,112
						c-23.2,40.4-47.7,57.4-72.6,57.4s-48.8-12.8-74-56.3C20.8,102.2,6.9,42.4,5.5,35.9c-1.4-6.6-1.3-9.6,6.6-12.8
						C43.2,10.6,77.8,5.1,117.9,5.1z"/>
				</defs>
				<clipPath id="SVGID_40_">
					<use xlink:href="#SVGID_39_"  style="overflow:visible;"/>
				</clipPath>
				<polyline class="st20" points="117.8,-34.5 -36.2,203.9 -35.1,204.6 118.9,-33.8 				"/>
			</g>
			<g>
				<defs>
					<path id="SVGID_41_" d="M117.9,5.1c39.4,0,75.7,5.9,106.5,15.9c6.6,2.2,8.5,4.9,6.9,11.8c-4.5,20.1-15.6,71.6-38.7,112
						c-23.2,40.4-47.7,57.4-72.6,57.4s-48.8-12.8-74-56.3C20.8,102.2,6.9,42.4,5.5,35.9c-1.4-6.6-1.3-9.6,6.6-12.8
						C43.2,10.6,77.8,5.1,117.9,5.1z"/>
				</defs>
				<clipPath id="SVGID_42_">
					<use xlink:href="#SVGID_41_"  style="overflow:visible;"/>
				</clipPath>
				<polyline class="st21" points="117.8,-34.5 -18.6,204 -17.5,204.6 118.9,-33.8 				"/>
			</g>
			<g>
				<defs>
					<path id="SVGID_43_" d="M117.9,5.1c39.4,0,75.7,5.9,106.5,15.9c6.6,2.2,8.5,4.9,6.9,11.8c-4.5,20.1-15.6,71.6-38.7,112
						c-23.2,40.4-47.7,57.4-72.6,57.4s-48.8-12.8-74-56.3C20.8,102.2,6.9,42.4,5.5,35.9c-1.4-6.6-1.3-9.6,6.6-12.8
						C43.2,10.6,77.8,5.1,117.9,5.1z"/>
				</defs>
				<clipPath id="SVGID_44_">
					<use xlink:href="#SVGID_43_"  style="overflow:visible;"/>
				</clipPath>
				<polyline class="st22" points="117.8,-34.4 -1,204 0.2,204.6 118.9,-33.9 				"/>
			</g>
			<g>
				<defs>
					<path id="SVGID_45_" d="M117.9,5.1c39.4,0,75.7,5.9,106.5,15.9c6.6,2.2,8.5,4.9,6.9,11.8c-4.5,20.1-15.6,71.6-38.7,112
						c-23.2,40.4-47.7,57.4-72.6,57.4s-48.8-12.8-74-56.3C20.8,102.2,6.9,42.4,5.5,35.9c-1.4-6.6-1.3-9.6,6.6-12.8
						C43.2,10.6,77.8,5.1,117.9,5.1z"/>
				</defs>
				<clipPath id="SVGID_46_">
					<use xlink:href="#SVGID_45_"  style="overflow:visible;"/>
				</clipPath>
				<polyline class="st23" points="117.7,-34.4 16.7,204 17.9,204.5 118.9,-33.9 				"/>
			</g>
			<g>
				<defs>
					<path id="SVGID_47_" d="M117.9,5.1c39.4,0,75.7,5.9,106.5,15.9c6.6,2.2,8.5,4.9,6.9,11.8c-4.5,20.1-15.6,71.6-38.7,112
						c-23.2,40.4-47.7,57.4-72.6,57.4s-48.8-12.8-74-56.3C20.8,102.2,6.9,42.4,5.5,35.9c-1.4-6.6-1.3-9.6,6.6-12.8
						C43.2,10.6,77.8,5.1,117.9,5.1z"/>
				</defs>
				<clipPath id="SVGID_48_">
					<use xlink:href="#SVGID_47_"  style="overflow:visible;"/>
				</clipPath>
				<polyline class="st24" points="117.7,-34.4 34.3,204.1 35.5,204.5 118.9,-33.9 				"/>
			</g>
			<g>
				<defs>
					<path id="SVGID_49_" d="M117.9,5.1c39.4,0,75.7,5.9,106.5,15.9c6.6,2.2,8.5,4.9,6.9,11.8c-4.5,20.1-15.6,71.6-38.7,112
						c-23.2,40.4-47.7,57.4-72.6,57.4s-48.8-12.8-74-56.3C20.8,102.2,6.9,42.4,5.5,35.9c-1.4-6.6-1.3-9.6,6.6-12.8
						C43.2,10.6,77.8,5.1,117.9,5.1z"/>
				</defs>
				<clipPath id="SVGID_50_">
					<use xlink:href="#SVGID_49_"  style="overflow:visible;"/>
				</clipPath>
				<polyline class="st25" points="117.7,-34.3 51.9,204.1 53.2,204.4 118.9,-34 				"/>
			</g>
			<g>
				<defs>
					<path id="SVGID_51_" d="M117.9,5.1c39.4,0,75.7,5.9,106.5,15.9c6.6,2.2,8.5,4.9,6.9,11.8c-4.5,20.1-15.6,71.6-38.7,112
						c-23.2,40.4-47.7,57.4-72.6,57.4s-48.8-12.8-74-56.3C20.8,102.2,6.9,42.4,5.5,35.9c-1.4-6.6-1.3-9.6,6.6-12.8
						C43.2,10.6,77.8,5.1,117.9,5.1z"/>
				</defs>
				<clipPath id="SVGID_52_">
					<use xlink:href="#SVGID_51_"  style="overflow:visible;"/>
				</clipPath>
				<polyline class="st26" points="117.7,-34.3 69.6,204.1 70.8,204.4 119,-34 				"/>
			</g>
			<g>
				<defs>
					<path id="SVGID_53_" d="M117.9,5.1c39.4,0,75.7,5.9,106.5,15.9c6.6,2.2,8.5,4.9,6.9,11.8c-4.5,20.1-15.6,71.6-38.7,112
						c-23.2,40.4-47.7,57.4-72.6,57.4s-48.8-12.8-74-56.3C20.8,102.2,6.9,42.4,5.5,35.9c-1.4-6.6-1.3-9.6,6.6-12.8
						C43.2,10.6,77.8,5.1,117.9,5.1z"/>
				</defs>
				<clipPath id="SVGID_54_">
					<use xlink:href="#SVGID_53_"  style="overflow:visible;"/>
				</clipPath>
				<polyline class="st27" points="117.7,-34.2 87.2,204.2 88.5,204.4 119,-34.1 				"/>
			</g>
			<g>
				<defs>
					<path id="SVGID_55_" d="M117.9,5.1c39.4,0,75.7,5.9,106.5,15.9c6.6,2.2,8.5,4.9,6.9,11.8c-4.5,20.1-15.6,71.6-38.7,112
						c-23.2,40.4-47.7,57.4-72.6,57.4s-48.8-12.8-74-56.3C20.8,102.2,6.9,42.4,5.5,35.9c-1.4-6.6-1.3-9.6,6.6-12.8
						C43.2,10.6,77.8,5.1,117.9,5.1z"/>
				</defs>
				<clipPath id="SVGID_56_">
					<use xlink:href="#SVGID_55_"  style="overflow:visible;"/>
				</clipPath>
				<polyline class="st28" points="117.7,-34.2 104.9,204.2 106.1,204.3 119,-34.1 				"/>
			</g>
			<g>
				<defs>
					<path id="SVGID_57_" d="M117.9,5.1c39.4,0,75.7,5.9,106.5,15.9c6.6,2.2,8.5,4.9,6.9,11.8c-4.5,20.1-15.6,71.6-38.7,112
						c-23.2,40.4-47.7,57.4-72.6,57.4s-48.8-12.8-74-56.3C20.8,102.2,6.9,42.4,5.5,35.9c-1.4-6.6-1.3-9.6,6.6-12.8
						C43.2,10.6,77.8,5.1,117.9,5.1z"/>
				</defs>
				<clipPath id="SVGID_58_">
					<use xlink:href="#SVGID_57_"  style="overflow:visible;"/>
				</clipPath>
				<polyline class="st29" points="117.7,-34.1 122.5,204.3 123.8,204.3 119,-34.2 				"/>
			</g>
			<g>
				<defs>
					<path id="SVGID_59_" d="M117.9,5.1c39.4,0,75.7,5.9,106.5,15.9c6.6,2.2,8.5,4.9,6.9,11.8c-4.5,20.1-15.6,71.6-38.7,112
						c-23.2,40.4-47.7,57.4-72.6,57.4s-48.8-12.8-74-56.3C20.8,102.2,6.9,42.4,5.5,35.9c-1.4-6.6-1.3-9.6,6.6-12.8
						C43.2,10.6,77.8,5.1,117.9,5.1z"/>
				</defs>
				<clipPath id="SVGID_60_">
					<use xlink:href="#SVGID_59_"  style="overflow:visible;"/>
				</clipPath>
				<polyline class="st30" points="117.7,-34.1 140.1,204.3 141.4,204.2 119,-34.2 				"/>
			</g>
			<g>
				<defs>
					<path id="SVGID_61_" d="M117.9,5.1c39.4,0,75.7,5.9,106.5,15.9c6.6,2.2,8.5,4.9,6.9,11.8c-4.5,20.1-15.6,71.6-38.7,112
						c-23.2,40.4-47.7,57.4-72.6,57.4s-48.8-12.8-74-56.3C20.8,102.2,6.9,42.4,5.5,35.9c-1.4-6.6-1.3-9.6,6.6-12.8
						C43.2,10.6,77.8,5.1,117.9,5.1z"/>
				</defs>
				<clipPath id="SVGID_62_">
					<use xlink:href="#SVGID_61_"  style="overflow:visible;"/>
				</clipPath>
				<polyline class="st31" points="117.7,-34 157.8,204.4 159.1,204.2 119,-34.3 				"/>
			</g>
			<g>
				<defs>
					<path id="SVGID_63_" d="M117.9,5.1c39.4,0,75.7,5.9,106.5,15.9c6.6,2.2,8.5,4.9,6.9,11.8c-4.5,20.1-15.6,71.6-38.7,112
						c-23.2,40.4-47.7,57.4-72.6,57.4s-48.8-12.8-74-56.3C20.8,102.2,6.9,42.4,5.5,35.9c-1.4-6.6-1.3-9.6,6.6-12.8
						C43.2,10.6,77.8,5.1,117.9,5.1z"/>
				</defs>
				<clipPath id="SVGID_64_">
					<use xlink:href="#SVGID_63_"  style="overflow:visible;"/>
				</clipPath>
				<polyline class="st32" points="117.7,-34 175.5,204.4 176.7,204.1 119,-34.3 				"/>
			</g>
			<g>
				<defs>
					<path id="SVGID_65_" d="M117.9,5.1c39.4,0,75.7,5.9,106.5,15.9c6.6,2.2,8.5,4.9,6.9,11.8c-4.5,20.1-15.6,71.6-38.7,112
						c-23.2,40.4-47.7,57.4-72.6,57.4s-48.8-12.8-74-56.3C20.8,102.2,6.9,42.4,5.5,35.9c-1.4-6.6-1.3-9.6,6.6-12.8
						C43.2,10.6,77.8,5.1,117.9,5.1z"/>
				</defs>
				<clipPath id="SVGID_66_">
					<use xlink:href="#SVGID_65_"  style="overflow:visible;"/>
				</clipPath>
				<polyline class="st33" points="117.7,-34 193.1,204.5 194.3,204.1 118.9,-34.3 				"/>
			</g>
			<g>
				<defs>
					<path id="SVGID_67_" d="M117.9,5.1c39.4,0,75.7,5.9,106.5,15.9c6.6,2.2,8.5,4.9,6.9,11.8c-4.5,20.1-15.6,71.6-38.7,112
						c-23.2,40.4-47.7,57.4-72.6,57.4s-48.8-12.8-74-56.3C20.8,102.2,6.9,42.4,5.5,35.9c-1.4-6.6-1.3-9.6,6.6-12.8
						C43.2,10.6,77.8,5.1,117.9,5.1z"/>
				</defs>
				<clipPath id="SVGID_68_">
					<use xlink:href="#SVGID_67_"  style="overflow:visible;"/>
				</clipPath>
				<polyline class="st34" points="117.7,-33.9 210.8,204.5 212,204 118.9,-34.4 				"/>
			</g>
			<g>
				<defs>
					<path id="SVGID_69_" d="M117.9,5.1c39.4,0,75.7,5.9,106.5,15.9c6.6,2.2,8.5,4.9,6.9,11.8c-4.5,20.1-15.6,71.6-38.7,112
						c-23.2,40.4-47.7,57.4-72.6,57.4s-48.8-12.8-74-56.3C20.8,102.2,6.9,42.4,5.5,35.9c-1.4-6.6-1.3-9.6,6.6-12.8
						C43.2,10.6,77.8,5.1,117.9,5.1z"/>
				</defs>
				<clipPath id="SVGID_70_">
					<use xlink:href="#SVGID_69_"  style="overflow:visible;"/>
				</clipPath>
				<polyline class="st35" points="117.7,-33.9 228.4,204.5 229.6,204 118.9,-34.4 				"/>
			</g>
			<g>
				<defs>
					<path id="SVGID_71_" d="M117.9,5.1c39.4,0,75.7,5.9,106.5,15.9c6.6,2.2,8.5,4.9,6.9,11.8c-4.5,20.1-15.6,71.6-38.7,112
						c-23.2,40.4-47.7,57.4-72.6,57.4s-48.8-12.8-74-56.3C20.8,102.2,6.9,42.4,5.5,35.9c-1.4-6.6-1.3-9.6,6.6-12.8
						C43.2,10.6,77.8,5.1,117.9,5.1z"/>
				</defs>
				<clipPath id="SVGID_72_">
					<use xlink:href="#SVGID_71_"  style="overflow:visible;"/>
				</clipPath>
				<polyline class="st36" points="117.8,-33.8 246.1,204.6 247.2,204 118.9,-34.5 				"/>
			</g>
			<g>
				<defs>
					<path id="SVGID_73_" d="M117.9,5.1c39.4,0,75.7,5.9,106.5,15.9c6.6,2.2,8.5,4.9,6.9,11.8c-4.5,20.1-15.6,71.6-38.7,112
						c-23.2,40.4-47.7,57.4-72.6,57.4s-48.8-12.8-74-56.3C20.8,102.2,6.9,42.4,5.5,35.9c-1.4-6.6-1.3-9.6,6.6-12.8
						C43.2,10.6,77.8,5.1,117.9,5.1z"/>
				</defs>
				<clipPath id="SVGID_74_">
					<use xlink:href="#SVGID_73_"  style="overflow:visible;"/>
				</clipPath>
				<polyline class="st37" points="117.8,-33.8 263.8,204.6 264.9,203.9 118.9,-34.5 				"/>
			</g>
			<g>
				<defs>
					<path id="SVGID_75_" d="M117.9,5.1c39.4,0,75.7,5.9,106.5,15.9c6.6,2.2,8.5,4.9,6.9,11.8c-4.5,20.1-15.6,71.6-38.7,112
						c-23.2,40.4-47.7,57.4-72.6,57.4s-48.8-12.8-74-56.3C20.8,102.2,6.9,42.4,5.5,35.9c-1.4-6.6-1.3-9.6,6.6-12.8
						C43.2,10.6,77.8,5.1,117.9,5.1z"/>
				</defs>
				<clipPath id="SVGID_76_">
					<use xlink:href="#SVGID_75_"  style="overflow:visible;"/>
				</clipPath>
				<polyline class="st38" points="117.8,-33.8 281.4,204.6 282.5,203.9 118.9,-34.5 				"/>
			</g>
			<g>
				<defs>
					<path id="SVGID_77_" d="M117.9,5.1c39.4,0,75.7,5.9,106.5,15.9c6.6,2.2,8.5,4.9,6.9,11.8c-4.5,20.1-15.6,71.6-38.7,112
						c-23.2,40.4-47.7,57.4-72.6,57.4s-48.8-12.8-74-56.3C20.8,102.2,6.9,42.4,5.5,35.9c-1.4-6.6-1.3-9.6,6.6-12.8
						C43.2,10.6,77.8,5.1,117.9,5.1z"/>
				</defs>
				<clipPath id="SVGID_78_">
					<use xlink:href="#SVGID_77_"  style="overflow:visible;"/>
				</clipPath>
				<polyline class="st39" points="117.8,-33.8 299.1,204.7 300.1,203.9 118.8,-34.5 				"/>
			</g>
			<g>
				<defs>
					<path id="SVGID_79_" d="M117.9,5.1c39.4,0,75.7,5.9,106.5,15.9c6.6,2.2,8.5,4.9,6.9,11.8c-4.5,20.1-15.6,71.6-38.7,112
						c-23.2,40.4-47.7,57.4-72.6,57.4s-48.8-12.8-74-56.3C20.8,102.2,6.9,42.4,5.5,35.9c-1.4-6.6-1.3-9.6,6.6-12.8
						C43.2,10.6,77.8,5.1,117.9,5.1z"/>
				</defs>
				<clipPath id="SVGID_80_">
					<use xlink:href="#SVGID_79_"  style="overflow:visible;"/>
				</clipPath>
				<polyline class="st40" points="117.8,-33.7 316.8,204.7 317.7,203.9 118.8,-34.6 				"/>
			</g>
			<g>
				<defs>
					<path id="SVGID_81_" d="M117.9,5.1c39.4,0,75.7,5.9,106.5,15.9c6.6,2.2,8.5,4.9,6.9,11.8c-4.5,20.1-15.6,71.6-38.7,112
						c-23.2,40.4-47.7,57.4-72.6,57.4s-48.8-12.8-74-56.3C20.8,102.2,6.9,42.4,5.5,35.9c-1.4-6.6-1.3-9.6,6.6-12.8
						C43.2,10.6,77.8,5.1,117.9,5.1z"/>
				</defs>
				<clipPath id="SVGID_82_">
					<use xlink:href="#SVGID_81_"  style="overflow:visible;"/>
				</clipPath>
				<polyline class="st41" points="117.9,-33.7 334.4,204.7 335.4,203.8 118.8,-34.6 				"/>
			</g>
			<g>
				<defs>
					<path id="SVGID_83_" d="M117.9,5.1c39.4,0,75.7,5.9,106.5,15.9c6.6,2.2,8.5,4.9,6.9,11.8c-4.5,20.1-15.6,71.6-38.7,112
						c-23.2,40.4-47.7,57.4-72.6,57.4s-48.8-12.8-74-56.3C20.8,102.2,6.9,42.4,5.5,35.9c-1.4-6.6-1.3-9.6,6.6-12.8
						C43.2,10.6,77.8,5.1,117.9,5.1z"/>
				</defs>
				<clipPath id="SVGID_84_">
					<use xlink:href="#SVGID_83_"  style="overflow:visible;"/>
				</clipPath>
				<polyline class="st42" points="117.9,-33.7 352.1,204.7 353,203.8 118.8,-34.6 				"/>
			</g>
			<g>
				<defs>
					<path id="SVGID_85_" d="M117.9,5.1c39.4,0,75.7,5.9,106.5,15.9c6.6,2.2,8.5,4.9,6.9,11.8c-4.5,20.1-15.6,71.6-38.7,112
						c-23.2,40.4-47.7,57.4-72.6,57.4s-48.8-12.8-74-56.3C20.8,102.2,6.9,42.4,5.5,35.9c-1.4-6.6-1.3-9.6,6.6-12.8
						C43.2,10.6,77.8,5.1,117.9,5.1z"/>
				</defs>
				<clipPath id="SVGID_86_">
					<use xlink:href="#SVGID_85_"  style="overflow:visible;"/>
				</clipPath>
				<polyline class="st43" points="117.9,-33.7 369.7,204.7 370.6,203.8 118.8,-34.6 				"/>
			</g>
			<g>
				<defs>
					<path id="SVGID_87_" d="M117.9,5.1c39.4,0,75.7,5.9,106.5,15.9c6.6,2.2,8.5,4.9,6.9,11.8c-4.5,20.1-15.6,71.6-38.7,112
						c-23.2,40.4-47.7,57.4-72.6,57.4s-48.8-12.8-74-56.3C20.8,102.2,6.9,42.4,5.5,35.9c-1.4-6.6-1.3-9.6,6.6-12.8
						C43.2,10.6,77.8,5.1,117.9,5.1z"/>
				</defs>
				<clipPath id="SVGID_88_">
					<use xlink:href="#SVGID_87_"  style="overflow:visible;"/>
				</clipPath>
				<polyline class="st44" points="117.9,-33.7 387.4,204.8 388.2,203.8 118.8,-34.6 				"/>
			</g>
			<g>
				<defs>
					<path id="SVGID_89_" d="M117.9,5.1c39.4,0,75.7,5.9,106.5,15.9c6.6,2.2,8.5,4.9,6.9,11.8c-4.5,20.1-15.6,71.6-38.7,112
						c-23.2,40.4-47.7,57.4-72.6,57.4s-48.8-12.8-74-56.3C20.8,102.2,6.9,42.4,5.5,35.9c-1.4-6.6-1.3-9.6,6.6-12.8
						C43.2,10.6,77.8,5.1,117.9,5.1z"/>
				</defs>
				<clipPath id="SVGID_90_">
					<use xlink:href="#SVGID_89_"  style="overflow:visible;"/>
				</clipPath>
				<polyline class="st45" points="117.9,-33.7 405.1,204.8 405.9,203.8 118.7,-34.6 				"/>
			</g>
			<g>
				<defs>
					<path id="SVGID_91_" d="M117.9,5.1c39.4,0,75.7,5.9,106.5,15.9c6.6,2.2,8.5,4.9,6.9,11.8c-4.5,20.1-15.6,71.6-38.7,112
						c-23.2,40.4-47.7,57.4-72.6,57.4s-48.8-12.8-74-56.3C20.8,102.2,6.9,42.4,5.5,35.9c-1.4-6.6-1.3-9.6,6.6-12.8
						C43.2,10.6,77.8,5.1,117.9,5.1z"/>
				</defs>
				<clipPath id="SVGID_92_">
					<use xlink:href="#SVGID_91_"  style="overflow:visible;"/>
				</clipPath>
				<polyline class="st46" points="117.9,-33.6 422.7,204.8 423.5,203.8 118.7,-34.7 				"/>
			</g>
			<g>
				<defs>
					<path id="SVGID_93_" d="M117.9,5.1c39.4,0,75.7,5.9,106.5,15.9c6.6,2.2,8.5,4.9,6.9,11.8c-4.5,20.1-15.6,71.6-38.7,112
						c-23.2,40.4-47.7,57.4-72.6,57.4s-48.8-12.8-74-56.3C20.8,102.2,6.9,42.4,5.5,35.9c-1.4-6.6-1.3-9.6,6.6-12.8
						C43.2,10.6,77.8,5.1,117.9,5.1z"/>
				</defs>
				<clipPath id="SVGID_94_">
					<use xlink:href="#SVGID_93_"  style="overflow:visible;"/>
				</clipPath>
				<polyline class="st47" points="117.9,-33.6 440.4,204.8 441.1,203.8 118.7,-34.7 				"/>
			</g>
			<g>
				<defs>
					<path id="SVGID_95_" d="M117.9,5.1c39.4,0,75.7,5.9,106.5,15.9c6.6,2.2,8.5,4.9,6.9,11.8c-4.5,20.1-15.6,71.6-38.7,112
						c-23.2,40.4-47.7,57.4-72.6,57.4s-48.8-12.8-74-56.3C20.8,102.2,6.9,42.4,5.5,35.9c-1.4-6.6-1.3-9.6,6.6-12.8
						C43.2,10.6,77.8,5.1,117.9,5.1z"/>
				</defs>
				<clipPath id="SVGID_96_">
					<use xlink:href="#SVGID_95_"  style="overflow:visible;"/>
				</clipPath>
				<polyline class="st48" points="118,-33.6 458,204.8 458.8,203.8 118.7,-34.7 				"/>
			</g>
			<g>
				<defs>
					<path id="SVGID_97_" d="M117.9,5.1c39.4,0,75.7,5.9,106.5,15.9c6.6,2.2,8.5,4.9,6.9,11.8c-4.5,20.1-15.6,71.6-38.7,112
						c-23.2,40.4-47.7,57.4-72.6,57.4s-48.8-12.8-74-56.3C20.8,102.2,6.9,42.4,5.5,35.9c-1.4-6.6-1.3-9.6,6.6-12.8
						C43.2,10.6,77.8,5.1,117.9,5.1z"/>
				</defs>
				<clipPath id="SVGID_98_">
					<use xlink:href="#SVGID_97_"  style="overflow:visible;"/>
				</clipPath>
				<polyline class="st49" points="118,-33.6 475.7,204.8 476.4,203.7 118.7,-34.7 				"/>
			</g>
			<g>
				<defs>
					<path id="SVGID_99_" d="M117.9,5.1c39.4,0,75.7,5.9,106.5,15.9c6.6,2.2,8.5,4.9,6.9,11.8c-4.5,20.1-15.6,71.6-38.7,112
						c-23.2,40.4-47.7,57.4-72.6,57.4s-48.8-12.8-74-56.3C20.8,102.2,6.9,42.4,5.5,35.9c-1.4-6.6-1.3-9.6,6.6-12.8
						C43.2,10.6,77.8,5.1,117.9,5.1z"/>
				</defs>
				<clipPath id="SVGID_100_">
					<use xlink:href="#SVGID_99_"  style="overflow:visible;"/>
				</clipPath>
				<polyline class="st50" points="118,-33.6 493.4,204.8 494,203.7 118.7,-34.7 				"/>
			</g>
			<g>
				<defs>
					<path id="SVGID_101_" d="M117.9,5.1c39.4,0,75.7,5.9,106.5,15.9c6.6,2.2,8.5,4.9,6.9,11.8c-4.5,20.1-15.6,71.6-38.7,112
						c-23.2,40.4-47.7,57.4-72.6,57.4s-48.8-12.8-74-56.3C20.8,102.2,6.9,42.4,5.5,35.9c-1.4-6.6-1.3-9.6,6.6-12.8
						C43.2,10.6,77.8,5.1,117.9,5.1z"/>
				</defs>
				<clipPath id="SVGID_102_">
					<use xlink:href="#SVGID_101_"  style="overflow:visible;"/>
				</clipPath>
				<polyline class="st51" points="118,-33.6 511,204.8 511.7,203.7 118.7,-34.7 				"/>
			</g>
			<g>
				<defs>
					<path id="SVGID_103_" d="M117.9,5.1c39.4,0,75.7,5.9,106.5,15.9c6.6,2.2,8.5,4.9,6.9,11.8c-4.5,20.1-15.6,71.6-38.7,112
						c-23.2,40.4-47.7,57.4-72.6,57.4s-48.8-12.8-74-56.3C20.8,102.2,6.9,42.4,5.5,35.9c-1.4-6.6-1.3-9.6,6.6-12.8
						C43.2,10.6,77.8,5.1,117.9,5.1z"/>
				</defs>
				<clipPath id="SVGID_104_">
					<use xlink:href="#SVGID_103_"  style="overflow:visible;"/>
				</clipPath>
				<polyline class="st52" points="118,-33.6 528.7,204.8 529.3,203.7 118.7,-34.7 				"/>
			</g>
			<g>
				<defs>
					<path id="SVGID_105_" d="M117.9,5.1c39.4,0,75.7,5.9,106.5,15.9c6.6,2.2,8.5,4.9,6.9,11.8c-4.5,20.1-15.6,71.6-38.7,112
						c-23.2,40.4-47.7,57.4-72.6,57.4s-48.8-12.8-74-56.3C20.8,102.2,6.9,42.4,5.5,35.9c-1.4-6.6-1.3-9.6,6.6-12.8
						C43.2,10.6,77.8,5.1,117.9,5.1z"/>
				</defs>
				<clipPath id="SVGID_106_">
					<use xlink:href="#SVGID_105_"  style="overflow:visible;"/>
				</clipPath>
				<polyline class="st53" points="118,-33.6 546.3,204.8 547,203.7 118.6,-34.7 				"/>
			</g>
			<g>
				<defs>
					<path id="SVGID_107_" d="M117.9,5.1c39.4,0,75.7,5.9,106.5,15.9c6.6,2.2,8.5,4.9,6.9,11.8c-4.5,20.1-15.6,71.6-38.7,112
						c-23.2,40.4-47.7,57.4-72.6,57.4s-48.8-12.8-74-56.3C20.8,102.2,6.9,42.4,5.5,35.9c-1.4-6.6-1.3-9.6,6.6-12.8
						C43.2,10.6,77.8,5.1,117.9,5.1z"/>
				</defs>
				<clipPath id="SVGID_108_">
					<use xlink:href="#SVGID_107_"  style="overflow:visible;"/>
				</clipPath>
				<polyline class="st54" points="118,-33.6 564,204.8 564.6,203.7 118.6,-34.7 				"/>
			</g>
			<g>
				<defs>
					<path id="SVGID_109_" d="M117.9,5.1c39.4,0,75.7,5.9,106.5,15.9c6.6,2.2,8.5,4.9,6.9,11.8c-4.5,20.1-15.6,71.6-38.7,112
						c-23.2,40.4-47.7,57.4-72.6,57.4s-48.8-12.8-74-56.3C20.8,102.2,6.9,42.4,5.5,35.9c-1.4-6.6-1.3-9.6,6.6-12.8
						C43.2,10.6,77.8,5.1,117.9,5.1z"/>
				</defs>
				<clipPath id="SVGID_110_">
					<use xlink:href="#SVGID_109_"  style="overflow:visible;"/>
				</clipPath>
				<polyline class="st55" points="118,-33.6 581.6,204.9 582.2,203.7 118.6,-34.7 				"/>
			</g>
			<g>
				<defs>
					<path id="SVGID_111_" d="M117.9,5.1c39.4,0,75.7,5.9,106.5,15.9c6.6,2.2,8.5,4.9,6.9,11.8c-4.5,20.1-15.6,71.6-38.7,112
						c-23.2,40.4-47.7,57.4-72.6,57.4s-48.8-12.8-74-56.3C20.8,102.2,6.9,42.4,5.5,35.9c-1.4-6.6-1.3-9.6,6.6-12.8
						C43.2,10.6,77.8,5.1,117.9,5.1z"/>
				</defs>
				<clipPath id="SVGID_112_">
					<use xlink:href="#SVGID_111_"  style="overflow:visible;"/>
				</clipPath>
				<polyline class="st56" points="118,-33.6 599.3,204.9 599.9,203.7 118.6,-34.7 				"/>
			</g>
		</g>
		<path class="st57" d="M47.9,81.7l-2.4-17.9c-0.3-1.9-0.5-5-0.7-7.3c-0.1,1.3-0.3,5-0.6,7.2l-2.2,18h-4.1l-4.4-34.4h4.7l1.6,16.2
			c0.1,1.3,0.5,7,0.6,8.1c0.1-3,0.3-6.1,0.6-8l1.8-16.3h4.3l2.2,16.4c0.2,1.6,0.6,6.6,0.7,8.3c0-0.9,0-1.1,0-3.4
			c0.2-3.7,0.2-3.9,0.3-4.9l1.3-16.4H56l-4,34.4L47.9,81.7L47.9,81.7z"/>
		<rect x="58.3" y="47.3" class="st57" width="5.2" height="34.4"/>
		<path class="st57" d="M78.6,81.7L74,66.5c-0.2-0.5-1.2-4-2.2-8.7c0.2,3.9,0.4,10.6,0.4,12.8v11.1H68V47.3h4.3l4.4,15.5
			c1.2,4.2,1.6,5.7,2.4,9c-0.3-4.1-0.5-8.5-0.5-12.3V47.3h4.2v34.4H78.6z"/>
		<polygon class="st57" points="88.2,81.7 88.2,51.7 84.4,51.7 84.4,47.3 97.1,47.3 97.1,51.7 93.3,51.7 93.3,81.7 		"/>
		<polygon class="st57" points="98.8,81.7 98.8,47.3 110.5,47.3 110.5,51.7 103.9,51.7 103.9,61.5 108.6,61.5 108.6,65.9 
			103.9,65.9 103.9,77.3 110.9,77.3 110.9,81.7 		"/>
		<path class="st57" d="M123.4,81.7l-3.3-14.8h-1.2v14.8h-5.2V47.3h6c2.1,0,4.3,0.3,5.9,2.4c1.1,1.4,2,3.4,2,7.5
			c0,6.5-2,7.8-3.1,8.5l4.3,16H123.4z M118.9,62.4h0.8c1.9,0,2.5-0.9,2.5-5.5c0-5.2-1.1-5.2-2.5-5.2h-0.8V62.4z"/>
		<path class="st57" d="M139.6,81.7V47.3h5.8c2.2,0,4.2,0,5.9,2c1.5,1.8,2.4,4.4,2.4,8.4c0,7.6-2.6,10.4-7.4,10.4h-1.6v13.7
			L139.6,81.7L139.6,81.7z M144.8,63.3h1c2,0,2.5-0.5,2.5-5.9c0-5.7-1.1-5.7-2.5-5.7h-1V63.3z"/>
		<path class="st57" d="M163.5,81.7l-1.2-9.5h-4.1l-1.1,9.5h-4.6l5.3-34.4h5l5.5,34.4H163.5z M161.9,68l-0.8-6.1
			c-0.2-1.7-0.9-8.4-1-9.4c-0.1,1-0.1,1.9-0.3,3.5c-0.3,3.3-0.4,3.7-0.6,6l-0.7,6.1h3.4V68z"/>
		<path class="st57" d="M180.4,81.7l-3.3-14.8h-1.2v14.8h-5.2V47.3h6c2.1,0,4.3,0.3,5.9,2.4c1.1,1.4,2,3.4,2,7.5
			c0,6.5-2,7.8-3.1,8.5l4.3,16H180.4z M175.8,62.4h0.8c1.9,0,2.5-0.9,2.5-5.5c0-5.2-1.1-5.2-2.5-5.2h-0.8V62.4z"/>
		<polygon class="st57" points="197.9,81.7 193.2,65.6 193.2,81.7 188.2,81.7 188.2,47.3 193.2,47.3 193.2,60 197.8,47.3 
			202.7,47.3 196.4,62 203.2,81.7 		"/>
		<path class="st57" d="M133.4,141.6c1.7-3.9,2.6-10,2.9-12.8c-0.6,2.9-4.4,9.6-6.1,12.1c-4.9-0.8-11.1-1.1-14-1.4
			c-0.4-0.6-0.7-1.2-1.2-2.4c0,1-0.2,1.8-0.4,2.3c-2.2-0.2-8.2-0.6-10.6-0.5c0.8,0.6,7.6,1,10.6,1.7c-0.4,3.3-2.2,7.7-3.8,10
			c-1.9,2.9-4.2,3.7-7.3,1.3c-8.7-6.8-15.2-17.9-17.3-21.6c0,1.7,2.2,7.8,3.6,11.1c2.5,5.9,9.1,19.8,15.4,25
			c5.3,4.3,6.9,2.5,8.9-2.3c1.1-2.6,2.9-8.6,3.1-10.7c0.8,1.6,2.5,3.8,2.9,4.3c2.2,2.8,3.7,3.1,6.3-0.4c1.5-2.1,5.1-10,5.5-11.5
			c0.4,0.2,0.9,0.4,1.3,0.7c-0.7,2.5-4.8,16.4-5.4,18c-4.2,2.4-8.6,5.2-11.7,6.3c1,0.5,7.9-1.4,10.5-2.4c-1.2,4.6-4.9,15.4-4.6,16.2
			c0.8-0.2,6.2-15.4,6.8-16.9c13.4-4.9,20.9-11.4,21.6-15.8C151.3,145.8,138.6,142.9,133.4,141.6z M122.8,148.2
			c-2.3-0.1-4.6-3.9-6.1-7.2c2.4,0.4,8.8,1.9,11.3,3C127,145.5,125,148.3,122.8,148.2z M138.9,154.1c-1,2.8-4.8,7.8-8.6,9.6
			c1-2.5,4.7-12.5,5.9-15.8C138.6,149.5,139.9,151.3,138.9,154.1z"/>
		<circle class="st57" cx="58.4" cy="101.9" r="3.1"/>
		<circle class="st57" cx="178.2" cy="101.9" r="3.1"/>
		<path class="st57" d="M117.9,6.1c38.8,0,74.6,5.8,105,15.7c6.6,2.1,8.3,4.8,6.8,11.6c-4.4,19.8-15.3,70.5-38.2,110.4
			c-22.8,39.9-47.1,56.6-71.6,56.6s-48.1-12.6-73-55.6S8.4,42.9,7,36.4s-1.3-9.5,6.5-12.6C44.3,11.5,78.4,6.1,117.9,6.1 M117.9,3.5
			c-40.7,0-75.2,5.9-105.3,17.9c-9.7,3.9-9.5,8.7-8,15.5c0.1,0.6,13.5,63.2,40.2,109.2c22.8,39.3,46,56.8,75.2,56.8
			c27,0,51.8-19.5,73.8-57.9c22.4-39.1,33.4-88.4,38.1-109.4l0.4-1.8c1.8-7.9-0.6-12-8.5-14.6C192,9,155.4,3.5,117.9,3.5z"/>
		<g>
			<polygon class="st57" points="70.1,95.9 70,108.8 67.8,108.8 67.8,95.9 63.7,95.9 63.7,93.9 74.2,93.9 74.2,95.9 			"/>
			<polygon class="st57" points="76.7,108.9 76.8,93.9 86.3,93.9 86.3,95.9 79,95.9 79,100.3 85.2,100.3 85.2,102.3 79,102.3 
				79,106.8 86.3,106.8 86.3,108.9 			"/>
			<path class="st57" d="M97.6,108.9l-3.1-6.3h-2.8v6.3h-2.3V94h5.8c2.8,0,4.6,1.8,4.6,4.4c0,2.1-1.3,3.5-3,4l3.4,6.6L97.6,108.9z
				 M95,96h-3.4v4.7H95c1.5,0,2.5-0.9,2.5-2.3C97.6,96.8,96.5,96,95,96z"/>
			<path class="st57" d="M111.4,108.9l-3.1-6.3h-2.8v6.3h-2.3V94h5.8c2.8,0,4.6,1.8,4.6,4.4c0,2.1-1.3,3.5-3,4l3.4,6.6L111.4,108.9z
				 M108.8,96h-3.4v4.7h3.4c1.5,0,2.5-0.9,2.5-2.3C111.3,96.9,110.3,96,108.8,96z"/>
			
				<rect x="110.6" y="100.3" transform="matrix(1.833052e-03 -1 1 1.833052e-03 16.3273 219.349)" class="st57" width="14.9" height="2.3"/>
			<polygon class="st57" points="128.1,96 128.1,108.9 125.8,108.9 125.9,96 121.7,96 121.7,94 132.2,94 132.2,96 			"/>
			<path class="st57" d="M143.1,107.5c-1,1-2.4,1.6-3.9,1.6c-1.6,0-2.9-0.6-3.9-1.6c-1.5-1.5-1.4-3.1-1.4-6s0-4.5,1.5-6
				c1-1,2.3-1.6,3.9-1.6c1.6,0,2.9,0.6,3.9,1.6c1.5,1.5,1.4,3.1,1.4,6C144.6,104.3,144.6,106,143.1,107.5z M141.4,96.8
				c-0.5-0.6-1.3-0.9-2.2-0.9s-1.7,0.4-2.2,0.9c-0.7,0.8-0.9,1.6-0.9,4.6s0.1,3.8,0.9,4.6c0.5,0.6,1.3,0.9,2.2,0.9s1.7-0.4,2.2-0.9
				c0.7-0.8,0.9-1.6,0.9-4.6C142.3,98.5,142.2,97.6,141.4,96.8z"/>
			<path class="st57" d="M156.2,108.9l-3.1-6.3h-2.8v6.3h-2.4v-15h5.8c2.8,0,4.6,1.8,4.6,4.4c0,2.1-1.3,3.5-3,4l3.4,6.6H156.2z
				 M153.6,96h-3.4v4.7h3.4c1.5,0,2.5-0.9,2.5-2.3C156.1,96.9,155.1,96,153.6,96z"/>
			<polygon class="st57" points="166.6,102.8 166.6,109 164.3,109 164.3,102.8 159.8,94 162.3,94 165.4,100.6 168.6,94 171,94 			
				"/>
		</g>
	</g>
	<g>
		<path class="st57" d="M154,146.3c-0.4,0.4-0.8,0.6-1.4,0.6c-0.5,0-1-0.2-1.4-0.6c-0.4-0.4-0.6-0.8-0.6-1.4c0-0.5,0.2-1,0.6-1.4
			c0.4-0.4,0.8-0.6,1.4-0.6c0.5,0,1,0.2,1.4,0.6c0.4,0.4,0.6,0.8,0.6,1.4C154.6,145.5,154.4,146,154,146.3z M151.4,143.8
			c-0.3,0.3-0.5,0.7-0.5,1.2s0.2,0.9,0.5,1.2s0.7,0.5,1.2,0.5s0.9-0.2,1.2-0.5s0.5-0.7,0.5-1.2s-0.2-0.9-0.5-1.2s-0.7-0.5-1.2-0.5
			S151.8,143.4,151.4,143.8z M152.6,143.9c0.3,0,0.5,0,0.6,0.1c0.2,0.1,0.3,0.3,0.3,0.5s-0.1,0.3-0.2,0.4c-0.1,0-0.2,0.1-0.3,0.1
			c0.2,0,0.3,0.1,0.4,0.2c0.1,0.1,0.1,0.2,0.1,0.3v0.2c0,0,0,0.1,0,0.2c0,0.1,0,0.1,0,0.1l0,0h-0.4l0,0l0,0v-0.1v-0.2
			c0-0.2-0.1-0.4-0.2-0.5c-0.1,0-0.2-0.1-0.4-0.1h-0.3v0.8h-0.4v-2.1h0.8V143.9z M153,144.2c-0.1-0.1-0.2-0.1-0.5-0.1h-0.3v0.8h0.3
			c0.2,0,0.3,0,0.4,0c0.1-0.1,0.2-0.2,0.2-0.3C153.1,144.4,153.1,144.3,153,144.2z"/>
	</g>
</g>
</svg>
