<?xml version="1.0" encoding="utf-8"?>
<!-- Generator: Adobe Illustrator 21.1.0, SVG Export Plug-In . SVG Version: 6.00 Build 0)  -->
<svg version="1.1" id="Layer_1" xmlns="http://www.w3.org/2000/svg" xmlns:xlink="http://www.w3.org/1999/xlink" x="0px" y="0px"
	 viewBox="0 0 156.6 164.9" style="enable-background:new 0 0 156.6 164.9;" xml:space="preserve">
<style type="text/css">
	.st0{fill:#0A5D66;}
	.st1{clip-path:url(#SVGID_2_);fill:none;stroke:#264C59;stroke-width:0.4904;stroke-miterlimit:10;}
	.st2{clip-path:url(#SVGID_4_);fill:none;stroke:#264C59;stroke-width:0.4904;stroke-miterlimit:10;}
	.st3{clip-path:url(#SVGID_6_);fill:none;stroke:#264C59;stroke-width:0.4904;stroke-miterlimit:10;}
	.st4{clip-path:url(#SVGID_8_);fill:none;stroke:#264C59;stroke-width:0.4904;stroke-miterlimit:10;}
	.st5{clip-path:url(#SVGID_10_);fill:none;stroke:#264C59;stroke-width:0.4904;stroke-miterlimit:10;}
	.st6{clip-path:url(#SVGID_12_);fill:none;stroke:#264C59;stroke-width:0.4904;stroke-miterlimit:10;}
	.st7{clip-path:url(#SVGID_14_);fill:none;stroke:#264C59;stroke-width:0.4904;stroke-miterlimit:10;}
	.st8{clip-path:url(#SVGID_16_);fill:none;stroke:#264C59;stroke-width:0.4904;stroke-miterlimit:10;}
	.st9{clip-path:url(#SVGID_18_);fill:none;stroke:#264C59;stroke-width:0.4904;stroke-miterlimit:10;}
	.st10{clip-path:url(#SVGID_20_);fill:none;stroke:#264C59;stroke-width:0.4904;stroke-miterlimit:10;}
	.st11{clip-path:url(#SVGID_22_);fill:none;stroke:#264C59;stroke-width:0.4904;stroke-miterlimit:10;}
	.st12{clip-path:url(#SVGID_24_);fill:none;stroke:#264C59;stroke-width:0.4904;stroke-miterlimit:10;}
	.st13{clip-path:url(#SVGID_26_);fill:none;stroke:#264C59;stroke-width:0.4904;stroke-miterlimit:10;}
	.st14{clip-path:url(#SVGID_28_);fill:none;stroke:#264C59;stroke-width:0.4904;stroke-miterlimit:10;}
	.st15{clip-path:url(#SVGID_30_);fill:none;stroke:#264C59;stroke-width:0.4904;stroke-miterlimit:10;}
	.st16{clip-path:url(#SVGID_32_);fill:none;stroke:#264C59;stroke-width:0.4904;stroke-miterlimit:10;}
	.st17{clip-path:url(#SVGID_34_);fill:none;stroke:#264C59;stroke-width:0.4904;stroke-miterlimit:10;}
	.st18{clip-path:url(#SVGID_36_);fill:none;stroke:#264C59;stroke-width:0.4904;stroke-miterlimit:10;}
	.st19{clip-path:url(#SVGID_38_);fill:none;stroke:#264C59;stroke-width:0.4904;stroke-miterlimit:10;}
	.st20{clip-path:url(#SVGID_40_);fill:none;stroke:#264C59;stroke-width:0.4904;stroke-miterlimit:10;}
	.st21{clip-path:url(#SVGID_42_);fill:none;stroke:#264C59;stroke-width:0.4904;stroke-miterlimit:10;}
	.st22{clip-path:url(#SVGID_44_);fill:none;stroke:#264C59;stroke-width:0.4904;stroke-miterlimit:10;}
	.st23{clip-path:url(#SVGID_46_);fill:none;stroke:#264C59;stroke-width:0.4904;stroke-miterlimit:10;}
	.st24{clip-path:url(#SVGID_48_);fill:none;stroke:#264C59;stroke-width:0.4904;stroke-miterlimit:10;}
	.st25{clip-path:url(#SVGID_50_);fill:none;stroke:#264C59;stroke-width:0.4904;stroke-miterlimit:10;}
	.st26{clip-path:url(#SVGID_52_);fill:none;stroke:#264C59;stroke-width:0.4904;stroke-miterlimit:10;}
	.st27{clip-path:url(#SVGID_54_);fill:none;stroke:#264C59;stroke-width:0.4904;stroke-miterlimit:10;}
	.st28{clip-path:url(#SVGID_56_);fill:none;stroke:#264C59;stroke-width:0.4904;stroke-miterlimit:10;}
	.st29{clip-path:url(#SVGID_58_);fill:none;stroke:#264C59;stroke-width:0.4904;stroke-miterlimit:10;}
	.st30{clip-path:url(#SVGID_60_);fill:none;stroke:#264C59;stroke-width:0.4904;stroke-miterlimit:10;}
	.st31{clip-path:url(#SVGID_62_);fill:none;stroke:#264C59;stroke-width:0.4904;stroke-miterlimit:10;}
	.st32{clip-path:url(#SVGID_64_);fill:none;stroke:#264C59;stroke-width:0.4904;stroke-miterlimit:10;}
	.st33{clip-path:url(#SVGID_66_);fill:none;stroke:#264C59;stroke-width:0.4904;stroke-miterlimit:10;}
	.st34{clip-path:url(#SVGID_68_);fill:none;stroke:#264C59;stroke-width:0.4904;stroke-miterlimit:10;}
	.st35{clip-path:url(#SVGID_70_);fill:none;stroke:#264C59;stroke-width:0.4904;stroke-miterlimit:10;}
	.st36{clip-path:url(#SVGID_72_);fill:none;stroke:#264C59;stroke-width:0.4904;stroke-miterlimit:10;}
	.st37{clip-path:url(#SVGID_74_);fill:none;stroke:#264C59;stroke-width:0.4904;stroke-miterlimit:10;}
	.st38{clip-path:url(#SVGID_76_);fill:none;stroke:#264C59;stroke-width:0.4904;stroke-miterlimit:10;}
	.st39{clip-path:url(#SVGID_78_);fill:none;stroke:#264C59;stroke-width:0.4904;stroke-miterlimit:10;}
	.st40{clip-path:url(#SVGID_80_);fill:none;stroke:#264C59;stroke-width:0.4904;stroke-miterlimit:10;}
	.st41{clip-path:url(#SVGID_82_);fill:none;stroke:#264C59;stroke-width:0.4904;stroke-miterlimit:10;}
	.st42{clip-path:url(#SVGID_84_);fill:none;stroke:#264C59;stroke-width:0.4904;stroke-miterlimit:10;}
	.st43{clip-path:url(#SVGID_86_);fill:none;stroke:#264C59;stroke-width:0.4904;stroke-miterlimit:10;}
	.st44{clip-path:url(#SVGID_88_);fill:none;stroke:#264C59;stroke-width:0.4904;stroke-miterlimit:10;}
	.st45{clip-path:url(#SVGID_90_);fill:none;stroke:#264C59;stroke-width:0.4904;stroke-miterlimit:10;}
	.st46{clip-path:url(#SVGID_92_);fill:none;stroke:#264C59;stroke-width:0.4904;stroke-miterlimit:10;}
	.st47{clip-path:url(#SVGID_94_);fill:none;stroke:#264C59;stroke-width:0.4904;stroke-miterlimit:10;}
	.st48{clip-path:url(#SVGID_96_);fill:none;stroke:#264C59;stroke-width:0.4904;stroke-miterlimit:10;}
	.st49{clip-path:url(#SVGID_98_);fill:none;stroke:#264C59;stroke-width:0.4904;stroke-miterlimit:10;}
	.st50{clip-path:url(#SVGID_100_);fill:none;stroke:#264C59;stroke-width:0.4904;stroke-miterlimit:10;}
	.st51{clip-path:url(#SVGID_102_);fill:none;stroke:#264C59;stroke-width:0.4904;stroke-miterlimit:10;}
	.st52{clip-path:url(#SVGID_104_);fill:none;stroke:#264C59;stroke-width:0.4904;stroke-miterlimit:10;}
	.st53{clip-path:url(#SVGID_106_);fill:none;stroke:#264C59;stroke-width:0.4904;stroke-miterlimit:10;}
	.st54{clip-path:url(#SVGID_108_);fill:none;stroke:#264C59;stroke-width:0.4904;stroke-miterlimit:10;}
	.st55{clip-path:url(#SVGID_110_);fill:none;stroke:#264C59;stroke-width:0.4904;stroke-miterlimit:10;}
	.st56{clip-path:url(#SVGID_112_);fill:none;stroke:#264C59;stroke-width:0.4904;stroke-miterlimit:10;}
	.st57{clip-path:url(#SVGID_114_);fill:none;stroke:#264C59;stroke-width:0.4904;stroke-miterlimit:10;}
	.st58{clip-path:url(#SVGID_116_);fill:none;stroke:#264C59;stroke-width:0.4904;stroke-miterlimit:10;}
	.st59{clip-path:url(#SVGID_118_);fill:none;stroke:#264C59;stroke-width:0.4904;stroke-miterlimit:10;}
	.st60{fill:#FFFFFF;}
	.st61{fill:#264C59;stroke:#264C59;stroke-miterlimit:10;}
	.st62{fill:none;stroke:#FFFFFF;stroke-width:0.4904;stroke-miterlimit:10;}
</style>
<g>
	<g>
		<path class="st0" d="M75.9,165c-38.4-1.4-70.5-30.3-75.4-68.6c-0.8-6.5-0.6-13.3-0.1-19.9c0.4-6,3.4-11.1,7.7-15.3
			C27.9,42,47.8,22.9,67.7,3.9c5.6-5.4,15.1-5.2,21.1,0.5c11.9,11.3,23.7,22.7,35.5,34.1c7.4,7.1,14.7,14.2,22.2,21.2
			c6.8,6.3,10,14.1,10.2,23.1c1.3,39.6-25.2,73-63.9,80.6C86.4,164.5,82.9,165,75.9,165z"/>
	</g>
	<g>
		<g>
			<defs>
				<path id="SVGID_1_" d="M76,162.3c-37-1.4-68-29.2-72.7-66.1C2.5,89.9,2.8,83.4,3.2,77c0.4-5.8,3.3-10.7,7.4-14.7
					C29.7,43.8,48.9,25.4,68.1,7c5.4-5.2,14.6-5,20.3,0.5c11.5,10.9,22.8,21.9,34.2,32.8c7.1,6.8,14.2,13.7,21.4,20.4
					c6.5,6,9.6,13.6,9.9,22.3c1.2,38.2-24.3,70.4-61.6,77.7C87,161.7,81.4,161.8,76,162.3z"/>
			</defs>
			<clipPath id="SVGID_2_">
				<use xlink:href="#SVGID_1_"  style="overflow:visible;"/>
			</clipPath>
			<line class="st1" x1="191.7" y1="74.7" x2="-27" y2="74.7"/>
		</g>
		<g>
			<defs>
				<path id="SVGID_3_" d="M76,162.3c-37-1.4-68-29.2-72.7-66.1C2.5,89.9,2.8,83.4,3.2,77c0.4-5.8,3.3-10.7,7.4-14.7
					C29.7,43.8,48.9,25.4,68.1,7c5.4-5.2,14.6-5,20.3,0.5c11.5,10.9,22.8,21.9,34.2,32.8c7.1,6.8,14.2,13.7,21.4,20.4
					c6.5,6,9.6,13.6,9.9,22.3c1.2,38.2-24.3,70.4-61.6,77.7C87,161.7,81.4,161.8,76,162.3z"/>
			</defs>
			<clipPath id="SVGID_4_">
				<use xlink:href="#SVGID_3_"  style="overflow:visible;"/>
			</clipPath>
			<line class="st2" x1="191.7" y1="72" x2="-27" y2="72"/>
		</g>
		<g>
			<defs>
				<path id="SVGID_5_" d="M76,162.3c-37-1.4-68-29.2-72.7-66.1C2.5,89.9,2.8,83.4,3.2,77c0.4-5.8,3.3-10.7,7.4-14.7
					C29.7,43.8,48.9,25.4,68.1,7c5.4-5.2,14.6-5,20.3,0.5c11.5,10.9,22.8,21.9,34.2,32.8c7.1,6.8,14.2,13.7,21.4,20.4
					c6.5,6,9.6,13.6,9.9,22.3c1.2,38.2-24.3,70.4-61.6,77.7C87,161.7,81.4,161.8,76,162.3z"/>
			</defs>
			<clipPath id="SVGID_6_">
				<use xlink:href="#SVGID_5_"  style="overflow:visible;"/>
			</clipPath>
			<line class="st3" x1="191.7" y1="69.3" x2="-27" y2="69.3"/>
		</g>
		<g>
			<defs>
				<path id="SVGID_7_" d="M76,162.3c-37-1.4-68-29.2-72.7-66.1C2.5,89.9,2.8,83.4,3.2,77c0.4-5.8,3.3-10.7,7.4-14.7
					C29.7,43.8,48.9,25.4,68.1,7c5.4-5.2,14.6-5,20.3,0.5c11.5,10.9,22.8,21.9,34.2,32.8c7.1,6.8,14.2,13.7,21.4,20.4
					c6.5,6,9.6,13.6,9.9,22.3c1.2,38.2-24.3,70.4-61.6,77.7C87,161.7,81.4,161.8,76,162.3z"/>
			</defs>
			<clipPath id="SVGID_8_">
				<use xlink:href="#SVGID_7_"  style="overflow:visible;"/>
			</clipPath>
			<line class="st4" x1="191.7" y1="66.6" x2="-27" y2="66.6"/>
		</g>
		<g>
			<defs>
				<path id="SVGID_9_" d="M76,162.3c-37-1.4-68-29.2-72.7-66.1C2.5,89.9,2.8,83.4,3.2,77c0.4-5.8,3.3-10.7,7.4-14.7
					C29.7,43.8,48.9,25.4,68.1,7c5.4-5.2,14.6-5,20.3,0.5c11.5,10.9,22.8,21.9,34.2,32.8c7.1,6.8,14.2,13.7,21.4,20.4
					c6.5,6,9.6,13.6,9.9,22.3c1.2,38.2-24.3,70.4-61.6,77.7C87,161.7,81.4,161.8,76,162.3z"/>
			</defs>
			<clipPath id="SVGID_10_">
				<use xlink:href="#SVGID_9_"  style="overflow:visible;"/>
			</clipPath>
			<line class="st5" x1="191.7" y1="63.9" x2="-27" y2="63.9"/>
		</g>
		<g>
			<defs>
				<path id="SVGID_11_" d="M76,162.3c-37-1.4-68-29.2-72.7-66.1C2.5,89.9,2.8,83.4,3.2,77c0.4-5.8,3.3-10.7,7.4-14.7
					C29.7,43.8,48.9,25.4,68.1,7c5.4-5.2,14.6-5,20.3,0.5c11.5,10.9,22.8,21.9,34.2,32.8c7.1,6.8,14.2,13.7,21.4,20.4
					c6.5,6,9.6,13.6,9.9,22.3c1.2,38.2-24.3,70.4-61.6,77.7C87,161.7,81.4,161.8,76,162.3z"/>
			</defs>
			<clipPath id="SVGID_12_">
				<use xlink:href="#SVGID_11_"  style="overflow:visible;"/>
			</clipPath>
			<line class="st6" x1="191.7" y1="61.2" x2="-27" y2="61.2"/>
		</g>
		<g>
			<defs>
				<path id="SVGID_13_" d="M76,162.3c-37-1.4-68-29.2-72.7-66.1C2.5,89.9,2.8,83.4,3.2,77c0.4-5.8,3.3-10.7,7.4-14.7
					C29.7,43.8,48.9,25.4,68.1,7c5.4-5.2,14.6-5,20.3,0.5c11.5,10.9,22.8,21.9,34.2,32.8c7.1,6.8,14.2,13.7,21.4,20.4
					c6.5,6,9.6,13.6,9.9,22.3c1.2,38.2-24.3,70.4-61.6,77.7C87,161.7,81.4,161.8,76,162.3z"/>
			</defs>
			<clipPath id="SVGID_14_">
				<use xlink:href="#SVGID_13_"  style="overflow:visible;"/>
			</clipPath>
			<line class="st7" x1="191.7" y1="58.5" x2="-27" y2="58.5"/>
		</g>
		<g>
			<defs>
				<path id="SVGID_15_" d="M76,162.3c-37-1.4-68-29.2-72.7-66.1C2.5,89.9,2.8,83.4,3.2,77c0.4-5.8,3.3-10.7,7.4-14.7
					C29.7,43.8,48.9,25.4,68.1,7c5.4-5.2,14.6-5,20.3,0.5c11.5,10.9,22.8,21.9,34.2,32.8c7.1,6.8,14.2,13.7,21.4,20.4
					c6.5,6,9.6,13.6,9.9,22.3c1.2,38.2-24.3,70.4-61.6,77.7C87,161.7,81.4,161.8,76,162.3z"/>
			</defs>
			<clipPath id="SVGID_16_">
				<use xlink:href="#SVGID_15_"  style="overflow:visible;"/>
			</clipPath>
			<line class="st8" x1="191.7" y1="55.8" x2="-27" y2="55.8"/>
		</g>
		<g>
			<defs>
				<path id="SVGID_17_" d="M76,162.3c-37-1.4-68-29.2-72.7-66.1C2.5,89.9,2.8,83.4,3.2,77c0.4-5.8,3.3-10.7,7.4-14.7
					C29.7,43.8,48.9,25.4,68.1,7c5.4-5.2,14.6-5,20.3,0.5c11.5,10.9,22.8,21.9,34.2,32.8c7.1,6.8,14.2,13.7,21.4,20.4
					c6.5,6,9.6,13.6,9.9,22.3c1.2,38.2-24.3,70.4-61.6,77.7C87,161.7,81.4,161.8,76,162.3z"/>
			</defs>
			<clipPath id="SVGID_18_">
				<use xlink:href="#SVGID_17_"  style="overflow:visible;"/>
			</clipPath>
			<line class="st9" x1="191.7" y1="53.1" x2="-27" y2="53.1"/>
		</g>
		<g>
			<defs>
				<path id="SVGID_19_" d="M76,162.3c-37-1.4-68-29.2-72.7-66.1C2.5,89.9,2.8,83.4,3.2,77c0.4-5.8,3.3-10.7,7.4-14.7
					C29.7,43.8,48.9,25.4,68.1,7c5.4-5.2,14.6-5,20.3,0.5c11.5,10.9,22.8,21.9,34.2,32.8c7.1,6.8,14.2,13.7,21.4,20.4
					c6.5,6,9.6,13.6,9.9,22.3c1.2,38.2-24.3,70.4-61.6,77.7C87,161.7,81.4,161.8,76,162.3z"/>
			</defs>
			<clipPath id="SVGID_20_">
				<use xlink:href="#SVGID_19_"  style="overflow:visible;"/>
			</clipPath>
			<line class="st10" x1="191.7" y1="50.4" x2="-27" y2="50.4"/>
		</g>
		<g>
			<defs>
				<path id="SVGID_21_" d="M76,162.3c-37-1.4-68-29.2-72.7-66.1C2.5,89.9,2.8,83.4,3.2,77c0.4-5.8,3.3-10.7,7.4-14.7
					C29.7,43.8,48.9,25.4,68.1,7c5.4-5.2,14.6-5,20.3,0.5c11.5,10.9,22.8,21.9,34.2,32.8c7.1,6.8,14.2,13.7,21.4,20.4
					c6.5,6,9.6,13.6,9.9,22.3c1.2,38.2-24.3,70.4-61.6,77.7C87,161.7,81.4,161.8,76,162.3z"/>
			</defs>
			<clipPath id="SVGID_22_">
				<use xlink:href="#SVGID_21_"  style="overflow:visible;"/>
			</clipPath>
			<line class="st11" x1="191.7" y1="47.7" x2="-27" y2="47.7"/>
		</g>
		<g>
			<defs>
				<path id="SVGID_23_" d="M76,162.3c-37-1.4-68-29.2-72.7-66.1C2.5,89.9,2.8,83.4,3.2,77c0.4-5.8,3.3-10.7,7.4-14.7
					C29.7,43.8,48.9,25.4,68.1,7c5.4-5.2,14.6-5,20.3,0.5c11.5,10.9,22.8,21.9,34.2,32.8c7.1,6.8,14.2,13.7,21.4,20.4
					c6.5,6,9.6,13.6,9.9,22.3c1.2,38.2-24.3,70.4-61.6,77.7C87,161.7,81.4,161.8,76,162.3z"/>
			</defs>
			<clipPath id="SVGID_24_">
				<use xlink:href="#SVGID_23_"  style="overflow:visible;"/>
			</clipPath>
			<line class="st12" x1="191.7" y1="45" x2="-27" y2="45"/>
		</g>
		<g>
			<defs>
				<path id="SVGID_25_" d="M76,162.3c-37-1.4-68-29.2-72.7-66.1C2.5,89.9,2.8,83.4,3.2,77c0.4-5.8,3.3-10.7,7.4-14.7
					C29.7,43.8,48.9,25.4,68.1,7c5.4-5.2,14.6-5,20.3,0.5c11.5,10.9,22.8,21.9,34.2,32.8c7.1,6.8,14.2,13.7,21.4,20.4
					c6.5,6,9.6,13.6,9.9,22.3c1.2,38.2-24.3,70.4-61.6,77.7C87,161.7,81.4,161.8,76,162.3z"/>
			</defs>
			<clipPath id="SVGID_26_">
				<use xlink:href="#SVGID_25_"  style="overflow:visible;"/>
			</clipPath>
			<line class="st13" x1="191.7" y1="42.3" x2="-27" y2="42.3"/>
		</g>
		<g>
			<defs>
				<path id="SVGID_27_" d="M76,162.3c-37-1.4-68-29.2-72.7-66.1C2.5,89.9,2.8,83.4,3.2,77c0.4-5.8,3.3-10.7,7.4-14.7
					C29.7,43.8,48.9,25.4,68.1,7c5.4-5.2,14.6-5,20.3,0.5c11.5,10.9,22.8,21.9,34.2,32.8c7.1,6.8,14.2,13.7,21.4,20.4
					c6.5,6,9.6,13.6,9.9,22.3c1.2,38.2-24.3,70.4-61.6,77.7C87,161.7,81.4,161.8,76,162.3z"/>
			</defs>
			<clipPath id="SVGID_28_">
				<use xlink:href="#SVGID_27_"  style="overflow:visible;"/>
			</clipPath>
			<line class="st14" x1="191.7" y1="39.6" x2="-27" y2="39.6"/>
		</g>
		<g>
			<defs>
				<path id="SVGID_29_" d="M76,162.3c-37-1.4-68-29.2-72.7-66.1C2.5,89.9,2.8,83.4,3.2,77c0.4-5.8,3.3-10.7,7.4-14.7
					C29.7,43.8,48.9,25.4,68.1,7c5.4-5.2,14.6-5,20.3,0.5c11.5,10.9,22.8,21.9,34.2,32.8c7.1,6.8,14.2,13.7,21.4,20.4
					c6.5,6,9.6,13.6,9.9,22.3c1.2,38.2-24.3,70.4-61.6,77.7C87,161.7,81.4,161.8,76,162.3z"/>
			</defs>
			<clipPath id="SVGID_30_">
				<use xlink:href="#SVGID_29_"  style="overflow:visible;"/>
			</clipPath>
			<line class="st15" x1="191.7" y1="36.9" x2="-27" y2="36.9"/>
		</g>
		<g>
			<defs>
				<path id="SVGID_31_" d="M76,162.3c-37-1.4-68-29.2-72.7-66.1C2.5,89.9,2.8,83.4,3.2,77c0.4-5.8,3.3-10.7,7.4-14.7
					C29.7,43.8,48.9,25.4,68.1,7c5.4-5.2,14.6-5,20.3,0.5c11.5,10.9,22.8,21.9,34.2,32.8c7.1,6.8,14.2,13.7,21.4,20.4
					c6.5,6,9.6,13.6,9.9,22.3c1.2,38.2-24.3,70.4-61.6,77.7C87,161.7,81.4,161.8,76,162.3z"/>
			</defs>
			<clipPath id="SVGID_32_">
				<use xlink:href="#SVGID_31_"  style="overflow:visible;"/>
			</clipPath>
			<line class="st16" x1="191.7" y1="34.2" x2="-27" y2="34.2"/>
		</g>
		<g>
			<defs>
				<path id="SVGID_33_" d="M76,162.3c-37-1.4-68-29.2-72.7-66.1C2.5,89.9,2.8,83.4,3.2,77c0.4-5.8,3.3-10.7,7.4-14.7
					C29.7,43.8,48.9,25.4,68.1,7c5.4-5.2,14.6-5,20.3,0.5c11.5,10.9,22.8,21.9,34.2,32.8c7.1,6.8,14.2,13.7,21.4,20.4
					c6.5,6,9.6,13.6,9.9,22.3c1.2,38.2-24.3,70.4-61.6,77.7C87,161.7,81.4,161.8,76,162.3z"/>
			</defs>
			<clipPath id="SVGID_34_">
				<use xlink:href="#SVGID_33_"  style="overflow:visible;"/>
			</clipPath>
			<line class="st17" x1="191.7" y1="31.5" x2="-27" y2="31.5"/>
		</g>
		<g>
			<defs>
				<path id="SVGID_35_" d="M76,162.3c-37-1.4-68-29.2-72.7-66.1C2.5,89.9,2.8,83.4,3.2,77c0.4-5.8,3.3-10.7,7.4-14.7
					C29.7,43.8,48.9,25.4,68.1,7c5.4-5.2,14.6-5,20.3,0.5c11.5,10.9,22.8,21.9,34.2,32.8c7.1,6.8,14.2,13.7,21.4,20.4
					c6.5,6,9.6,13.6,9.9,22.3c1.2,38.2-24.3,70.4-61.6,77.7C87,161.7,81.4,161.8,76,162.3z"/>
			</defs>
			<clipPath id="SVGID_36_">
				<use xlink:href="#SVGID_35_"  style="overflow:visible;"/>
			</clipPath>
			<line class="st18" x1="191.7" y1="28.8" x2="-27" y2="28.8"/>
		</g>
		<g>
			<defs>
				<path id="SVGID_37_" d="M76,162.3c-37-1.4-68-29.2-72.7-66.1C2.5,89.9,2.8,83.4,3.2,77c0.4-5.8,3.3-10.7,7.4-14.7
					C29.7,43.8,48.9,25.4,68.1,7c5.4-5.2,14.6-5,20.3,0.5c11.5,10.9,22.8,21.9,34.2,32.8c7.1,6.8,14.2,13.7,21.4,20.4
					c6.5,6,9.6,13.6,9.9,22.3c1.2,38.2-24.3,70.4-61.6,77.7C87,161.7,81.4,161.8,76,162.3z"/>
			</defs>
			<clipPath id="SVGID_38_">
				<use xlink:href="#SVGID_37_"  style="overflow:visible;"/>
			</clipPath>
			<line class="st19" x1="191.7" y1="26.1" x2="-27" y2="26.1"/>
		</g>
		<g>
			<defs>
				<path id="SVGID_39_" d="M76,162.3c-37-1.4-68-29.2-72.7-66.1C2.5,89.9,2.8,83.4,3.2,77c0.4-5.8,3.3-10.7,7.4-14.7
					C29.7,43.8,48.9,25.4,68.1,7c5.4-5.2,14.6-5,20.3,0.5c11.5,10.9,22.8,21.9,34.2,32.8c7.1,6.8,14.2,13.7,21.4,20.4
					c6.5,6,9.6,13.6,9.9,22.3c1.2,38.2-24.3,70.4-61.6,77.7C87,161.7,81.4,161.8,76,162.3z"/>
			</defs>
			<clipPath id="SVGID_40_">
				<use xlink:href="#SVGID_39_"  style="overflow:visible;"/>
			</clipPath>
			<line class="st20" x1="191.7" y1="23.5" x2="-27" y2="23.4"/>
		</g>
		<g>
			<defs>
				<path id="SVGID_41_" d="M76,162.3c-37-1.4-68-29.2-72.7-66.1C2.5,89.9,2.8,83.4,3.2,77c0.4-5.8,3.3-10.7,7.4-14.7
					C29.7,43.8,48.9,25.4,68.1,7c5.4-5.2,14.6-5,20.3,0.5c11.5,10.9,22.8,21.9,34.2,32.8c7.1,6.8,14.2,13.7,21.4,20.4
					c6.5,6,9.6,13.6,9.9,22.3c1.2,38.2-24.3,70.4-61.6,77.7C87,161.7,81.4,161.8,76,162.3z"/>
			</defs>
			<clipPath id="SVGID_42_">
				<use xlink:href="#SVGID_41_"  style="overflow:visible;"/>
			</clipPath>
			<line class="st21" x1="191.7" y1="20.7" x2="-27" y2="20.7"/>
		</g>
		<g>
			<defs>
				<path id="SVGID_43_" d="M76,162.3c-37-1.4-68-29.2-72.7-66.1C2.5,89.9,2.8,83.4,3.2,77c0.4-5.8,3.3-10.7,7.4-14.7
					C29.7,43.8,48.9,25.4,68.1,7c5.4-5.2,14.6-5,20.3,0.5c11.5,10.9,22.8,21.9,34.2,32.8c7.1,6.8,14.2,13.7,21.4,20.4
					c6.5,6,9.6,13.6,9.9,22.3c1.2,38.2-24.3,70.4-61.6,77.7C87,161.7,81.4,161.8,76,162.3z"/>
			</defs>
			<clipPath id="SVGID_44_">
				<use xlink:href="#SVGID_43_"  style="overflow:visible;"/>
			</clipPath>
			<line class="st22" x1="191.7" y1="18.1" x2="-27" y2="18.1"/>
		</g>
		<g>
			<defs>
				<path id="SVGID_45_" d="M76,162.3c-37-1.4-68-29.2-72.7-66.1C2.5,89.9,2.8,83.4,3.2,77c0.4-5.8,3.3-10.7,7.4-14.7
					C29.7,43.8,48.9,25.4,68.1,7c5.4-5.2,14.6-5,20.3,0.5c11.5,10.9,22.8,21.9,34.2,32.8c7.1,6.8,14.2,13.7,21.4,20.4
					c6.5,6,9.6,13.6,9.9,22.3c1.2,38.2-24.3,70.4-61.6,77.7C87,161.7,81.4,161.8,76,162.3z"/>
			</defs>
			<clipPath id="SVGID_46_">
				<use xlink:href="#SVGID_45_"  style="overflow:visible;"/>
			</clipPath>
			<line class="st23" x1="191.7" y1="15.4" x2="-27" y2="15.4"/>
		</g>
		<g>
			<defs>
				<path id="SVGID_47_" d="M76,162.3c-37-1.4-68-29.2-72.7-66.1C2.5,89.9,2.8,83.4,3.2,77c0.4-5.8,3.3-10.7,7.4-14.7
					C29.7,43.8,48.9,25.4,68.1,7c5.4-5.2,14.6-5,20.3,0.5c11.5,10.9,22.8,21.9,34.2,32.8c7.1,6.8,14.2,13.7,21.4,20.4
					c6.5,6,9.6,13.6,9.9,22.3c1.2,38.2-24.3,70.4-61.6,77.7C87,161.7,81.4,161.8,76,162.3z"/>
			</defs>
			<clipPath id="SVGID_48_">
				<use xlink:href="#SVGID_47_"  style="overflow:visible;"/>
			</clipPath>
			<line class="st24" x1="191.7" y1="12.7" x2="-27" y2="12.7"/>
		</g>
		<g>
			<defs>
				<path id="SVGID_49_" d="M76,162.3c-37-1.4-68-29.2-72.7-66.1C2.5,89.9,2.8,83.4,3.2,77c0.4-5.8,3.3-10.7,7.4-14.7
					C29.7,43.8,48.9,25.4,68.1,7c5.4-5.2,14.6-5,20.3,0.5c11.5,10.9,22.8,21.9,34.2,32.8c7.1,6.8,14.2,13.7,21.4,20.4
					c6.5,6,9.6,13.6,9.9,22.3c1.2,38.2-24.3,70.4-61.6,77.7C87,161.7,81.4,161.8,76,162.3z"/>
			</defs>
			<clipPath id="SVGID_50_">
				<use xlink:href="#SVGID_49_"  style="overflow:visible;"/>
			</clipPath>
			<line class="st25" x1="191.7" y1="10" x2="-27" y2="10"/>
		</g>
		<g>
			<defs>
				<path id="SVGID_51_" d="M76,162.3c-37-1.4-68-29.2-72.7-66.1C2.5,89.9,2.8,83.4,3.2,77c0.4-5.8,3.3-10.7,7.4-14.7
					C29.7,43.8,48.9,25.4,68.1,7c5.4-5.2,14.6-5,20.3,0.5c11.5,10.9,22.8,21.9,34.2,32.8c7.1,6.8,14.2,13.7,21.4,20.4
					c6.5,6,9.6,13.6,9.9,22.3c1.2,38.2-24.3,70.4-61.6,77.7C87,161.7,81.4,161.8,76,162.3z"/>
			</defs>
			<clipPath id="SVGID_52_">
				<use xlink:href="#SVGID_51_"  style="overflow:visible;"/>
			</clipPath>
			<line class="st26" x1="191.7" y1="7.3" x2="-27" y2="7.3"/>
		</g>
		<g>
			<defs>
				<path id="SVGID_53_" d="M76,162.3c-37-1.4-68-29.2-72.7-66.1C2.5,89.9,2.8,83.4,3.2,77c0.4-5.8,3.3-10.7,7.4-14.7
					C29.7,43.8,48.9,25.4,68.1,7c5.4-5.2,14.6-5,20.3,0.5c11.5,10.9,22.8,21.9,34.2,32.8c7.1,6.8,14.2,13.7,21.4,20.4
					c6.5,6,9.6,13.6,9.9,22.3c1.2,38.2-24.3,70.4-61.6,77.7C87,161.7,81.4,161.8,76,162.3z"/>
			</defs>
			<clipPath id="SVGID_54_">
				<use xlink:href="#SVGID_53_"  style="overflow:visible;"/>
			</clipPath>
			<line class="st27" x1="191.7" y1="4.6" x2="-27" y2="4.6"/>
		</g>
		<g>
			<defs>
				<path id="SVGID_55_" d="M76,162.3c-37-1.4-68-29.2-72.7-66.1C2.5,89.9,2.8,83.4,3.2,77c0.4-5.8,3.3-10.7,7.4-14.7
					C29.7,43.8,48.9,25.4,68.1,7c5.4-5.2,14.6-5,20.3,0.5c11.5,10.9,22.8,21.9,34.2,32.8c7.1,6.8,14.2,13.7,21.4,20.4
					c6.5,6,9.6,13.6,9.9,22.3c1.2,38.2-24.3,70.4-61.6,77.7C87,161.7,81.4,161.8,76,162.3z"/>
			</defs>
			<clipPath id="SVGID_56_">
				<use xlink:href="#SVGID_55_"  style="overflow:visible;"/>
			</clipPath>
			<line class="st28" x1="191.7" y1="147.6" x2="-27" y2="147.6"/>
		</g>
		<g>
			<defs>
				<path id="SVGID_57_" d="M76,162.3c-37-1.4-68-29.2-72.7-66.1C2.5,89.9,2.8,83.4,3.2,77c0.4-5.8,3.3-10.7,7.4-14.7
					C29.7,43.8,48.9,25.4,68.1,7c5.4-5.2,14.6-5,20.3,0.5c11.5,10.9,22.8,21.9,34.2,32.8c7.1,6.8,14.2,13.7,21.4,20.4
					c6.5,6,9.6,13.6,9.9,22.3c1.2,38.2-24.3,70.4-61.6,77.7C87,161.7,81.4,161.8,76,162.3z"/>
			</defs>
			<clipPath id="SVGID_58_">
				<use xlink:href="#SVGID_57_"  style="overflow:visible;"/>
			</clipPath>
			<line class="st29" x1="191.7" y1="150.3" x2="-27" y2="150.3"/>
		</g>
		<g>
			<defs>
				<path id="SVGID_59_" d="M76,162.3c-37-1.4-68-29.2-72.7-66.1C2.5,89.9,2.8,83.4,3.2,77c0.4-5.8,3.3-10.7,7.4-14.7
					C29.7,43.8,48.9,25.4,68.1,7c5.4-5.2,14.6-5,20.3,0.5c11.5,10.9,22.8,21.9,34.2,32.8c7.1,6.8,14.2,13.7,21.4,20.4
					c6.5,6,9.6,13.6,9.9,22.3c1.2,38.2-24.3,70.4-61.6,77.7C87,161.7,81.4,161.8,76,162.3z"/>
			</defs>
			<clipPath id="SVGID_60_">
				<use xlink:href="#SVGID_59_"  style="overflow:visible;"/>
			</clipPath>
			<line class="st30" x1="191.7" y1="153" x2="-27" y2="153"/>
		</g>
		<g>
			<defs>
				<path id="SVGID_61_" d="M76,162.3c-37-1.4-68-29.2-72.7-66.1C2.5,89.9,2.8,83.4,3.2,77c0.4-5.8,3.3-10.7,7.4-14.7
					C29.7,43.8,48.9,25.4,68.1,7c5.4-5.2,14.6-5,20.3,0.5c11.5,10.9,22.8,21.9,34.2,32.8c7.1,6.8,14.2,13.7,21.4,20.4
					c6.5,6,9.6,13.6,9.9,22.3c1.2,38.2-24.3,70.4-61.6,77.7C87,161.7,81.4,161.8,76,162.3z"/>
			</defs>
			<clipPath id="SVGID_62_">
				<use xlink:href="#SVGID_61_"  style="overflow:visible;"/>
			</clipPath>
			<line class="st31" x1="191.7" y1="155.7" x2="-27" y2="155.6"/>
		</g>
		<g>
			<defs>
				<path id="SVGID_63_" d="M76,162.3c-37-1.4-68-29.2-72.7-66.1C2.5,89.9,2.8,83.4,3.2,77c0.4-5.8,3.3-10.7,7.4-14.7
					C29.7,43.8,48.9,25.4,68.1,7c5.4-5.2,14.6-5,20.3,0.5c11.5,10.9,22.8,21.9,34.2,32.8c7.1,6.8,14.2,13.7,21.4,20.4
					c6.5,6,9.6,13.6,9.9,22.3c1.2,38.2-24.3,70.4-61.6,77.7C87,161.7,81.4,161.8,76,162.3z"/>
			</defs>
			<clipPath id="SVGID_64_">
				<use xlink:href="#SVGID_63_"  style="overflow:visible;"/>
			</clipPath>
			<line class="st32" x1="193.9" y1="158.4" x2="-24.8" y2="158.4"/>
		</g>
		<g>
			<defs>
				<path id="SVGID_65_" d="M76,162.3c-37-1.4-68-29.2-72.7-66.1C2.5,89.9,2.8,83.4,3.2,77c0.4-5.8,3.3-10.7,7.4-14.7
					C29.7,43.8,48.9,25.4,68.1,7c5.4-5.2,14.6-5,20.3,0.5c11.5,10.9,22.8,21.9,34.2,32.8c7.1,6.8,14.2,13.7,21.4,20.4
					c6.5,6,9.6,13.6,9.9,22.3c1.2,38.2-24.3,70.4-61.6,77.7C87,161.7,81.4,161.8,76,162.3z"/>
			</defs>
			<clipPath id="SVGID_66_">
				<use xlink:href="#SVGID_65_"  style="overflow:visible;"/>
			</clipPath>
			<line class="st33" x1="193.9" y1="161" x2="-24.8" y2="161"/>
		</g>
		<g>
			<defs>
				<path id="SVGID_67_" d="M76,162.3c-37-1.4-68-29.2-72.7-66.1C2.5,89.9,2.8,83.4,3.2,77c0.4-5.8,3.3-10.7,7.4-14.7
					C29.7,43.8,48.9,25.4,68.1,7c5.4-5.2,14.6-5,20.3,0.5c11.5,10.9,22.8,21.9,34.2,32.8c7.1,6.8,14.2,13.7,21.4,20.4
					c6.5,6,9.6,13.6,9.9,22.3c1.2,38.2-24.3,70.4-61.6,77.7C87,161.7,81.4,161.8,76,162.3z"/>
			</defs>
			<clipPath id="SVGID_68_">
				<use xlink:href="#SVGID_67_"  style="overflow:visible;"/>
			</clipPath>
			<line class="st34" x1="191.7" y1="144.9" x2="-27" y2="144.9"/>
		</g>
		<g>
			<defs>
				<path id="SVGID_69_" d="M76,162.3c-37-1.4-68-29.2-72.7-66.1C2.5,89.9,2.8,83.4,3.2,77c0.4-5.8,3.3-10.7,7.4-14.7
					C29.7,43.8,48.9,25.4,68.1,7c5.4-5.2,14.6-5,20.3,0.5c11.5,10.9,22.8,21.9,34.2,32.8c7.1,6.8,14.2,13.7,21.4,20.4
					c6.5,6,9.6,13.6,9.9,22.3c1.2,38.2-24.3,70.4-61.6,77.7C87,161.7,81.4,161.8,76,162.3z"/>
			</defs>
			<clipPath id="SVGID_70_">
				<use xlink:href="#SVGID_69_"  style="overflow:visible;"/>
			</clipPath>
			<line class="st35" x1="191.7" y1="142.2" x2="-27" y2="142.2"/>
		</g>
		<g>
			<defs>
				<path id="SVGID_71_" d="M76,162.3c-37-1.4-68-29.2-72.7-66.1C2.5,89.9,2.8,83.4,3.2,77c0.4-5.8,3.3-10.7,7.4-14.7
					C29.7,43.8,48.9,25.4,68.1,7c5.4-5.2,14.6-5,20.3,0.5c11.5,10.9,22.8,21.9,34.2,32.8c7.1,6.8,14.2,13.7,21.4,20.4
					c6.5,6,9.6,13.6,9.9,22.3c1.2,38.2-24.3,70.4-61.6,77.7C87,161.7,81.4,161.8,76,162.3z"/>
			</defs>
			<clipPath id="SVGID_72_">
				<use xlink:href="#SVGID_71_"  style="overflow:visible;"/>
			</clipPath>
			<line class="st36" x1="191.7" y1="139.5" x2="-27" y2="139.5"/>
		</g>
		<g>
			<defs>
				<path id="SVGID_73_" d="M76,162.3c-37-1.4-68-29.2-72.7-66.1C2.5,89.9,2.8,83.4,3.2,77c0.4-5.8,3.3-10.7,7.4-14.7
					C29.7,43.8,48.9,25.4,68.1,7c5.4-5.2,14.6-5,20.3,0.5c11.5,10.9,22.8,21.9,34.2,32.8c7.1,6.8,14.2,13.7,21.4,20.4
					c6.5,6,9.6,13.6,9.9,22.3c1.2,38.2-24.3,70.4-61.6,77.7C87,161.7,81.4,161.8,76,162.3z"/>
			</defs>
			<clipPath id="SVGID_74_">
				<use xlink:href="#SVGID_73_"  style="overflow:visible;"/>
			</clipPath>
			<line class="st37" x1="191.7" y1="136.8" x2="-27" y2="136.8"/>
		</g>
		<g>
			<defs>
				<path id="SVGID_75_" d="M76,162.3c-37-1.4-68-29.2-72.7-66.1C2.5,89.9,2.8,83.4,3.2,77c0.4-5.8,3.3-10.7,7.4-14.7
					C29.7,43.8,48.9,25.4,68.1,7c5.4-5.2,14.6-5,20.3,0.5c11.5,10.9,22.8,21.9,34.2,32.8c7.1,6.8,14.2,13.7,21.4,20.4
					c6.5,6,9.6,13.6,9.9,22.3c1.2,38.2-24.3,70.4-61.6,77.7C87,161.7,81.4,161.8,76,162.3z"/>
			</defs>
			<clipPath id="SVGID_76_">
				<use xlink:href="#SVGID_75_"  style="overflow:visible;"/>
			</clipPath>
			<line class="st38" x1="191.7" y1="134.1" x2="-27" y2="134.1"/>
		</g>
		<g>
			<defs>
				<path id="SVGID_77_" d="M76,162.3c-37-1.4-68-29.2-72.7-66.1C2.5,89.9,2.8,83.4,3.2,77c0.4-5.8,3.3-10.7,7.4-14.7
					C29.7,43.8,48.9,25.4,68.1,7c5.4-5.2,14.6-5,20.3,0.5c11.5,10.9,22.8,21.9,34.2,32.8c7.1,6.8,14.2,13.7,21.4,20.4
					c6.5,6,9.6,13.6,9.9,22.3c1.2,38.2-24.3,70.4-61.6,77.7C87,161.7,81.4,161.8,76,162.3z"/>
			</defs>
			<clipPath id="SVGID_78_">
				<use xlink:href="#SVGID_77_"  style="overflow:visible;"/>
			</clipPath>
			<line class="st39" x1="191.7" y1="131.4" x2="-27" y2="131.4"/>
		</g>
		<g>
			<defs>
				<path id="SVGID_79_" d="M76,162.3c-37-1.4-68-29.2-72.7-66.1C2.5,89.9,2.8,83.4,3.2,77c0.4-5.8,3.3-10.7,7.4-14.7
					C29.7,43.8,48.9,25.4,68.1,7c5.4-5.2,14.6-5,20.3,0.5c11.5,10.9,22.8,21.9,34.2,32.8c7.1,6.8,14.2,13.7,21.4,20.4
					c6.5,6,9.6,13.6,9.9,22.3c1.2,38.2-24.3,70.4-61.6,77.7C87,161.7,81.4,161.8,76,162.3z"/>
			</defs>
			<clipPath id="SVGID_80_">
				<use xlink:href="#SVGID_79_"  style="overflow:visible;"/>
			</clipPath>
			<line class="st40" x1="191.7" y1="128.7" x2="-27" y2="128.7"/>
		</g>
		<g>
			<defs>
				<path id="SVGID_81_" d="M76,162.3c-37-1.4-68-29.2-72.7-66.1C2.5,89.9,2.8,83.4,3.2,77c0.4-5.8,3.3-10.7,7.4-14.7
					C29.7,43.8,48.9,25.4,68.1,7c5.4-5.2,14.6-5,20.3,0.5c11.5,10.9,22.8,21.9,34.2,32.8c7.1,6.8,14.2,13.7,21.4,20.4
					c6.5,6,9.6,13.6,9.9,22.3c1.2,38.2-24.3,70.4-61.6,77.7C87,161.7,81.4,161.8,76,162.3z"/>
			</defs>
			<clipPath id="SVGID_82_">
				<use xlink:href="#SVGID_81_"  style="overflow:visible;"/>
			</clipPath>
			<line class="st41" x1="192.1" y1="126" x2="-26.6" y2="126"/>
		</g>
		<g>
			<defs>
				<path id="SVGID_83_" d="M76,162.3c-37-1.4-68-29.2-72.7-66.1C2.5,89.9,2.8,83.4,3.2,77c0.4-5.8,3.3-10.7,7.4-14.7
					C29.7,43.8,48.9,25.4,68.1,7c5.4-5.2,14.6-5,20.3,0.5c11.5,10.9,22.8,21.9,34.2,32.8c7.1,6.8,14.2,13.7,21.4,20.4
					c6.5,6,9.6,13.6,9.9,22.3c1.2,38.2-24.3,70.4-61.6,77.7C87,161.7,81.4,161.8,76,162.3z"/>
			</defs>
			<clipPath id="SVGID_84_">
				<use xlink:href="#SVGID_83_"  style="overflow:visible;"/>
			</clipPath>
			<line class="st42" x1="191.7" y1="123.3" x2="-27" y2="123.3"/>
		</g>
		<g>
			<defs>
				<path id="SVGID_85_" d="M76,162.3c-37-1.4-68-29.2-72.7-66.1C2.5,89.9,2.8,83.4,3.2,77c0.4-5.8,3.3-10.7,7.4-14.7
					C29.7,43.8,48.9,25.4,68.1,7c5.4-5.2,14.6-5,20.3,0.5c11.5,10.9,22.8,21.9,34.2,32.8c7.1,6.8,14.2,13.7,21.4,20.4
					c6.5,6,9.6,13.6,9.9,22.3c1.2,38.2-24.3,70.4-61.6,77.7C87,161.7,81.4,161.8,76,162.3z"/>
			</defs>
			<clipPath id="SVGID_86_">
				<use xlink:href="#SVGID_85_"  style="overflow:visible;"/>
			</clipPath>
			<line class="st43" x1="191.7" y1="120.6" x2="-27" y2="120.6"/>
		</g>
		<g>
			<defs>
				<path id="SVGID_87_" d="M76,162.3c-37-1.4-68-29.2-72.7-66.1C2.5,89.9,2.8,83.4,3.2,77c0.4-5.8,3.3-10.7,7.4-14.7
					C29.7,43.8,48.9,25.4,68.1,7c5.4-5.2,14.6-5,20.3,0.5c11.5,10.9,22.8,21.9,34.2,32.8c7.1,6.8,14.2,13.7,21.4,20.4
					c6.5,6,9.6,13.6,9.9,22.3c1.2,38.2-24.3,70.4-61.6,77.7C87,161.7,81.4,161.8,76,162.3z"/>
			</defs>
			<clipPath id="SVGID_88_">
				<use xlink:href="#SVGID_87_"  style="overflow:visible;"/>
			</clipPath>
			<line class="st44" x1="191.7" y1="117.9" x2="-27" y2="117.9"/>
		</g>
		<g>
			<defs>
				<path id="SVGID_89_" d="M76,162.3c-37-1.4-68-29.2-72.7-66.1C2.5,89.9,2.8,83.4,3.2,77c0.4-5.8,3.3-10.7,7.4-14.7
					C29.7,43.8,48.9,25.4,68.1,7c5.4-5.2,14.6-5,20.3,0.5c11.5,10.9,22.8,21.9,34.2,32.8c7.1,6.8,14.2,13.7,21.4,20.4
					c6.5,6,9.6,13.6,9.9,22.3c1.2,38.2-24.3,70.4-61.6,77.7C87,161.7,81.4,161.8,76,162.3z"/>
			</defs>
			<clipPath id="SVGID_90_">
				<use xlink:href="#SVGID_89_"  style="overflow:visible;"/>
			</clipPath>
			<line class="st45" x1="191.7" y1="115.2" x2="-27" y2="115.2"/>
		</g>
		<g>
			<defs>
				<path id="SVGID_91_" d="M76,162.3c-37-1.4-68-29.2-72.7-66.1C2.5,89.9,2.8,83.4,3.2,77c0.4-5.8,3.3-10.7,7.4-14.7
					C29.7,43.8,48.9,25.4,68.1,7c5.4-5.2,14.6-5,20.3,0.5c11.5,10.9,22.8,21.9,34.2,32.8c7.1,6.8,14.2,13.7,21.4,20.4
					c6.5,6,9.6,13.6,9.9,22.3c1.2,38.2-24.3,70.4-61.6,77.7C87,161.7,81.4,161.8,76,162.3z"/>
			</defs>
			<clipPath id="SVGID_92_">
				<use xlink:href="#SVGID_91_"  style="overflow:visible;"/>
			</clipPath>
			<line class="st46" x1="191.7" y1="112.5" x2="-27" y2="112.5"/>
		</g>
		<g>
			<defs>
				<path id="SVGID_93_" d="M76,162.3c-37-1.4-68-29.2-72.7-66.1C2.5,89.9,2.8,83.4,3.2,77c0.4-5.8,3.3-10.7,7.4-14.7
					C29.7,43.8,48.9,25.4,68.1,7c5.4-5.2,14.6-5,20.3,0.5c11.5,10.9,22.8,21.9,34.2,32.8c7.1,6.8,14.2,13.7,21.4,20.4
					c6.5,6,9.6,13.6,9.9,22.3c1.2,38.2-24.3,70.4-61.6,77.7C87,161.7,81.4,161.8,76,162.3z"/>
			</defs>
			<clipPath id="SVGID_94_">
				<use xlink:href="#SVGID_93_"  style="overflow:visible;"/>
			</clipPath>
			<line class="st47" x1="191.7" y1="109.8" x2="-27" y2="109.8"/>
		</g>
		<g>
			<defs>
				<path id="SVGID_95_" d="M76,162.3c-37-1.4-68-29.2-72.7-66.1C2.5,89.9,2.8,83.4,3.2,77c0.4-5.8,3.3-10.7,7.4-14.7
					C29.7,43.8,48.9,25.4,68.1,7c5.4-5.2,14.6-5,20.3,0.5c11.5,10.9,22.8,21.9,34.2,32.8c7.1,6.8,14.2,13.7,21.4,20.4
					c6.5,6,9.6,13.6,9.9,22.3c1.2,38.2-24.3,70.4-61.6,77.7C87,161.7,81.4,161.8,76,162.3z"/>
			</defs>
			<clipPath id="SVGID_96_">
				<use xlink:href="#SVGID_95_"  style="overflow:visible;"/>
			</clipPath>
			<line class="st48" x1="191.7" y1="107.1" x2="-27" y2="107.1"/>
		</g>
		<g>
			<defs>
				<path id="SVGID_97_" d="M76,162.3c-37-1.4-68-29.2-72.7-66.1C2.5,89.9,2.8,83.4,3.2,77c0.4-5.8,3.3-10.7,7.4-14.7
					C29.7,43.8,48.9,25.4,68.1,7c5.4-5.2,14.6-5,20.3,0.5c11.5,10.9,22.8,21.9,34.2,32.8c7.1,6.8,14.2,13.7,21.4,20.4
					c6.5,6,9.6,13.6,9.9,22.3c1.2,38.2-24.3,70.4-61.6,77.7C87,161.7,81.4,161.8,76,162.3z"/>
			</defs>
			<clipPath id="SVGID_98_">
				<use xlink:href="#SVGID_97_"  style="overflow:visible;"/>
			</clipPath>
			<line class="st49" x1="191.7" y1="104.4" x2="-27" y2="104.4"/>
		</g>
		<g>
			<defs>
				<path id="SVGID_99_" d="M76,162.3c-37-1.4-68-29.2-72.7-66.1C2.5,89.9,2.8,83.4,3.2,77c0.4-5.8,3.3-10.7,7.4-14.7
					C29.7,43.8,48.9,25.4,68.1,7c5.4-5.2,14.6-5,20.3,0.5c11.5,10.9,22.8,21.9,34.2,32.8c7.1,6.8,14.2,13.7,21.4,20.4
					c6.5,6,9.6,13.6,9.9,22.3c1.2,38.2-24.3,70.4-61.6,77.7C87,161.7,81.4,161.8,76,162.3z"/>
			</defs>
			<clipPath id="SVGID_100_">
				<use xlink:href="#SVGID_99_"  style="overflow:visible;"/>
			</clipPath>
			<line class="st50" x1="191.7" y1="101.7" x2="-27" y2="101.7"/>
		</g>
		<g>
			<defs>
				<path id="SVGID_101_" d="M76,162.3c-37-1.4-68-29.2-72.7-66.1C2.5,89.9,2.8,83.4,3.2,77c0.4-5.8,3.3-10.7,7.4-14.7
					C29.7,43.8,48.9,25.4,68.1,7c5.4-5.2,14.6-5,20.3,0.5c11.5,10.9,22.8,21.9,34.2,32.8c7.1,6.8,14.2,13.7,21.4,20.4
					c6.5,6,9.6,13.6,9.9,22.3c1.2,38.2-24.3,70.4-61.6,77.7C87,161.7,81.4,161.8,76,162.3z"/>
			</defs>
			<clipPath id="SVGID_102_">
				<use xlink:href="#SVGID_101_"  style="overflow:visible;"/>
			</clipPath>
			<line class="st51" x1="191.7" y1="99" x2="-27" y2="99"/>
		</g>
		<g>
			<defs>
				<path id="SVGID_103_" d="M76,162.3c-37-1.4-68-29.2-72.7-66.1C2.5,89.9,2.8,83.4,3.2,77c0.4-5.8,3.3-10.7,7.4-14.7
					C29.7,43.8,48.9,25.4,68.1,7c5.4-5.2,14.6-5,20.3,0.5c11.5,10.9,22.8,21.9,34.2,32.8c7.1,6.8,14.2,13.7,21.4,20.4
					c6.5,6,9.6,13.6,9.9,22.3c1.2,38.2-24.3,70.4-61.6,77.7C87,161.7,81.4,161.8,76,162.3z"/>
			</defs>
			<clipPath id="SVGID_104_">
				<use xlink:href="#SVGID_103_"  style="overflow:visible;"/>
			</clipPath>
			<line class="st52" x1="191.7" y1="96.3" x2="-27" y2="96.3"/>
		</g>
		<g>
			<defs>
				<path id="SVGID_105_" d="M76,162.3c-37-1.4-68-29.2-72.7-66.1C2.5,89.9,2.8,83.4,3.2,77c0.4-5.8,3.3-10.7,7.4-14.7
					C29.7,43.8,48.9,25.4,68.1,7c5.4-5.2,14.6-5,20.3,0.5c11.5,10.9,22.8,21.9,34.2,32.8c7.1,6.8,14.2,13.7,21.4,20.4
					c6.5,6,9.6,13.6,9.9,22.3c1.2,38.2-24.3,70.4-61.6,77.7C87,161.7,81.4,161.8,76,162.3z"/>
			</defs>
			<clipPath id="SVGID_106_">
				<use xlink:href="#SVGID_105_"  style="overflow:visible;"/>
			</clipPath>
			<line class="st53" x1="191.7" y1="93.6" x2="-27" y2="93.6"/>
		</g>
		<g>
			<defs>
				<path id="SVGID_107_" d="M76,162.3c-37-1.4-68-29.2-72.7-66.1C2.5,89.9,2.8,83.4,3.2,77c0.4-5.8,3.3-10.7,7.4-14.7
					C29.7,43.8,48.9,25.4,68.1,7c5.4-5.2,14.6-5,20.3,0.5c11.5,10.9,22.8,21.9,34.2,32.8c7.1,6.8,14.2,13.7,21.4,20.4
					c6.5,6,9.6,13.6,9.9,22.3c1.2,38.2-24.3,70.4-61.6,77.7C87,161.7,81.4,161.8,76,162.3z"/>
			</defs>
			<clipPath id="SVGID_108_">
				<use xlink:href="#SVGID_107_"  style="overflow:visible;"/>
			</clipPath>
			<line class="st54" x1="191.7" y1="90.9" x2="-27" y2="90.9"/>
		</g>
		<g>
			<defs>
				<path id="SVGID_109_" d="M76,162.3c-37-1.4-68-29.2-72.7-66.1C2.5,89.9,2.8,83.4,3.2,77c0.4-5.8,3.3-10.7,7.4-14.7
					C29.7,43.8,48.9,25.4,68.1,7c5.4-5.2,14.6-5,20.3,0.5c11.5,10.9,22.8,21.9,34.2,32.8c7.1,6.8,14.2,13.7,21.4,20.4
					c6.5,6,9.6,13.6,9.9,22.3c1.2,38.2-24.3,70.4-61.6,77.7C87,161.7,81.4,161.8,76,162.3z"/>
			</defs>
			<clipPath id="SVGID_110_">
				<use xlink:href="#SVGID_109_"  style="overflow:visible;"/>
			</clipPath>
			<line class="st55" x1="191.7" y1="88.2" x2="-27" y2="88.2"/>
		</g>
		<g>
			<defs>
				<path id="SVGID_111_" d="M76,162.3c-37-1.4-68-29.2-72.7-66.1C2.5,89.9,2.8,83.4,3.2,77c0.4-5.8,3.3-10.7,7.4-14.7
					C29.7,43.8,48.9,25.4,68.1,7c5.4-5.2,14.6-5,20.3,0.5c11.5,10.9,22.8,21.9,34.2,32.8c7.1,6.8,14.2,13.7,21.4,20.4
					c6.5,6,9.6,13.6,9.9,22.3c1.2,38.2-24.3,70.4-61.6,77.7C87,161.7,81.4,161.8,76,162.3z"/>
			</defs>
			<clipPath id="SVGID_112_">
				<use xlink:href="#SVGID_111_"  style="overflow:visible;"/>
			</clipPath>
			<line class="st56" x1="191.7" y1="85.5" x2="-27" y2="85.5"/>
		</g>
		<g>
			<defs>
				<path id="SVGID_113_" d="M76,162.3c-37-1.4-68-29.2-72.7-66.1C2.5,89.9,2.8,83.4,3.2,77c0.4-5.8,3.3-10.7,7.4-14.7
					C29.7,43.8,48.9,25.4,68.1,7c5.4-5.2,14.6-5,20.3,0.5c11.5,10.9,22.8,21.9,34.2,32.8c7.1,6.8,14.2,13.7,21.4,20.4
					c6.5,6,9.6,13.6,9.9,22.3c1.2,38.2-24.3,70.4-61.6,77.7C87,161.7,81.4,161.8,76,162.3z"/>
			</defs>
			<clipPath id="SVGID_114_">
				<use xlink:href="#SVGID_113_"  style="overflow:visible;"/>
			</clipPath>
			<line class="st57" x1="191.7" y1="82.8" x2="-27" y2="82.8"/>
		</g>
		<g>
			<defs>
				<path id="SVGID_115_" d="M76,162.3c-37-1.4-68-29.2-72.7-66.1C2.5,89.9,2.8,83.4,3.2,77c0.4-5.8,3.3-10.7,7.4-14.7
					C29.7,43.8,48.9,25.4,68.1,7c5.4-5.2,14.6-5,20.3,0.5c11.5,10.9,22.8,21.9,34.2,32.8c7.1,6.8,14.2,13.7,21.4,20.4
					c6.5,6,9.6,13.6,9.9,22.3c1.2,38.2-24.3,70.4-61.6,77.7C87,161.7,81.4,161.8,76,162.3z"/>
			</defs>
			<clipPath id="SVGID_116_">
				<use xlink:href="#SVGID_115_"  style="overflow:visible;"/>
			</clipPath>
			<line class="st58" x1="191.7" y1="80.1" x2="-27" y2="80.1"/>
		</g>
		<g>
			<defs>
				<path id="SVGID_117_" d="M76,162.3c-37-1.4-68-29.2-72.7-66.1C2.5,89.9,2.8,83.4,3.2,77c0.4-5.8,3.3-10.7,7.4-14.7
					C29.7,43.8,48.9,25.4,68.1,7c5.4-5.2,14.6-5,20.3,0.5c11.5,10.9,22.8,21.9,34.2,32.8c7.1,6.8,14.2,13.7,21.4,20.4
					c6.5,6,9.6,13.6,9.9,22.3c1.2,38.2-24.3,70.4-61.6,77.7C87,161.7,81.4,161.8,76,162.3z"/>
			</defs>
			<clipPath id="SVGID_118_">
				<use xlink:href="#SVGID_117_"  style="overflow:visible;"/>
			</clipPath>
			<line class="st59" x1="191.7" y1="77.4" x2="-27" y2="77.4"/>
		</g>
	</g>
	<g>
		<path class="st60" d="M57.6,129.2h-1.8v-0.9h4.7v0.9h-1.8v8.5h-1.1L57.6,129.2L57.6,129.2z"/>
		<path class="st60" d="M62.4,132.4h2.5v0.9h-2.5v3.5h3.3v0.9h-4.3v-9.5h4.3v0.9h-3.3V132.4z"/>
		<path class="st60" d="M66.7,128.3h2.1c0.8,0,1.6,0,2.2,1c0.4,0.6,0.4,1.2,0.4,1.7c0,1-0.2,1.5-0.4,1.8c-0.3,0.5-0.6,0.6-0.9,0.7
			l1.5,4.4h-1.2l-1.4-4.1h-1.3v4.1h-1.1L66.7,128.3L66.7,128.3z M67.8,132.7h1c0.5,0,0.8,0,1.1-0.4c0.3-0.3,0.4-0.9,0.4-1.3
			c0-0.2,0-0.9-0.5-1.4c-0.2-0.3-0.6-0.4-1.1-0.4h-1v3.5H67.8z"/>
		<path class="st60" d="M72.7,128.3h2.1c0.8,0,1.6,0,2.2,1c0.4,0.6,0.4,1.2,0.4,1.7c0,1-0.2,1.5-0.4,1.8c-0.3,0.5-0.6,0.6-0.9,0.7
			l1.5,4.4h-1.1l-1.4-4.1h-1.3v4.1h-1.1V128.3z M73.8,132.7h1c0.5,0,0.8,0,1.1-0.4c0.3-0.3,0.4-0.9,0.4-1.3c0-0.2,0-0.9-0.5-1.4
			c-0.2-0.3-0.6-0.4-1.1-0.4h-1v3.5H73.8z"/>
		<path class="st60" d="M78.8,128.3h1.1v9.5h-1.1V128.3z"/>
		<path class="st60" d="M82.5,129.2h-1.8v-0.9h4.7v0.9h-1.8v8.5h-1.1L82.5,129.2L82.5,129.2z"/>
		<path class="st60" d="M91.2,133c0,1.6-0.2,2.9-0.8,3.9c-0.7,1.1-1.6,1.1-2,1.1c-1.9,0-2.8-1.5-2.8-4.8c0-2.3,0.5-5,2.8-5
			C90.5,128.1,91.2,130.3,91.2,133z M86.7,132.9c0,3.2,0.7,4.1,1.7,4.1c1.3,0,1.7-1.5,1.7-4c0-2.6-0.5-4-1.7-4
			C87.2,129.1,86.7,130.3,86.7,132.9z"/>
		<path class="st60" d="M92.7,128.3h2.1c0.8,0,1.6,0,2.2,1c0.4,0.6,0.4,1.2,0.4,1.7c0,1-0.2,1.5-0.4,1.8c-0.3,0.5-0.6,0.6-0.9,0.7
			l1.5,4.4h-1.2l-1.4-4.1h-1.3v4.1h-1.1L92.7,128.3L92.7,128.3z M93.8,132.7h1c0.5,0,0.8,0,1.1-0.4c0.3-0.3,0.4-0.9,0.4-1.3
			c0-0.2,0-0.9-0.5-1.4c-0.2-0.3-0.6-0.4-1.2-0.4h-1v3.5H93.8z"/>
		<path class="st60" d="M99.8,133.8l-2.2-5.5h1.1l1.6,4.4l1.6-4.4h1l-2.2,5.5v4h-1.1v-4H99.8z"/>
	</g>
	<path class="st60" d="M36,48.4c-2.1-4.4,3.3-8.9,5.9-11.1c0,0,28.6-27.5,29.6-28.4c1.2-1,4.1-3.5,6.8-3.5s5.6,2.4,6.9,3.5
		c1.2,1.1,37.5,35.9,37.5,35.9c1.4,1.2,1,5.5-1.2,8c-1.9,2.2-6.3,2.9-6.3,2.9c-3.3,1.3-8.5,1.1-11.7-0.4l-7.3-3.6
		c-3.2-1.5-6.7-2.9-7.8-2.9c-1.1-0.1-5.6,3-8.1,5.2L67.8,65.4c-2.5,2.3-7,2.7-10,1C57.8,66.3,38.1,52.8,36,48.4z"/>
	<g>
		<g>
			<g>
				<path class="st61" d="M24.8,91.6c-0.7,1.8-1.1,2.8-1.8,4.6c-1.5,0.3-2.2,0.5-3.7,0.8c0,3.8,0,5.7,0,9.5c-0.6,0.1-1,0.2-1.6,0.4
					c0-3.8,0-5.7,0-9.6c-0.4-0.6-0.5-0.8-0.9-1.4c0.4-0.8,0.5-1.1,0.9-1.9c0-3.9,0-5.8,0-9.7c2.1-0.5,3.2-0.7,5.3-1.2
					c0.7,1.5,1.1,2.3,1.8,3.8C24.8,88.9,24.8,89.8,24.8,91.6z M23.2,90.6c0-0.7,0-1,0-1.7c-0.4-0.9-0.6-1.3-0.9-2.1
					c-1.2,0.3-1.8,0.4-3,0.7c0,2.6,0,3.9,0,6.4c1.2-0.3,1.8-0.4,3-0.7C22.6,92.1,22.8,91.6,23.2,90.6z"/>
				<path class="st61" d="M36.6,103.2c-0.7,0.1-1,0.2-1.7,0.3c-0.4-2.2-0.6-3.3-1-5.4c-1.8,0.3-2.7,0.5-4.5,0.8
					c-0.4,2.3-0.6,3.5-1,5.8c-0.7,0.1-1,0.2-1.7,0.3c0.7-3.9,1.1-5.9,1.8-9.9c-0.3-0.6-0.5-0.9-0.8-1.5c0.5-0.7,0.8-1,1.3-1.7
					c0.7-4.1,1.1-6.2,1.8-10.3c0.7-0.1,1-0.2,1.7-0.3C34.1,90.1,34.9,94.5,36.6,103.2z M33.2,94.9c-0.7-3.6-1-5.4-1.7-8.9
					c-0.7,3.8-1,5.7-1.7,9.5C31.2,95.2,31.9,95.1,33.2,94.9z"/>
				<path class="st61" d="M46.5,101.8c-0.7,0.1-1.1,0.1-1.8,0.2c-0.9-3.7-1.4-5.5-2.3-9.2c-0.8,0.1-1.2,0.2-2,0.3c0,3.8,0,5.7,0,9.5
					c-0.7,0.1-1,0.1-1.6,0.2c0-3.8,0-5.7,0-9.5c-0.4-0.6-0.6-0.9-0.9-1.5c0.4-0.7,0.6-1.1,0.9-1.8c0-3.9,0-5.8,0-9.7
					c2.2-0.3,3.2-0.5,5.4-0.8c0.7,1.6,1.1,2.4,1.8,4c0,1.8,0,2.7,0,4.5c-0.7,1.8-1.1,2.7-1.8,4.5C45.1,96.3,45.6,98.1,46.5,101.8z
					 M44.4,86.9c0-0.7,0-1,0-1.7c-0.4-0.9-0.6-1.3-1-2.2c-1.2,0.2-1.8,0.2-3,0.4c0,2.6,0,3.9,0,6.4c1.2-0.2,1.8-0.3,3-0.4
					C43.8,88.4,44,87.9,44.4,86.9z"/>
				<path class="st61" d="M56.5,97c-0.8,1.6-1.3,2.4-2.1,3.9c-1.5,0.1-2.3,0.2-3.8,0.4c-0.8-1.4-1.3-2.1-2.1-3.5c0-1.6,0-2.4,0-4.1
					c0.7-0.1,1-0.1,1.6-0.2c0,1,0,1.5,0,2.5c0.5,0.8,0.7,1.1,1.2,1.9c1-0.1,1.4-0.1,2.4-0.2c0.5-0.9,0.7-1.3,1.2-2.1
					c0-1,0-1.5,0-2.5c-0.5-0.8-0.7-1.1-1.2-1.9c-1.2,0.1-1.7,0.2-2.9,0.3c-0.8-1.4-1.3-2.1-2.1-3.5c0-2.1,0-3.1,0-5.2
					c0.8-1.6,1.3-2.4,2.1-4c1.4-0.2,2.1-0.2,3.6-0.4c0.8,1.4,1.3,2.1,2.1,3.6c0,1.5,0,2.2,0,3.7c-0.6,0.1-1,0.1-1.6,0.1
					c0-0.9,0-1.4,0-2.3c-0.4-0.7-0.7-1.1-1.1-1.8c-0.9,0.1-1.4,0.1-2.3,0.2c-0.4,0.8-0.7,1.2-1.1,2c0,0.9,0,1.4,0,2.3
					c0.4,0.7,0.6,1.1,1.1,1.8c1.2-0.1,1.8-0.2,3-0.3c0.8,1.4,1.3,2.1,2.1,3.6C56.5,93.6,56.5,94.8,56.5,97z"/>
				<path class="st61" d="M66.2,100.1c-2.7,0.1-4.1,0.2-6.8,0.4c0-3.8,0-5.7,0-9.5c-0.4-0.6-0.6-1-0.9-1.6c0.4-0.7,0.6-1,0.9-1.7
					c0-3.9,0-5.8,0-9.7c2.7-0.2,4.1-0.3,6.8-0.4c0,1.3,0,2,0,3.3c-2.1,0.1-3.1,0.2-5.1,0.3c0,2.6,0,3.8,0,6.4c1.6-0.1,2.4-0.2,4-0.2
					c0,1.3,0,2,0,3.3c-1.6,0.1-2.4,0.1-4,0.2c0,2.5,0,3.7,0,6.2c2.1-0.1,3.1-0.2,5.1-0.3C66.2,98.1,66.2,98.8,66.2,100.1z"/>
				<path class="st61" d="M77.9,88.6c-0.4,0.7-0.6,1-0.9,1.6c0,3.8,0,5.7,0,9.6c-0.7,0-1,0-1.6,0c-1.9-6.6-2.8-10-4.7-16.6
					c0,6.7,0,10,0,16.7c-0.7,0-1,0-1.6,0.1c0-3.8,0-5.7,0-9.6c-0.4-0.6-0.6-1-0.9-1.6c0.4-0.7,0.6-1,0.9-1.7c0-3.9,0-5.8,0-9.7
					c0.7,0,1,0,1.7-0.1c1.8,6.4,2.8,9.6,4.6,16.1c0-6.5,0-9.7,0-16.2c0.7,0,1,0,1.6,0c0,3.9,0,5.8,0,9.7
					C77.3,87.6,77.5,87.9,77.9,88.6z"/>
				<path class="st61" d="M89.4,88.8c-0.4,0.6-0.6,1-0.9,1.6c0,3.8,0,5.7,0,9.6c-0.7,0-1,0-1.6-0.1c-1.9-6.7-2.8-10.1-4.7-16.8
					c0,6.7,0,10,0,16.7c-0.7,0-1,0-1.6,0c0-3.8,0-5.7,0-9.6c-0.4-0.7-0.6-1-0.9-1.6c0.4-0.7,0.6-1,0.9-1.7c0-3.9,0-5.8,0-9.7
					c0.7,0,1,0,1.7,0c1.8,6.5,2.8,9.8,4.6,16.3c0-6.5,0-9.7,0-16.2c0.7,0,1,0,1.6,0.1c0,3.9,0,5.8,0,9.7
					C88.9,87.8,89.1,88.1,89.4,88.8z"/>
				<path class="st61" d="M106.5,96.9c-0.7,1.6-1.1,2.4-1.8,4c-2.2-0.2-3.4-0.3-5.6-0.5c0-3.8,0-5.7,0-9.5c-0.4-0.7-0.6-1-0.9-1.7
					c0.4-0.6,0.6-0.9,0.9-1.6c0-3.9,0-5.8,0-9.7c2.2,0.2,3.3,0.3,5.4,0.5c0.7,1.8,1.1,2.6,1.8,4.4c0,1.8,0,2.7,0,4.5
					c-0.4,0.9-0.6,1.4-1,2.3c0.5,1,0.7,1.5,1.1,2.6C106.5,94.1,106.5,95.1,106.5,96.9z M104.8,85.8c0-0.7,0-1,0-1.7
					c-0.4-1-0.6-1.5-1-2.4c-1.2-0.1-1.8-0.2-3-0.3c0,2.6,0,3.8,0,6.4c1.2,0.1,1.8,0.1,3,0.3C104.2,87.2,104.4,86.7,104.8,85.8z
					 M104.9,95.4c0-0.7,0-1.1,0-1.9c-0.4-0.8-0.5-1.2-0.9-2.1c-1.3-0.1-1.9-0.2-3.2-0.3c0,2.5,0,3.7,0,6.2c1.3,0.1,1.9,0.2,3.2,0.3
					C104.4,96.7,104.5,96.3,104.9,95.4z"/>
				<path class="st61" d="M118.3,91.4c-0.4,0.6-0.6,0.9-0.9,1.5c0,2.3,0,3.5,0,5.8c-0.8,1.4-1.3,2.1-2.1,3.5c-1.6-0.2-2.4-0.3-4-0.5
					c-0.8-1.6-1.3-2.4-2.1-4c0-2.3,0-3.5,0-5.8c-0.4-0.7-0.6-1-0.9-1.7c0.4-0.6,0.6-0.9,0.9-1.6c0-2.4,0-3.6,0-5.9
					c0.8-1.4,1.3-2.1,2.1-3.5c1.6,0.2,2.4,0.3,4,0.5c0.8,1.6,1.3,2.4,2.1,4c0,2.4,0,3.6,0,5.9C117.7,90.3,117.9,90.7,118.3,91.4z
					 M115.7,97c0-4.8,0-7.2,0-11.9c-0.5-0.9-0.7-1.3-1.2-2.2c-1-0.1-1.5-0.2-2.6-0.3c-0.5,0.8-0.7,1.1-1.2,1.9c0,4.8,0,7.2,0,11.9
					c0.5,0.9,0.7,1.3,1.2,2.1c1,0.1,1.5,0.2,2.6,0.3C115,98.1,115.2,97.7,115.7,97z"/>
				<path class="st61" d="M133.5,82.8c-0.6,3.8-0.9,5.7-1.5,9.5c0.4,0.8,0.6,1.2,0.9,2c-0.6,0.4-0.9,0.7-1.4,1.1
					c-0.6,3.7-0.9,5.5-1.5,9.2c-0.7-0.1-1.1-0.2-1.9-0.4c-0.8-6.8-1.2-10.2-1.9-16.9c-0.8,6.5-1.2,9.8-1.9,16.3
					c-0.7-0.1-1.1-0.2-1.9-0.3c-0.6-3.9-0.9-5.9-1.5-9.8c-0.6-0.7-0.9-1-1.4-1.6c0.4-0.7,0.6-1,0.9-1.7c-0.6-4-0.9-6-1.5-10
					c0.7,0.1,1.1,0.2,1.9,0.3c1,7.3,1.5,11,2.6,18.4c0.8-7.1,1.2-10.6,1.9-17.6c0.7,0.1,1.1,0.2,1.8,0.3c0.8,7.3,1.2,11,1.9,18.3
					c1-7,1.5-10.5,2.5-17.5C132.4,82.5,132.7,82.6,133.5,82.8z"/>
				<path class="st61" d="M142.1,107.2c-2.7-0.6-4-0.9-6.7-1.5c0-3.8,0-5.7,0-9.6c-0.4-0.7-0.6-1.1-0.9-1.8c0.4-0.6,0.6-0.9,0.9-1.5
					c0-3.9,0-5.8,0-9.7c0.6,0.1,1,0.2,1.6,0.3c0,7.7,0,11.5,0,19.2c2,0.4,3,0.7,5.1,1.2C142.1,105.2,142.1,105.9,142.1,107.2z"/>
			</g>
		</g>
		<g>
			<g>
				<path class="st60" d="M24.8,90.6c-0.7,1.8-1.1,2.8-1.8,4.6c-1.5,0.3-2.2,0.5-3.7,0.8c0,3.8,0,5.7,0,9.5c-0.6,0.1-1,0.2-1.6,0.4
					c0-3.8,0-5.7,0-9.6c-0.4-0.6-0.5-0.8-0.9-1.4c0.4-0.8,0.5-1.1,0.9-1.9c0-3.9,0-5.8,0-9.7c2.1-0.5,3.2-0.7,5.3-1.2
					c0.7,1.5,1.1,2.3,1.8,3.8C24.8,87.9,24.8,88.8,24.8,90.6z M23.2,89.6c0-0.7,0-1,0-1.7c-0.4-0.9-0.6-1.3-0.9-2.1
					c-1.2,0.3-1.8,0.4-3,0.7c0,2.6,0,3.9,0,6.4c1.2-0.3,1.8-0.4,3-0.7C22.6,91.1,22.8,90.6,23.2,89.6z"/>
				<path class="st60" d="M36.6,102.2c-0.7,0.1-1,0.2-1.7,0.3c-0.4-2.2-0.6-3.3-1-5.4c-1.8,0.3-2.7,0.5-4.5,0.8
					c-0.4,2.3-0.6,3.5-1,5.8c-0.7,0.1-1,0.2-1.7,0.3c0.7-4,1.1-5.9,1.8-9.9c-0.3-0.6-0.5-0.9-0.8-1.5c0.5-0.7,0.8-1,1.3-1.7
					c0.7-4.1,1.1-6.2,1.8-10.3c0.7-0.1,1-0.2,1.7-0.3C34.1,89.1,34.9,93.5,36.6,102.2z M33.2,93.9c-0.7-3.6-1-5.4-1.7-8.9
					c-0.7,3.8-1,5.7-1.7,9.5C31.2,94.2,31.9,94.1,33.2,93.9z"/>
				<path class="st60" d="M46.5,100.8c-0.7,0.1-1.1,0.1-1.8,0.2c-0.9-3.7-1.4-5.5-2.3-9.2c-0.8,0.1-1.2,0.2-2,0.3c0,3.8,0,5.7,0,9.5
					c-0.7,0.1-1,0.1-1.6,0.2c0-3.8,0-5.7,0-9.5c-0.4-0.6-0.6-0.9-0.9-1.5c0.4-0.7,0.6-1.1,0.9-1.8c0-3.9,0-5.8,0-9.7
					c2.2-0.3,3.2-0.5,5.4-0.8c0.7,1.6,1.1,2.4,1.8,4c0,1.8,0,2.7,0,4.5c-0.7,1.8-1.1,2.7-1.8,4.5C45.1,95.3,45.6,97.1,46.5,100.8z
					 M44.4,85.9c0-0.7,0-1,0-1.7c-0.4-0.9-0.6-1.3-1-2.2c-1.2,0.2-1.8,0.2-3,0.4c0,2.6,0,3.9,0,6.4c1.2-0.2,1.8-0.3,3-0.4
					C43.8,87.4,44,86.9,44.4,85.9z"/>
				<path class="st60" d="M56.5,96c-0.8,1.6-1.3,2.4-2.1,3.9c-1.5,0.1-2.3,0.2-3.8,0.4c-0.8-1.4-1.3-2.1-2.1-3.5c0-1.6,0-2.4,0-4.1
					c0.7-0.1,1-0.1,1.6-0.2c0,1,0,1.5,0,2.5c0.5,0.8,0.7,1.1,1.2,1.9c1-0.1,1.4-0.2,2.4-0.2c0.5-0.9,0.7-1.3,1.2-2.1
					c0-1,0-1.5,0-2.5c-0.5-0.8-0.7-1.1-1.2-1.9c-1.2,0.1-1.7,0.2-2.9,0.3c-0.8-1.4-1.3-2.1-2.1-3.5c0-2.1,0-3.1,0-5.2
					c0.8-1.6,1.3-2.4,2.1-4c1.4-0.2,2.1-0.2,3.6-0.4c0.8,1.4,1.3,2.1,2.1,3.6c0,1.5,0,2.2,0,3.7c-0.6,0.1-1,0.1-1.6,0.1
					c0-0.9,0-1.4,0-2.3c-0.4-0.7-0.7-1.1-1.1-1.8c-0.9,0.1-1.4,0.1-2.3,0.2c-0.4,0.8-0.7,1.2-1.1,2c0,0.9,0,1.4,0,2.3
					c0.4,0.7,0.6,1.1,1.1,1.8c1.2-0.1,1.8-0.2,3-0.3c0.8,1.4,1.3,2.1,2.1,3.6C56.5,92.6,56.5,93.8,56.5,96z"/>
				<path class="st60" d="M66.2,99.1c-2.7,0.1-4.1,0.2-6.8,0.4c0-3.8,0-5.7,0-9.5c-0.4-0.6-0.6-1-0.9-1.6c0.4-0.7,0.6-1,0.9-1.7
					c0-3.9,0-5.8,0-9.7c2.7-0.2,4.1-0.3,6.8-0.4c0,1.3,0,2,0,3.3c-2.1,0.1-3.1,0.2-5.1,0.3c0,2.6,0,3.8,0,6.4c1.6-0.1,2.4-0.2,4-0.2
					c0,1.3,0,2,0,3.3c-1.6,0.1-2.4,0.1-4,0.2c0,2.5,0,3.7,0,6.2c2.1-0.1,3.1-0.2,5.1-0.3C66.2,97.1,66.2,97.8,66.2,99.1z"/>
				<path class="st60" d="M77.9,87.6c-0.4,0.7-0.6,1-0.9,1.6c0,3.8,0,5.7,0,9.5c-0.7,0-1,0-1.6,0c-1.9-6.6-2.8-9.9-4.7-16.6
					c0,6.7,0,10,0,16.7c-0.7,0-1,0-1.6,0.1c0-3.8,0-5.7,0-9.5c-0.4-0.6-0.6-1-0.9-1.6c0.4-0.7,0.6-1,0.9-1.7c0-3.9,0-5.8,0-9.7
					c0.7,0,1,0,1.7-0.1c1.8,6.4,2.8,9.7,4.6,16.1c0-6.5,0-9.7,0-16.2c0.7,0,1,0,1.6,0c0,3.9,0,5.8,0,9.7
					C77.3,86.6,77.5,86.9,77.9,87.6z"/>
				<path class="st60" d="M89.4,87.8c-0.4,0.6-0.6,1-0.9,1.6c0,3.8,0,5.7,0,9.5c-0.7,0-1,0-1.6-0.1C85,92.1,84.1,88.7,82.2,82
					c0,6.7,0,10,0,16.7c-0.7,0-1,0-1.6,0c0-3.8,0-5.7,0-9.5c-0.4-0.7-0.6-1-0.9-1.6c0.4-0.7,0.6-1,0.9-1.7c0-3.9,0-5.8,0-9.7
					c0.7,0,1,0,1.7,0c1.8,6.5,2.8,9.8,4.6,16.3c0-6.5,0-9.7,0-16.2c0.7,0,1,0,1.6,0.1c0,3.9,0,5.8,0,9.7
					C88.9,86.8,89,87.1,89.4,87.8z"/>
				<path class="st60" d="M106.5,95.9c-0.7,1.6-1.1,2.4-1.8,4c-2.2-0.2-3.4-0.3-5.6-0.5c0-3.8,0-5.7,0-9.6c-0.4-0.7-0.6-1-0.9-1.7
					c0.4-0.6,0.6-0.9,0.9-1.6c0-3.9,0-5.8,0-9.7c2.2,0.2,3.3,0.3,5.4,0.5c0.7,1.8,1.1,2.6,1.8,4.4c0,1.8,0,2.7,0,4.5
					c-0.4,0.9-0.6,1.4-1,2.3c0.5,1,0.7,1.5,1.1,2.6C106.5,93.1,106.5,94.1,106.5,95.9z M104.8,84.8c0-0.7,0-1,0-1.7
					c-0.4-1-0.6-1.5-1-2.4c-1.2-0.1-1.8-0.2-3-0.3c0,2.6,0,3.8,0,6.4c1.2,0.1,1.8,0.1,3,0.3C104.2,86.2,104.4,85.7,104.8,84.8z
					 M104.9,94.4c0-0.7,0-1.1,0-1.9c-0.4-0.8-0.5-1.2-0.9-2.1c-1.3-0.1-1.9-0.2-3.2-0.3c0,2.5,0,3.7,0,6.2c1.3,0.1,1.9,0.2,3.2,0.3
					C104.4,95.7,104.5,95.3,104.9,94.4z"/>
				<path class="st60" d="M118.3,90.4c-0.4,0.6-0.6,0.9-0.9,1.5c0,2.3,0,3.5,0,5.8c-0.8,1.4-1.3,2.1-2.1,3.5c-1.6-0.2-2.4-0.3-4-0.5
					c-0.8-1.6-1.3-2.4-2.1-4c0-2.3,0-3.5,0-5.8c-0.4-0.7-0.6-1-0.9-1.7c0.4-0.6,0.6-0.9,0.9-1.6c0-2.4,0-3.6,0-5.9
					c0.8-1.4,1.3-2.1,2.1-3.5c1.6,0.2,2.4,0.3,4,0.5c0.8,1.6,1.3,2.4,2.1,4c0,2.4,0,3.6,0,5.9C117.7,89.4,117.9,89.7,118.3,90.4z
					 M115.7,96c0-4.8,0-7.1,0-11.9c-0.5-0.9-0.7-1.3-1.2-2.2c-1-0.1-1.5-0.2-2.6-0.3c-0.5,0.8-0.7,1.1-1.2,1.9c0,4.8,0,7.2,0,11.9
					c0.5,0.9,0.7,1.3,1.2,2.1c1,0.1,1.5,0.2,2.6,0.3C115,97.1,115.2,96.7,115.7,96z"/>
				<path class="st60" d="M133.5,81.8c-0.6,3.8-0.9,5.7-1.5,9.5c0.4,0.8,0.6,1.2,0.9,2c-0.6,0.4-0.9,0.7-1.4,1.1
					c-0.6,3.7-0.9,5.5-1.5,9.2c-0.7-0.1-1.1-0.2-1.9-0.4c-0.8-6.8-1.2-10.2-1.9-16.9c-0.8,6.5-1.2,9.8-1.9,16.3
					c-0.7-0.1-1.1-0.2-1.9-0.3c-0.6-3.9-0.9-5.9-1.5-9.8c-0.6-0.7-0.9-1-1.4-1.6c0.4-0.7,0.6-1,0.9-1.7c-0.6-4-0.9-6-1.5-10
					c0.7,0.1,1.1,0.2,1.9,0.3c1,7.4,1.5,11,2.6,18.4c0.8-7.1,1.2-10.6,1.9-17.6c0.7,0.1,1.1,0.2,1.9,0.3c0.8,7.3,1.2,11,1.9,18.3
					c1-7,1.5-10.5,2.5-17.5C132.4,81.5,132.7,81.6,133.5,81.8z"/>
				<path class="st60" d="M142.1,106.2c-2.7-0.6-4-0.9-6.7-1.5c0-3.8,0-5.7,0-9.6c-0.4-0.7-0.6-1.1-0.9-1.8c0.4-0.6,0.6-0.9,0.9-1.5
					c0-3.9,0-5.8,0-9.7c0.6,0.1,1,0.2,1.6,0.4c0,7.7,0,11.5,0,19.2c2,0.4,3,0.7,5.1,1.2C142.1,104.2,142.1,104.9,142.1,106.2z"/>
			</g>
		</g>
	</g>
	<g>
		<line class="st62" x1="51.9" y1="114.1" x2="65.7" y2="114.1"/>
		<line class="st62" x1="93.1" y1="114.1" x2="107" y2="114.1"/>
		<g>
			<path class="st60" d="M88.5,119.7c-2.3-2.3-4.1-3.6-7.5-7c-3.3-3.3-4.7-5.1-7-7.5c-0.5-0.5-1.2-0.7-1.8-0.7
				c-0.7,0-1.4,0.3-1.9,0.8c-1,1-1.1,2.7,0,3.8c2.3,2.3,4.1,3.6,7.5,7c3.3,3.3,4.7,5.1,7,7.5c0.5,0.5,1.2,0.8,1.8,0.8
				c0.7,0,1.4-0.3,1.9-0.8C89.5,122.4,89.6,120.7,88.5,119.7z"/>
			<g>
				<path class="st60" d="M75.5,114.6l-6.9,6.1c-0.4,0.4-0.4,1,0,1.3c0.1,0.1,0.1,0.1,0.2,0.2c0,0.1,0.1,0.2,0.2,0.2
					c0.4,0.4,0.9,0.4,1.3,0l6.4-6.8C76.2,115.3,75.8,115,75.5,114.6z"/>
				<path class="st60" d="M80.8,111.7l0.2-0.2l6.5-5.8l0.1-0.1c0.8-0.8,0.7-1.5,0.3-1.9c-0.5-0.5-1.3-0.4-2,0.3l-5.9,6.2l-0.3,0.3
					C80,110.9,80.4,111.3,80.8,111.7z"/>
			</g>
			<g>
				<path class="st60" d="M77.5,116.6l-6.9,6.1c-0.4,0.4-0.4,1,0,1.3c0.1,0.1,0.1,0.1,0.2,0.2c0,0.1,0.1,0.2,0.2,0.2
					c0.4,0.4,0.9,0.4,1.3,0l6.4-6.8C78.2,117.3,77.8,117,77.5,116.6z"/>
				<path class="st60" d="M82.8,113.7l0.2-0.2l6.5-5.8l0.1-0.1c0.8-0.8,0.7-1.5,0.3-1.9c-0.4-0.5-1.3-0.4-2.1,0.3l-5.9,6.3l-0.3,0.3
					C82,112.9,82.4,113.3,82.8,113.7z"/>
			</g>
		</g>
	</g>
</g>
<g>
	<path class="st60" d="M138,83.6v-0.3h1.6v0.3H139v1.6h-0.4v-1.6H138z M140.5,83.3l0.5,1.4l0.5-1.4h0.5v1.9h-0.3v-1.5l-0.5,1.5h-0.3
		l-0.5-1.5v1.5h-0.3v-1.9H140.5z"/>
</g>
</svg>
