<?xml version="1.0" encoding="utf-8"?>
<!-- Generator: Adobe Illustrator 21.1.0, SVG Export Plug-In . SVG Version: 6.00 Build 0)  -->
<svg version="1.1" id="Layer_1" xmlns="http://www.w3.org/2000/svg" xmlns:xlink="http://www.w3.org/1999/xlink" x="0px" y="0px"
	 viewBox="0 0 173.4 173.4" style="enable-background:new 0 0 173.4 173.4;" xml:space="preserve">
<style type="text/css">
	.st0{fill:#231F1F;}
	.st1{fill:none;}
	.st2{fill:#FFFFFF;}
</style>
<g>
	<g>
		
			<rect x="25.4" y="25.4" transform="matrix(0.7071 -0.7071 0.7071 0.7071 -35.9096 86.6919)" class="st0" width="122.6" height="122.6"/>
		<line class="st1" x1="60.7" y1="134.4" x2="37.8" y2="111.5"/>
		<line class="st1" x1="112.1" y1="38.3" x2="134.6" y2="60.9"/>
		<polygon class="st2" points="131.3,16.7 86.9,61.2 42.8,17 17.7,42.1 61.8,86.3 16.3,131.8 41,156.6 86.5,111.1 132.1,156.7 
			157.1,131.6 111.6,86 156,41.5 		"/>
		<polygon class="st0" points="131.3,16.7 130.4,15.9 86.9,59.4 42.8,15.3 16,42.1 60.1,86.3 14.5,131.8 41,158.4 86.5,112.8 
			132.1,158.4 158.9,131.6 113.3,86 157.7,41.5 131.3,15 130.4,15.9 131.3,16.7 130.4,17.6 154.2,41.5 109.8,86 155.4,131.6 
			132.1,154.9 86.5,109.3 41,154.9 18,131.8 63.5,86.3 19.5,42.1 42.8,18.8 86.9,62.9 132.1,17.6 131.3,16.7 130.4,17.6 		"/>
		<path class="st0" d="M40.3,115.7c3.3-3.3,6.9-5.9,10.4-7.7c0.8-0.4,1.1-0.3,1.6,0.4c1.3,2.1,4.7,7.4,6.2,12.8
			c1.5,5.4,0.8,8.9-1.3,11s-5.2,3.1-11,1.5c-5.8-1.5-12.1-5.4-12.7-5.9c-0.7-0.4-0.9-0.7-0.5-1.6C34.4,122.5,36.9,119.1,40.3,115.7"
			/>
		<path class="st2" d="M47.6,118.4c-0.2-1-0.9-3.6-1.4-4.4c0.6,0.7,1.9,2.5,2.4,3.8c1.6-0.9,5.4-3.3,6.6-1.7
			c0.9,1.2,0.7,4.6-1.4,9.1c0.2,0.5,2.6,5.5,2.5,5.7c-0.3-0.1-2-3.6-2.8-5c-0.4,0.8-1.6,3-2,3.1c0.5-1,1.1-2.2,1.5-3.8
			c-0.2-0.5-2.9-5.4-3.3-6.2c-0.2,0-0.3,0.1-0.5,0.2c0.2,0.5,1.3,3.3,1.4,4.1c0.2,1.5-0.2,1.8-1.4,1.6c-0.2,0-1.2-0.2-1.8-0.4
			c0.4,0.5,1.5,2.5,1.8,3.3c0.7,1.7,0.8,2.5-1.6,2.7c-2.8,0.3-7.8-1.5-9.8-2.3c-1.1-0.5-3.2-1.4-3.6-1.8c1.4,0.4,5.7,1.5,9.5,1
			c1.3-0.2,1.7-0.9,1.5-2.1c-0.2-0.9-0.8-2.4-1.5-3.3c-0.9,0.6-2.6,2.1-3,2.2c0.6-0.6,2.1-2,2.7-2.5c-0.1-0.1-0.2-0.4-0.5-0.6
			c0.4,0.2,0.6,0.2,0.9,0.3C44.6,120.8,46.2,119.4,47.6,118.4"/>
		<path class="st0" d="M44.4,121.7c0.7-0.5,2.6-1.7,3.5-2c0.2,0.6,0.3,1.8-0.2,2.3C47,122.5,45.5,122.1,44.4,121.7"/>
		<path class="st0" d="M50.8,118.6c0.9-0.2,1.7,0,2.1,0.8c0.4,0.9,0.7,3.1,0.3,4.4C52.8,123,51.3,119.7,50.8,118.6"/>
		<polygon class="st0" points="118.5,60.3 111.3,53.1 113.1,51.3 120.3,58.6 		"/>
		<polygon class="st0" points="129,49.9 118.9,49.6 118.9,49.7 124,54.8 122.3,56.6 115.1,49.3 117.1,47.3 127.2,47.6 127.2,47.5 
			122,42.4 123.8,40.6 131,47.9 		"/>
		<polygon class="st0" points="65,102.2 70.9,108 69.1,109.8 63.3,104 59.8,107.4 58.4,106 67.1,97.4 68.5,98.8 		"/>
		<polygon class="st0" points="76.1,102.9 68.9,95.6 76.7,87.8 78.1,89.2 72,95.3 73.5,96.7 77.7,92.5 79.1,93.9 74.9,98.1 
			76.5,99.7 82.8,93.4 84.2,94.8 		"/>
		<path class="st0" d="M88.4,82.8l-4,4l-1.9-1.9l3.9-4c0.8-0.7,1.6-0.8,2.1-0.2C89.2,81.2,89.1,82,88.4,82.8 M95.4,83.6l-4.5-0.9
			c0.8-1.4,0.6-2.7-0.5-3.8c-1.4-1.4-3.5-1.3-5.1,0.4l-5.9,5.9l7.2,7.2l1.7-1.8L85.8,88l3.3-3.3l4.3,0.8L95.4,83.6z"/>
		<path class="st0" d="M111,62l-3.2,3.2l-1.4-4.5L111,62z M117.3,61.6l-11-3.4l-2.2,2.2l3.4,11.1l1.8-1.8l-0.7-2.4l4.6-4.6l2.4,0.7
			L117.3,61.6z"/>
		<path class="st0" d="M99,72.1l-4,4l-1.9-1.9l4-4c0.7-0.7,1.6-0.8,2.1-0.3C99.8,70.6,99.8,71.4,99,72.1 M106.1,72.9l-4.5-0.9
			c0.8-1.4,0.6-2.7-0.5-3.8c-1.4-1.4-3.4-1.3-5.1,0.4l-5.9,5.9l7.2,7.2l1.8-1.8l-2.5-2.6l3.3-3.3l4.3,0.8L106.1,72.9z"/>
		<polygon class="st0" points="40.7,55.6 42.2,41.3 56.6,40.9 49.7,34 35.7,34.4 33.7,48.7 		"/>
		<polygon class="st0" points="53.9,69 55.4,54.8 69.9,54.4 62.9,47.4 48.9,47.9 47,62.1 		"/>
		<polygon class="st0" points="67.8,82.7 69.3,68.4 83.8,68 76.8,61.1 62.8,61.5 60.9,75.7 		"/>
		<path class="st0" d="M104,101.9l-4-4.1l1.9-1.9l4.1,4.1c0.8,0.8,0.9,1.6,0.2,2.2C105.6,102.7,104.7,102.6,104,101.9 M107.6,98.7
			l-6.1-6.1l-7.4,7.4l1.8,1.8l2.6-2.6l4.2,4.2c1.9,1.9,3.7,2,5.2,0.5C109.3,102.5,109.3,100.4,107.6,98.7"/>
		<path class="st0" d="M124.2,122.1l-4.1-4.1l2-1.9l4,4.1c0.8,0.8,0.8,1.6,0.3,2.2C125.8,123,125,122.9,124.2,122.1 M123.4,129.3
			l0.9-4.6c1.4,0.8,2.8,0.6,3.9-0.5c1.4-1.4,1.3-3.5-0.4-5.2l-6.1-6.1l-7.4,7.4l1.8,1.8l2.6-2.6l3.4,3.4l-0.8,4.4L123.4,129.3z"/>
		<path class="st0" d="M112.3,112.2l-3.2-3.3l4.7-1.4L112.3,112.2z M112.7,118.7l3.5-11.3l-2.2-2.2l-11.4,3.4l1.8,1.8l2.4-0.7
			l4.8,4.7l-0.8,2.5L112.7,118.7z"/>
		<polygon class="st0" points="132.4,138.4 132.5,131.4 129.3,130.8 127.1,133 125.3,131.3 132.7,123.9 134.5,125.7 131.1,129.1 
			139.3,130.5 141.8,133 134.8,131.8 134.8,140.7 		"/>
		<polygon class="st2" points="68.7,138.4 67.1,138.4 67.1,137.6 71.1,137.6 71.1,138.4 69.6,138.4 69.6,145.7 68.7,145.7 		"/>
		<polygon class="st2" points="72.8,141.1 74.9,141.1 74.9,141.9 72.8,141.9 72.8,144.9 75.6,144.9 75.6,145.7 71.9,145.7 
			71.9,137.6 75.5,137.6 75.5,138.4 72.8,138.4 		"/>
		<path class="st2" d="M76.4,137.6h1.8c0.7,0,1.4,0,1.9,0.8c0.3,0.5,0.4,1,0.4,1.4c0,0.8-0.2,1.2-0.4,1.5c-0.3,0.4-0.5,0.5-0.7,0.6
			l1.3,3.7h-1l-1.2-3.5h-1.2v3.5h-0.9L76.4,137.6L76.4,137.6z M77.3,141.4h0.9c0.4,0,0.7,0,1-0.4c0.3-0.3,0.4-0.8,0.4-1.1
			c0-0.2,0-0.8-0.4-1.2c-0.2-0.2-0.5-0.3-1-0.3h-0.8L77.3,141.4L77.3,141.4z"/>
		<path class="st2" d="M81.5,137.6h1.8c0.7,0,1.4,0,1.9,0.8c0.3,0.5,0.4,1,0.4,1.4c0,0.8-0.2,1.2-0.4,1.5c-0.3,0.4-0.5,0.5-0.7,0.6
			l1.3,3.7h-1l-1.2-3.5h-1.2v3.5h-0.9L81.5,137.6L81.5,137.6z M82.5,141.4h0.9c0.4,0,0.7,0,1-0.4c0.2-0.3,0.4-0.8,0.4-1.1
			c0-0.2,0-0.8-0.4-1.2c-0.2-0.2-0.5-0.3-1-0.3h-0.8L82.5,141.4L82.5,141.4z"/>
		<rect x="86.7" y="137.6" class="st2" width="0.9" height="8.1"/>
		<polygon class="st2" points="89.9,138.4 88.3,138.4 88.3,137.6 92.4,137.6 92.4,138.4 90.8,138.4 90.8,145.7 89.9,145.7 		"/>
		<path class="st2" d="M97.3,141.6c0,1.3-0.2,2.5-0.7,3.3c-0.6,0.9-1.4,0.9-1.7,0.9c-1.6,0-2.4-1.3-2.4-4.1c0-2,0.4-4.2,2.4-4.2
			C96.7,137.5,97.3,139.3,97.3,141.6z M93.5,141.5c0,2.7,0.6,3.5,1.4,3.5c1.1,0,1.4-1.3,1.4-3.4c0-2.3-0.4-3.4-1.4-3.4
			C93.9,138.2,93.5,139.3,93.5,141.5z"/>
		<path class="st2" d="M98.5,137.6h1.8c0.7,0,1.4,0,1.9,0.8c0.3,0.5,0.4,1,0.4,1.4c0,0.8-0.2,1.2-0.4,1.5c-0.3,0.4-0.5,0.5-0.7,0.6
			l1.3,3.7h-1l-1.2-3.5h-1.1v3.5h-0.9v-8H98.5z M99.5,141.4h0.9c0.4,0,0.7,0,1-0.4c0.2-0.3,0.3-0.8,0.3-1.1c0-0.2,0-0.8-0.4-1.2
			c-0.2-0.2-0.5-0.3-1-0.3h-0.8V141.4z"/>
		<polygon class="st2" points="104.6,142.3 102.8,137.6 103.7,137.6 105.1,141.3 106.5,137.6 107.4,137.6 105.5,142.3 105.5,145.7 
			104.6,145.7 		"/>
	</g>
	<g>
		<path class="st2" d="M117.9,87.8c-0.4,0.4-0.9,0.6-1.6,0.6c-0.6,0-1.1-0.2-1.6-0.6c-0.4-0.4-0.6-0.9-0.6-1.6
			c0-0.6,0.2-1.1,0.6-1.5c0.4-0.4,0.9-0.6,1.5-0.6s1.1,0.2,1.6,0.6c0.4,0.4,0.6,0.9,0.6,1.5C118.6,86.8,118.4,87.3,117.9,87.8z
			 M115.1,84.9c-0.4,0.4-0.5,0.8-0.5,1.3s0.2,1,0.5,1.3c0.4,0.4,0.8,0.6,1.3,0.6s1-0.2,1.3-0.6c0.4-0.4,0.5-0.8,0.5-1.3
			s-0.2-1-0.5-1.3c-0.4-0.4-0.8-0.6-1.3-0.6C115.9,84.3,115.4,84.5,115.1,84.9z M116.3,85c0.3,0,0.5,0,0.7,0.1s0.4,0.3,0.4,0.6
			c0,0.2-0.1,0.4-0.2,0.5c-0.1,0.1-0.2,0.1-0.3,0.1c0.2,0,0.3,0.1,0.4,0.2c0.1,0.1,0.1,0.3,0.1,0.4v0.2c0,0.1,0,0.1,0,0.2
			c0,0.1,0,0.1,0,0.1l0,0H117l0,0l0,0v-0.1v-0.2c0-0.3-0.1-0.5-0.2-0.6c-0.1-0.1-0.2-0.1-0.5-0.1H116v0.9h-0.4v-2.4h0.7V85z
			 M116.8,85.4c-0.1-0.1-0.3-0.1-0.5-0.1h-0.4v0.9h0.4c0.2,0,0.3,0,0.4-0.1c0.2-0.1,0.2-0.2,0.2-0.4C117,85.5,116.9,85.4,116.8,85.4
			z"/>
	</g>
</g>
</svg>
