<?xml version="1.0" encoding="utf-8"?>
<!-- Generator: Adobe Illustrator 21.1.0, SVG Export Plug-In . SVG Version: 6.00 Build 0)  -->
<svg version="1.1" id="Layer_1" xmlns="http://www.w3.org/2000/svg" xmlns:xlink="http://www.w3.org/1999/xlink" x="0px" y="0px"
	 viewBox="0 0 206 206" style="enable-background:new 0 0 206 206;" xml:space="preserve">
<style type="text/css">
	.st0{fill:#001C71;}
	.st1{fill:#FFFFFF;}
</style>
<g>
	<g>
		<path class="st0" d="M103,0C46.2,0,0,46.2,0,103s46.2,103,103,103s103-46.2,103-103S159.8,0,103,0z"/>
		<g>
			<g>
				<circle class="st1" cx="55.7" cy="157.8" r="2.7"/>
			</g>
			<g>
				<circle class="st1" cx="152.4" cy="157.8" r="2.7"/>
			</g>
			<g>
				<g>
					<path class="st1" d="M69,153.5v9.4h-1.6v-9.4h-3V152H72v1.5H69z"/>
				</g>
				<g>
					<path class="st1" d="M73.9,162.9V152h6.9v1.5h-5.3v3.2H80v1.5h-4.5v3.3h5.3v1.5h-6.9V162.9z"/>
				</g>
				<g>
					<path class="st1" d="M89,162.9l-2.3-4.6h-2.1v4.6H83V152h4.2c2.1,0,3.4,1.3,3.4,3.2c0,1.6-0.9,2.5-2.2,2.9l2.5,4.8H89z
						 M87.1,153.5h-2.4v3.4h2.4c1.1,0,1.8-0.6,1.8-1.7C89,154.1,88.2,153.5,87.1,153.5z"/>
				</g>
				<g>
					<path class="st1" d="M99,162.9l-2.3-4.6h-2.1v4.6H93V152h4.2c2.1,0,3.4,1.3,3.4,3.2c0,1.6-0.9,2.5-2.2,2.9l2.5,4.8H99z
						 M97.1,153.5h-2.4v3.4h2.4c1.1,0,1.8-0.6,1.8-1.7C99,154.1,98.2,153.5,97.1,153.5z"/>
				</g>
				<g>
					<path class="st1" d="M103,162.9V152h1.6v10.9H103z"/>
				</g>
				<g>
					<path class="st1" d="M111.2,153.5v9.4h-1.6v-9.4h-3V152h7.6v1.5H111.2z"/>
				</g>
				<g>
					<path class="st1" d="M122.1,161.8c-0.7,0.7-1.7,1.2-2.9,1.2s-2.1-0.4-2.9-1.2c-1.1-1.1-1.1-2.3-1.1-4.4c0-2.1,0-3.3,1.1-4.4
						c0.8-0.8,1.7-1.2,2.9-1.2s2.1,0.4,2.9,1.2c1.1,1.1,1,2.3,1,4.4C123.2,159.5,123.2,160.7,122.1,161.8z M120.9,154.1
						c-0.4-0.4-1-0.7-1.6-0.7s-1.2,0.3-1.6,0.7c-0.5,0.6-0.6,1.2-0.6,3.4s0.1,2.8,0.6,3.4c0.4,0.4,1,0.7,1.6,0.7s1.2-0.3,1.6-0.7
						c0.5-0.6,0.6-1.2,0.6-3.4C121.5,155.2,121.4,154.6,120.9,154.1z"/>
				</g>
				<g>
					<path class="st1" d="M131.6,162.9l-2.3-4.6h-2.1v4.6h-1.6V152h4.2c2.1,0,3.4,1.3,3.4,3.2c0,1.6-0.9,2.5-2.2,2.9l2.5,4.8H131.6z
						 M129.7,153.5h-2.4v3.4h2.4c1.1,0,1.8-0.6,1.8-1.7S130.8,153.5,129.7,153.5z"/>
				</g>
				<g>
					<path class="st1" d="M139.2,158.4v4.5h-1.6v-4.5l-3.2-6.4h1.8l2.3,4.8l2.3-4.8h1.8L139.2,158.4z"/>
				</g>
			</g>
			<g>
				<g>
					<path class="st1" d="M55.8,143.6v-11.2l-3.9,8.2H50l-4-8.2v11.2h-2.6v-16.8H46l4.9,10.5l4.9-10.5h2.6v16.8H55.8z"/>
				</g>
				<g>
					<path class="st1" d="M72.4,143.6l-1.2-3.4h-6.6l-1.2,3.4h-2.7l6.2-16.8H69l6.2,16.8H72.4z M67.9,130.6l-2.6,7.5h5.2L67.9,130.6
						z"/>
				</g>
				<g>
					<path class="st1" d="M86.7,143.6l-3.5-7.1H80v7.1h-2.6v-16.8h6.5c3.2,0,5.2,2.1,5.2,4.9c0,2.4-1.5,3.9-3.4,4.5l3.9,7.4
						L86.7,143.6L86.7,143.6z M83.8,129.1H80v5.3h3.8c1.7,0,2.9-1,2.9-2.6C86.6,130.1,85.5,129.1,83.8,129.1z"/>
				</g>
				<g>
					<path class="st1" d="M98.4,136.7v6.9h-2.6v-6.9l-5-9.9h2.8l3.5,7.4l3.5-7.4h2.8L98.4,136.7z"/>
				</g>
				<g>
					<path class="st1" d="M113.6,143.7c-1.7,0-2.9-0.5-4.1-1.6l1.7-1.7c0.6,0.6,1.2,1,2.4,1c1.9,0,3-1.2,3-3.4v-11.2h2.6v11.5
						C119.2,141.8,116.7,143.7,113.6,143.7z"/>
				</g>
				<g>
					<path class="st1" d="M132.8,143.6l-1.2-3.4H125l-1.2,3.4h-2.7l6.2-16.8h2.1l6.2,16.8H132.8z M128.4,130.6l-2.6,7.5h5.2
						L128.4,130.6z"/>
				</g>
				<g>
					<path class="st1" d="M148.3,143.6l-7.8-11.8v11.8H138v-16.8h2.3l7.8,11.8v-11.8h2.6v16.8H148.3z"/>
				</g>
				<g>
					<path class="st1" d="M153.8,143.6v-16.8h10.8v2.3h-8.2v4.9h7v2.3h-7v5.1h8.2v2.3h-10.8V143.6z"/>
				</g>
			</g>
		</g>
		<g>
			<g>
				<path class="st1" d="M158.6,83.4l-4.1-6.2v6.2h-1.3v-8.8h1.2l4.1,6.2v-6.2h1.3v8.8H158.6z"/>
			</g>
			<g>
				<path class="st1" d="M165.5,79.9h-2v3.5h-1.3v-8.8h3.3c1.7,0,2.8,1.1,2.8,2.7C168.3,78.8,167.2,79.9,165.5,79.9z M165.4,75.8
					h-1.9v2.9h1.9c0.9,0,1.6-0.5,1.6-1.5C167,76.3,166.3,75.8,165.4,75.8z"/>
			</g>
			<g>
				<path class="st1" d="M175.3,83.4l-4.1-6.2v6.2h-1.3v-8.8h1.2l4.1,6.2v-6.2h1.3v8.8H175.3z"/>
			</g>
			<g>
				<path class="st1" d="M180,83.4c-0.9,0-1.5-0.2-2.1-0.9l0.9-0.9c0.3,0.3,0.6,0.5,1.2,0.5c1,0,1.6-0.6,1.6-1.8v-5.9h1.3v6
					C182.9,82.4,181.6,83.4,180,83.4z"/>
			</g>
		</g>
		<g>
			<g>
				<path class="st1" d="M26.7,83.4V76L25,77.5v-1.4l1.7-1.5H28v8.8L26.7,83.4L26.7,83.4z"/>
			</g>
			<g>
				<path class="st1" d="M35.4,79.3l-2,4.1h-1.3l1.9-3.8c-0.2,0.1-0.5,0.1-0.8,0.1c-1.3,0-2.3-1-2.3-2.5c0-1.6,1.1-2.7,2.6-2.7
					s2.6,1,2.6,2.6C36.1,77.9,35.8,78.5,35.4,79.3z M33.5,75.6c-0.8,0-1.3,0.6-1.3,1.5s0.5,1.5,1.3,1.5s1.3-0.6,1.3-1.5
					C34.8,76.2,34.3,75.6,33.5,75.6z"/>
			</g>
			<g>
				<path class="st1" d="M39.8,83.4h-1.4l2.9-7.7h-2.7v1.4h-1.2v-2.5h5.2v1.1L39.8,83.4z"/>
			</g>
			<g>
				<path class="st1" d="M48.5,82.8c-0.4,0.4-1,0.7-1.9,0.7c-0.8,0-1.5-0.3-1.9-0.7c-0.5-0.5-0.6-1-0.7-1.7h1.3
					c0.1,0.8,0.5,1.2,1.3,1.2c0.4,0,0.7-0.1,0.9-0.3c0.4-0.4,0.4-1,0.4-1.5c0-1-0.3-1.8-1.3-1.8c-0.7,0-1.1,0.4-1.2,0.8h-1.1v-4.8
					H49v1.1h-3.6v2.3c0.3-0.3,0.8-0.5,1.5-0.5s1.2,0.2,1.6,0.6c0.7,0.7,0.8,1.5,0.8,2.3C49.2,81.4,49.1,82.1,48.5,82.8z"/>
			</g>
		</g>
		<g>
			<g>
				<polygon class="st1" points="39.1,115.6 81.2,115.6 82.9,112.6 89.7,108 85.6,108 88.9,102.3 95.8,97.7 91.6,97.7 103,78.1 
					81.9,42 				"/>
			</g>
			<g>
				<polygon class="st1" points="124.1,42 103,78.1 114.4,97.7 110.5,97.7 116.9,102 120.4,108 116.5,108 123,112.4 124.8,115.6 
					166.9,115.6 				"/>
			</g>
		</g>
		<g>
			<path class="st1" d="M103,195c-50.7,0-92-41.3-92-92s41.3-92,92-92s92,41.3,92,92S153.7,195,103,195z M103,14.4
				c-48.9,0-88.6,39.7-88.6,88.6s39.7,88.6,88.6,88.6s88.6-39.7,88.6-88.6S151.9,14.4,103,14.4z"/>
		</g>
	</g>
	<g>
		<path class="st1" d="M170,130.2c-0.4,0.4-0.9,0.6-1.6,0.6c-0.6,0-1.1-0.2-1.6-0.6c-0.4-0.4-0.6-0.9-0.6-1.6c0-0.6,0.2-1.1,0.6-1.5
			c0.4-0.4,0.9-0.6,1.5-0.6s1.1,0.2,1.6,0.6c0.4,0.4,0.6,0.9,0.6,1.5C170.7,129.3,170.5,129.8,170,130.2z M167.1,127.3
			c-0.4,0.4-0.5,0.8-0.5,1.3s0.2,1,0.5,1.3c0.4,0.4,0.8,0.6,1.3,0.6s1-0.2,1.3-0.6c0.4-0.4,0.5-0.8,0.5-1.3s-0.2-1-0.5-1.3
			c-0.4-0.4-0.8-0.6-1.3-0.6C168,126.8,167.5,126.9,167.1,127.3z M168.4,127.4c0.3,0,0.5,0,0.7,0.1s0.4,0.3,0.4,0.6
			c0,0.2-0.1,0.4-0.2,0.5c-0.1,0.1-0.2,0.1-0.3,0.1c0.2,0,0.3,0.1,0.4,0.2c0.1,0.1,0.1,0.3,0.1,0.4v0.2c0,0.1,0,0.1,0,0.2
			c0,0.1,0,0.1,0,0.1l0,0h-0.4l0,0l0,0v-0.1v-0.2c0-0.3-0.1-0.5-0.2-0.6c-0.1-0.1-0.2-0.1-0.5-0.1h-0.3v0.9h-0.4v-2.4h0.7V127.4z
			 M168.9,127.8c-0.1-0.1-0.3-0.1-0.5-0.1H168v0.9h0.4c0.2,0,0.3,0,0.4-0.1c0.2-0.1,0.2-0.2,0.2-0.4C169,128,169,127.9,168.9,127.8z
			"/>
	</g>
</g>
</svg>
